<svg width="127" height="28" viewBox="0 0 127 28" fill="none" xmlns="http://www.w3.org/2000/svg">
<path d="M23.9121 13.6953C23.8848 14.0234 23.9121 14.3379 23.9941 14.6387C24.0762 14.9395 24.1719 15.2402 24.2812 15.541C24.418 15.8145 24.541 16.1016 24.6504 16.4023C24.7598 16.7031 24.8418 17.0039 24.8965 17.3047C24.9512 17.6875 24.9512 18.1113 24.8965 18.5762C24.8418 19.0137 24.7461 19.4512 24.6094 19.8887C24.4727 20.2988 24.2949 20.6816 24.0762 21.0371C23.8574 21.3652 23.5977 21.6113 23.2969 21.7754C22.9141 22.2676 22.4492 22.6504 21.9023 22.9238C21.3555 23.1973 20.8496 23.5254 20.3848 23.9082C20.084 24.0996 19.7422 24.2363 19.3594 24.3184C19.0039 24.4004 18.6348 24.4824 18.252 24.5645C17.9512 24.7285 17.5957 24.9062 17.1855 25.0977C16.7754 25.2617 16.3516 25.4258 15.9141 25.5898C15.4766 25.7266 15.0391 25.8359 14.6016 25.918C14.1641 25.9727 13.7812 25.9863 13.4531 25.959C12.6328 26.2598 11.8262 26.4512 11.0332 26.5332C10.2676 26.6426 9.36523 26.5879 8.32617 26.3691C7.3418 26.5059 6.42578 26.4648 5.57812 26.2461C4.75781 26.0273 4.01953 25.6855 3.36328 25.2207C2.73438 24.7285 2.17383 24.1543 1.68164 23.498C1.2168 22.8145 0.833984 22.1035 0.533203 21.3652C0.314453 19.8066 0.369141 18.3984 0.697266 17.1406C1.02539 15.8555 1.49023 14.6797 2.0918 13.6133C2.7207 12.5195 3.43164 11.5215 4.22461 10.6191C5.01758 9.68945 5.7832 8.78711 6.52148 7.91211C6.68555 7.9668 6.80859 7.9668 6.89062 7.91211C7 7.83008 7.0957 7.73438 7.17773 7.625C7.25977 7.48828 7.3418 7.36523 7.42383 7.25586C7.5332 7.14648 7.65625 7.07812 7.79297 7.05078C7.98438 6.64062 8.25781 6.33984 8.61328 6.14844C8.99609 5.92969 9.29688 5.62891 9.51562 5.24609C9.76172 5.19141 9.9668 5.10938 10.1309 5C10.2949 4.89063 10.4453 4.76758 10.582 4.63086C10.7461 4.49414 10.9102 4.37109 11.0742 4.26172C11.2383 4.125 11.4297 4.0293 11.6484 3.97461V3.52344C12.1406 3.30469 12.4961 3.05859 12.7148 2.78516C12.9609 2.48437 13.248 2.12891 13.5762 1.71875C13.8223 1.69141 14.0137 1.67773 14.1504 1.67773C14.3145 1.67773 14.5469 1.65039 14.8477 1.5957C15.0664 1.21289 15.2578 0.925781 15.4219 0.734375C15.6133 0.542969 15.8867 0.337891 16.2422 0.119141C16.5703 0.283203 16.9258 0.392578 17.3086 0.447266C17.7188 0.501953 18.0742 0.679687 18.375 0.980469C18.4023 1.25391 18.4844 1.47266 18.6211 1.63672C18.7578 1.77344 18.9082 1.91016 19.0723 2.04688C19.2363 2.15625 19.3867 2.2793 19.5234 2.41602C19.6875 2.55273 19.7969 2.74414 19.8516 2.99023C19.9609 3.01758 20.0293 3.00391 20.0566 2.94922C20.1113 2.89453 20.1934 2.88086 20.3027 2.9082C20.3848 3.29102 20.4805 3.55078 20.5898 3.6875C20.6992 3.79687 20.8086 4.0293 20.918 4.38477C20.7812 4.6582 20.6719 4.94531 20.5898 5.24609C20.5352 5.51953 20.3711 5.72461 20.0977 5.86133C20.0703 6.05273 20.125 6.16211 20.2617 6.18945C20.3984 6.18945 20.4805 6.25781 20.5078 6.39453C20.5352 6.64062 20.4941 6.81836 20.3848 6.92773C21.041 7.99414 21.6289 9.12891 22.1484 10.332C22.668 11.5078 23.2559 12.6289 23.9121 13.6953ZM18.7852 17.5918C18.8945 17.291 19.0312 17.0449 19.1953 16.8535C19.3867 16.6621 19.4961 16.375 19.5234 15.9922C19.3867 15.7734 19.3047 15.6094 19.2773 15.5C19.25 15.3633 19.2363 15.1582 19.2363 14.8848C18.6348 14.0371 18.1152 13.1348 17.6777 12.1777C17.2402 11.1934 16.748 10.2773 16.2012 9.42969C16.1465 9.53906 16.0508 9.64844 15.9141 9.75781C15.7773 9.86719 15.627 9.83984 15.4629 9.67578C15.4082 9.89453 15.3125 10.0586 15.1758 10.168C15.0391 10.25 14.8887 10.291 14.7246 10.291C14.5605 10.2637 14.3828 10.2227 14.1914 10.168C14.0273 10.0859 13.877 9.99023 13.7402 9.88086C12.9473 10.5098 12.1543 11.125 11.3613 11.7266C10.5684 12.3281 9.85742 13.0254 9.22852 13.8184C9.11914 13.873 9.05078 13.9004 9.02344 13.9004C8.99609 13.873 8.91406 13.8867 8.77734 13.9414C8.55859 14.4609 8.28516 14.9395 7.95703 15.377C7.65625 15.7871 7.35547 16.2109 7.05469 16.6484C6.75391 17.0859 6.49414 17.5508 6.27539 18.043C6.05664 18.5352 5.93359 19.1094 5.90625 19.7656C6.37109 20.1484 6.91797 20.3809 7.54688 20.4629C8.17578 20.5449 8.81836 20.5586 9.47461 20.5039C10.1582 20.4492 10.8145 20.3672 11.4434 20.2578C12.0996 20.1211 12.7012 20.0527 13.248 20.0527C14.3965 19.7793 15.3809 19.4238 16.2012 18.9863C17.0215 18.5215 17.8828 18.0566 18.7852 17.5918ZM37.8574 15.2539C37.666 15.418 37.502 15.623 37.3652 15.8691C37.2285 16.0879 37.0918 16.3203 36.9551 16.5664C36.8184 16.8672 36.668 17.1543 36.5039 17.4277C36.3398 17.7012 36.1348 17.9473 35.8887 18.166C35.752 18.5762 35.6152 18.9043 35.4785 19.1504C35.3418 19.3691 35.123 19.6289 34.8223 19.9297C34.5488 21.0234 33.9062 22.2129 32.8945 23.498C32.8672 23.7441 32.7852 23.9902 32.6484 24.2363C32.5391 24.4551 32.416 24.6738 32.2793 24.8926C32.2246 24.9746 32.1699 25.0703 32.1152 25.1797C32.0605 25.2617 32.0195 25.3301 31.9922 25.3848L31.9102 25.7949C31.7734 26.0137 31.623 26.2051 31.459 26.3691C31.2949 26.5332 31.1445 26.6836 31.0078 26.8203C30.9531 26.9023 30.8574 27.0117 30.7207 27.1484L30.1055 27.3945C28.1094 27.1211 26.8926 26.0547 26.4551 24.1953L26.4961 23.7852C26.5508 23.6484 26.5918 23.5117 26.6191 23.375C26.6738 23.2109 26.7285 23.0469 26.7832 22.8828C26.8926 22.5 27.0156 22.1172 27.1523 21.7344C27.3164 21.3516 27.5488 21.0098 27.8496 20.709C27.9043 20.5176 28.0273 20.2168 28.2188 19.8066C28.4102 19.3691 28.7383 18.7266 29.2031 17.8789C29.5859 17.2227 29.8867 16.7031 30.1055 16.3203C30.3242 15.9375 30.502 15.6367 30.6387 15.418C30.3652 14.9805 30.0371 14.584 29.6543 14.2285C29.2988 13.5449 28.9844 12.8887 28.7109 12.2598C28.4648 11.6309 28.2734 11.0703 28.1367 10.5781C28.1094 10.2227 28.0684 9.92188 28.0137 9.67578C27.959 9.42969 27.9043 9.16992 27.8496 8.89648C27.7676 8.5957 27.6992 8.29492 27.6445 7.99414C27.5898 7.69336 27.5625 7.37891 27.5625 7.05078C27.4258 6.85938 27.3438 6.66797 27.3164 6.47656L27.3984 6.06641C27.4805 5.875 27.4941 5.62891 27.4395 5.32812C27.3848 5 27.3164 4.67188 27.2344 4.34375C27.1797 4.07031 27.1113 3.76953 27.0293 3.44141C26.9746 3.11328 26.9609 2.78516 26.9883 2.45703C27.0156 2.12891 27.0977 1.82812 27.2344 1.55469C27.3984 1.25391 27.6582 0.994141 28.0137 0.775391L28.7109 0.734375C28.957 0.871094 29.1895 1.00781 29.4082 1.14453C29.6543 1.25391 29.8867 1.37695 30.1055 1.51367C30.4062 1.65039 30.6934 1.78711 30.9668 1.92383C31.2402 2.06055 31.5273 2.23828 31.8281 2.45703L32.1152 3.03125L32.6484 3.48242V3.93359C32.6758 4.04297 32.6895 4.19336 32.6895 4.38477C32.6895 4.74023 32.7441 4.95898 32.8535 5.04102L33.0176 5.5332C33.0176 5.91602 33.0586 6.28516 33.1406 6.64062C33.2227 6.96875 33.3047 7.2832 33.3867 7.58398C33.4688 7.88477 33.5508 8.19922 33.6328 8.52734C33.7148 8.85547 33.7285 9.21094 33.6738 9.59375C33.8379 9.51172 33.9746 9.41602 34.084 9.30664C34.1387 9.25195 34.1934 9.21094 34.248 9.18359C34.3027 9.15625 34.3574 9.11523 34.4121 9.06055L36.832 5.7793L36.75 5.36914L37.6113 4.54883C37.8301 4.33008 38.0352 4.125 38.2266 3.93359C38.4453 3.74219 38.623 3.53711 38.7598 3.31836L39.2109 2.99023C40.0859 1.62305 41.3301 0.775391 42.9434 0.447266L43.5176 0.365234L43.6816 0.898438C43.791 1.19922 44.0098 1.47266 44.3379 1.71875C44.6934 1.96484 45.0625 2.19727 45.4453 2.41602L45.8145 2.66211C45.9512 2.93555 46.0195 3.14062 46.0195 3.27734C46.0195 3.41406 46.0059 3.53711 45.9785 3.64648L46.1426 4.05664C45.9238 4.71289 45.6504 5.19141 45.3223 5.49219C45.0215 5.79297 44.7207 6.06641 44.4199 6.3125C44.1738 6.53125 43.9414 6.73633 43.7227 6.92773C43.5312 7.0918 43.3809 7.31055 43.2715 7.58398L42.9844 7.91211C42.4102 8.24023 42.041 8.67773 41.877 9.22461L41.7539 9.7168H41.2617C41.2344 9.7168 41.166 9.77148 41.0566 9.88086C40.9746 9.96289 40.8379 10.1953 40.6465 10.5781C40.4551 10.8516 40.3184 11.0293 40.2363 11.1113C40.1543 11.1934 40.0859 11.2617 40.0312 11.3164C40.0039 11.4258 39.9629 11.5352 39.9082 11.6445C39.8809 11.7266 39.8398 11.8359 39.7852 11.9727C39.4297 12.3281 39.2109 12.6016 39.1289 12.793C39.0469 12.957 38.9512 13.1484 38.8418 13.3672C38.7324 13.5859 38.623 13.8047 38.5137 14.0234C38.4316 14.2148 38.2812 14.4199 38.0625 14.6387L37.8574 15.2539ZM64.1895 13.6953C64.1621 14.0234 64.1895 14.3379 64.2715 14.6387C64.3535 14.9395 64.4492 15.2402 64.5586 15.541C64.6953 15.8145 64.8184 16.1016 64.9277 16.4023C65.0371 16.7031 65.1191 17.0039 65.1738 17.3047C65.2285 17.6875 65.2285 18.1113 65.1738 18.5762C65.1191 19.0137 65.0234 19.4512 64.8867 19.8887C64.75 20.2988 64.5723 20.6816 64.3535 21.0371C64.1348 21.3652 63.875 21.6113 63.5742 21.7754C63.1914 22.2676 62.7266 22.6504 62.1797 22.9238C61.6328 23.1973 61.127 23.5254 60.6621 23.9082C60.3613 24.0996 60.0195 24.2363 59.6367 24.3184C59.2812 24.4004 58.9121 24.4824 58.5293 24.5645C58.2285 24.7285 57.873 24.9062 57.4629 25.0977C57.0527 25.2617 56.6289 25.4258 56.1914 25.5898C55.7539 25.7266 55.3164 25.8359 54.8789 25.918C54.4414 25.9727 54.0586 25.9863 53.7305 25.959C52.9102 26.2598 52.1035 26.4512 51.3105 26.5332C50.5449 26.6426 49.6426 26.5879 48.6035 26.3691C47.6191 26.5059 46.7031 26.4648 45.8555 26.2461C45.0352 26.0273 44.2969 25.6855 43.6406 25.2207C43.0117 24.7285 42.4512 24.1543 41.959 23.498C41.4941 22.8145 41.1113 22.1035 40.8105 21.3652C40.5918 19.8066 40.6465 18.3984 40.9746 17.1406C41.3027 15.8555 41.7676 14.6797 42.3691 13.6133C42.998 12.5195 43.709 11.5215 44.502 10.6191C45.2949 9.68945 46.0605 8.78711 46.7988 7.91211C46.9629 7.9668 47.0859 7.9668 47.168 7.91211C47.2773 7.83008 47.373 7.73438 47.4551 7.625C47.5371 7.48828 47.6191 7.36523 47.7012 7.25586C47.8105 7.14648 47.9336 7.07812 48.0703 7.05078C48.2617 6.64062 48.5352 6.33984 48.8906 6.14844C49.2734 5.92969 49.5742 5.62891 49.793 5.24609C50.0391 5.19141 50.2441 5.10938 50.4082 5C50.5723 4.89063 50.7227 4.76758 50.8594 4.63086C51.0234 4.49414 51.1875 4.37109 51.3516 4.26172C51.5156 4.125 51.707 4.0293 51.9258 3.97461V3.52344C52.418 3.30469 52.7734 3.05859 52.9922 2.78516C53.2383 2.48437 53.5254 2.12891 53.8535 1.71875C54.0996 1.69141 54.291 1.67773 54.4277 1.67773C54.5918 1.67773 54.8242 1.65039 55.125 1.5957C55.3438 1.21289 55.5352 0.925781 55.6992 0.734375C55.8906 0.542969 56.1641 0.337891 56.5195 0.119141C56.8477 0.283203 57.2031 0.392578 57.5859 0.447266C57.9961 0.501953 58.3516 0.679687 58.6523 0.980469C58.6797 1.25391 58.7617 1.47266 58.8984 1.63672C59.0352 1.77344 59.1855 1.91016 59.3496 2.04688C59.5137 2.15625 59.6641 2.2793 59.8008 2.41602C59.9648 2.55273 60.0742 2.74414 60.1289 2.99023C60.2383 3.01758 60.3066 3.00391 60.334 2.94922C60.3887 2.89453 60.4707 2.88086 60.5801 2.9082C60.6621 3.29102 60.7578 3.55078 60.8672 3.6875C60.9766 3.79687 61.0859 4.0293 61.1953 4.38477C61.0586 4.6582 60.9492 4.94531 60.8672 5.24609C60.8125 5.51953 60.6484 5.72461 60.375 5.86133C60.3477 6.05273 60.4023 6.16211 60.5391 6.18945C60.6758 6.18945 60.7578 6.25781 60.7852 6.39453C60.8125 6.64062 60.7715 6.81836 60.6621 6.92773C61.3184 7.99414 61.9062 9.12891 62.4258 10.332C62.9453 11.5078 63.5332 12.6289 64.1895 13.6953ZM59.0625 17.5918C59.1719 17.291 59.3086 17.0449 59.4727 16.8535C59.6641 16.6621 59.7734 16.375 59.8008 15.9922C59.6641 15.7734 59.582 15.6094 59.5547 15.5C59.5273 15.3633 59.5137 15.1582 59.5137 14.8848C58.9121 14.0371 58.3926 13.1348 57.9551 12.1777C57.5176 11.1934 57.0254 10.2773 56.4785 9.42969C56.4238 9.53906 56.3281 9.64844 56.1914 9.75781C56.0547 9.86719 55.9043 9.83984 55.7402 9.67578C55.6855 9.89453 55.5898 10.0586 55.4531 10.168C55.3164 10.25 55.166 10.291 55.002 10.291C54.8379 10.2637 54.6602 10.2227 54.4688 10.168C54.3047 10.0859 54.1543 9.99023 54.0176 9.88086C53.2246 10.5098 52.4316 11.125 51.6387 11.7266C50.8457 12.3281 50.1348 13.0254 49.5059 13.8184C49.3965 13.873 49.3281 13.9004 49.3008 13.9004C49.2734 13.873 49.1914 13.8867 49.0547 13.9414C48.8359 14.4609 48.5625 14.9395 48.2344 15.377C47.9336 15.7871 47.6328 16.2109 47.332 16.6484C47.0312 17.0859 46.7715 17.5508 46.5527 18.043C46.334 18.5352 46.2109 19.1094 46.1836 19.7656C46.6484 20.1484 47.1953 20.3809 47.8242 20.4629C48.4531 20.5449 49.0957 20.5586 49.752 20.5039C50.4355 20.4492 51.0918 20.3672 51.7207 20.2578C52.377 20.1211 52.9785 20.0527 53.5254 20.0527C54.6738 19.7793 55.6582 19.4238 56.4785 18.9863C57.2988 18.5215 58.1602 18.0566 59.0625 17.5918ZM89.7832 26.5332C88.8262 26.0957 88.0605 25.4531 87.4863 24.6055C86.9395 23.7578 86.3926 22.8145 85.8457 21.7754C85.7637 21.6113 85.6816 21.4473 85.5996 21.2832C85.5176 21.1191 85.4355 20.9688 85.3535 20.832L84.7793 19.7656L84.4512 19.1094L83.959 19.5605L83.2207 20.2168L82.8105 20.627C82.0996 21.2832 81.375 21.9395 80.6367 22.5957C79.9258 23.2246 79.1602 23.7988 78.3398 24.3184C77.5469 24.8105 76.6992 25.2207 75.7969 25.5488C74.9219 25.8496 73.9648 26.0137 72.9258 26.041L72.0234 25.5898C71.5039 25.3164 71.0664 25.0703 70.7109 24.8516C70.3555 24.6328 69.9453 24.291 69.4805 23.8262C69.3438 23.5801 69.2207 23.3477 69.1113 23.1289C69.0293 22.9102 68.9336 22.6914 68.8242 22.4727C68.5234 21.9258 68.2773 21.4336 68.0859 20.9961C67.8945 20.5586 67.7031 20.0664 67.5117 19.5195C67.5938 19.1367 67.7168 18.4941 67.8809 17.5918C68.0449 16.6621 68.2363 15.6504 68.4551 14.5566C68.7012 13.4629 68.9473 12.3691 69.1934 11.2754C69.4668 10.1543 69.7402 9.18359 70.0137 8.36328C70.2598 7.65234 70.5332 6.90039 70.834 6.10742C71.1621 5.31445 71.5039 4.58984 71.8594 3.93359C72.2422 3.25 72.6523 2.67578 73.0898 2.21094C73.5273 1.71875 73.9922 1.43164 74.4844 1.34961C74.6211 1.54102 74.7715 1.67773 74.9355 1.75977C75.0996 1.8418 75.25 1.91016 75.3867 1.96484C75.7695 2.51172 76.1387 2.97656 76.4941 3.35938C76.877 3.74219 77.3145 4.125 77.8066 4.50781C77.6699 5.19141 77.4648 5.95703 77.1914 6.80469C76.9453 7.625 76.6719 8.45898 76.3711 9.30664C76.0977 10.127 75.8242 10.9336 75.5508 11.7266C75.2773 12.5195 75.0586 13.2031 74.8945 13.7773C74.7305 14.2422 74.5938 14.7617 74.4844 15.3359C74.2383 16.3477 74.0059 17.7285 73.7871 19.4785C74.1152 19.3965 74.4707 19.2188 74.8535 18.9453C75.2363 18.6719 75.6055 18.3848 75.9609 18.084C76.3711 17.7559 76.7812 17.3867 77.1914 16.9766C77.7109 16.457 78.1484 15.9785 78.5039 15.541C78.8594 15.1035 79.1875 14.6523 79.4883 14.1875C79.8164 13.7227 80.1445 13.2168 80.4727 12.6699C80.8008 12.0957 81.1973 11.4258 81.6621 10.6602C82.0723 10.0039 82.4961 9.30664 82.9336 8.56836C83.3984 7.80273 83.8496 7.07812 84.2871 6.39453C84.752 5.68359 85.2031 5.04102 85.6406 4.4668C86.0781 3.89258 86.4746 3.44141 86.8301 3.11328C87.0488 3.38672 87.3223 3.64648 87.6504 3.89258C88.0059 4.13867 88.375 4.33008 88.7578 4.4668C88.9219 4.71289 89.0723 4.94531 89.209 5.16406C89.373 5.35547 89.5234 5.5332 89.6602 5.69727C89.8242 5.94336 89.9746 6.17578 90.1113 6.39453C90.2754 6.61328 90.4258 6.83203 90.5625 7.05078C90.5352 7.24219 90.4941 7.48828 90.4395 7.78906C90.3848 8.08984 90.3164 8.41797 90.2344 8.77344C90.1797 9.12891 90.1113 9.49805 90.0293 9.88086C89.9473 10.2363 89.8652 10.5781 89.7832 10.9062C89.5645 11.9453 89.4004 12.7246 89.291 13.2441C89.1816 13.7637 89.0996 14.1738 89.0449 14.4746C89.0176 14.7754 88.9902 15.0352 88.9629 15.2539C88.9629 15.4453 88.9629 15.7188 88.9629 16.0742C88.9355 16.3477 88.9492 16.6211 89.0039 16.8945C89.0312 17.1406 89.0859 17.4004 89.168 17.6738C89.25 17.9473 89.3594 18.1934 89.4961 18.4121L91.1367 17.1406C91.6016 16.7852 92.0391 16.3066 92.4492 15.7051C92.8867 15.0762 93.2969 14.3652 93.6797 13.5723C94.0898 12.752 94.4863 11.8633 94.8691 10.9062C95.252 9.94922 95.6348 8.97852 96.0176 7.99414C96.5918 6.54492 97.166 5.13672 97.7402 3.76953C98.3418 2.40234 98.916 1.34961 99.4629 0.611328C100.064 0.994141 100.584 1.39062 101.021 1.80078C101.486 2.18359 101.883 2.60742 102.211 3.07227C102.539 3.53711 102.799 4.07031 102.99 4.67188C103.209 5.27344 103.359 5.98438 103.441 6.80469C102.949 7.76172 102.471 8.74609 102.006 9.75781C101.568 10.7695 101.145 11.7812 100.734 12.793C100.188 14.1055 99.6133 15.418 99.0117 16.7305C98.4375 18.043 97.7949 19.3008 97.084 20.5039C96.373 21.6797 95.5801 22.7734 94.7051 23.7852C93.8301 24.7695 92.8184 25.6035 91.6699 26.2871C91.3691 26.2051 91.1094 26.1641 90.8906 26.1641C90.4531 26.1641 90.084 26.2871 89.7832 26.5332ZM109.758 18.5352C109.512 18.5898 109.334 18.7402 109.225 18.9863C109.115 19.2051 109.006 19.4375 108.896 19.6836C108.814 19.9297 108.719 20.1621 108.609 20.3809C108.527 20.5723 108.391 20.668 108.199 20.668C108.172 20.8867 108.09 21.0781 107.953 21.2422C107.844 21.4062 107.734 21.584 107.625 21.7754C107.516 21.9395 107.434 22.1309 107.379 22.3496C107.324 22.541 107.352 22.7734 107.461 23.0469C107.242 23.2109 107.105 23.4434 107.051 23.7441C106.996 24.0449 106.928 24.332 106.846 24.6055C106.791 24.8789 106.682 25.1113 106.518 25.3027C106.354 25.4941 106.053 25.5762 105.615 25.5488C105.533 25.6582 105.52 25.7266 105.574 25.7539C105.629 25.7812 105.67 25.877 105.697 26.041C105.396 25.9863 105.164 26 105 26.082C104.863 26.1914 104.686 26.2598 104.467 26.2871C103.947 26.123 103.51 25.8359 103.154 25.4258C102.826 25.0156 102.525 24.5645 102.252 24.0723C102.006 23.5527 101.773 23.0332 101.555 22.5137C101.363 21.9941 101.172 21.543 100.98 21.1602C101.062 20.8594 101.076 20.5723 101.021 20.2988C100.967 19.998 100.871 19.752 100.734 19.5605C102.074 16.7168 103.537 13.6816 105.123 10.4551C106.709 7.22852 108.213 4.04297 109.635 0.898438C110.264 1.14453 110.879 1.43164 111.48 1.75977C112.109 2.06055 112.67 2.41602 113.162 2.82617C113.682 3.23633 114.119 3.71484 114.475 4.26172C114.83 4.78125 115.062 5.36914 115.172 6.02539C115.117 6.18945 115.049 6.25781 114.967 6.23047C114.912 6.17578 114.857 6.18945 114.803 6.27148C114.912 6.4082 114.967 6.50391 114.967 6.55859C114.994 6.61328 114.994 6.66797 114.967 6.72266C114.967 6.77734 114.967 6.85938 114.967 6.96875C114.967 7.05078 115.008 7.17383 115.09 7.33789C114.98 7.31055 114.898 7.32422 114.844 7.37891C114.816 7.43359 114.734 7.43359 114.598 7.37891C114.707 7.67969 114.734 7.92578 114.68 8.11719C114.652 8.30859 114.598 8.48633 114.516 8.65039C114.434 8.78711 114.365 8.95117 114.311 9.14258C114.256 9.30664 114.27 9.52539 114.352 9.79883C114.27 9.79883 114.201 9.82617 114.146 9.88086C114.119 9.9082 114.092 9.94922 114.064 10.0039C114.037 10.0312 113.996 10.0723 113.941 10.127C113.914 10.1543 113.859 10.1543 113.777 10.127C113.859 10.7285 113.887 11.3301 113.859 11.9316C113.832 12.5332 113.805 13.1484 113.777 13.7773C113.777 14.3789 113.791 15.0215 113.818 15.7051C113.846 16.3613 113.941 17.0449 114.105 17.7559C115.09 17.1816 115.869 16.4434 116.443 15.541C117.045 14.6387 117.523 13.627 117.879 12.5059C118.262 11.3848 118.549 10.1816 118.74 8.89648C118.932 7.61133 119.137 6.29883 119.355 4.95898C119.602 4.71289 119.793 4.41211 119.93 4.05664C120.066 3.70117 120.189 3.33203 120.299 2.94922C120.408 2.53906 120.518 2.14258 120.627 1.75977C120.736 1.34961 120.873 0.980469 121.037 0.652344C121.447 0.707031 121.789 0.84375 122.062 1.0625C122.363 1.25391 122.637 1.47266 122.883 1.71875C123.129 1.9375 123.389 2.15625 123.662 2.375C123.936 2.56641 124.277 2.68945 124.688 2.74414C125.016 3.20898 125.316 3.66016 125.59 4.09766C125.863 4.53516 126.041 5 126.123 5.49219C125.986 5.71094 125.877 5.95703 125.795 6.23047C125.74 6.50391 125.672 6.77734 125.59 7.05078C125.508 7.32422 125.398 7.58398 125.262 7.83008C125.125 8.04883 124.934 8.24023 124.688 8.4043C124.605 9.11523 124.496 9.77148 124.359 10.373C124.25 10.9473 124.127 11.5215 123.99 12.0957C123.881 12.6699 123.785 13.2715 123.703 13.9004C123.621 14.502 123.594 15.1719 123.621 15.9102C123.402 16.5391 123.17 17.209 122.924 17.9199C122.678 18.6309 122.486 19.2734 122.35 19.8477C121.912 20.2031 121.57 20.627 121.324 21.1191C121.078 21.6113 120.818 22.1035 120.545 22.5957C120.436 22.7051 120.367 22.7324 120.34 22.6777C120.312 22.623 120.217 22.582 120.053 22.5547C120.08 22.6641 120.08 22.7461 120.053 22.8008C120.025 22.8555 119.984 22.9102 119.93 22.9648C119.902 22.9922 119.875 23.0469 119.848 23.1289C119.848 23.2109 119.875 23.3203 119.93 23.457C119.547 23.6211 119.205 23.8535 118.904 24.1543C118.604 24.4551 118.275 24.7285 117.92 24.9746C117.592 25.2207 117.182 25.3848 116.689 25.4668C116.225 25.5488 115.609 25.4531 114.844 25.1797C113.723 24.3594 112.725 23.416 111.85 22.3496C111.002 21.2832 110.305 20.0117 109.758 18.5352Z" fill="#292A2C"/>
</svg>
