<svg width="315" height="103" viewBox="0 0 315 103" fill="none" xmlns="http://www.w3.org/2000/svg">
<path d="M5.07997 15.4H7.75997V9.22L12.24 1.1H9.63997L6.49997 7.02L3.27997 1.1H0.339966L5.07997 9.2V15.4Z" fill="#D7D6D5"/>
<path d="M17.0965 13.72C15.2565 13.72 14.1965 12.38 14.1965 10.24V10.08C14.1965 7.92 15.2965 6.62 17.0965 6.62C18.8965 6.62 19.9765 7.94 19.9765 10.1V10.24C19.9765 12.38 18.8965 13.72 17.0965 13.72ZM17.0765 15.6C20.1565 15.6 22.4565 13.48 22.4565 10.22V10.06C22.4565 6.86 20.1565 4.72 17.0965 4.72C14.0165 4.72 11.7165 6.88 11.7165 10.12V10.28C11.7165 13.46 13.9965 15.6 17.0765 15.6Z" fill="#D7D6D5"/>
<path d="M28.1431 15.6C29.8431 15.6 30.9431 14.78 31.4631 13.76V15.4H33.8831V4.94H31.4631V11.16C31.4631 12.82 30.3231 13.66 29.0231 13.66C27.6231 13.66 26.9631 12.94 26.9631 11.36V4.94H24.5431V11.64C24.5431 14.42 26.0831 15.6 28.1431 15.6Z" fill="#D7D6D5"/>
<path d="M36.7525 15.4H39.1725V9.96C39.1725 7.74 40.4525 7.06 42.5725 7.04V4.78C40.8125 4.8 39.8325 5.58 39.1725 6.9V4.94H36.7525V15.4Z" fill="#D7D6D5"/>
<path d="M49.6673 15.4H52.3273V9.62H54.0273L57.7673 15.4H60.6473L56.6273 9.22C58.4073 8.76 59.8073 7.62 59.8073 5.38V5.3C59.8073 2.38 57.6073 1.1 54.4673 1.1H49.6673V15.4ZM52.3273 7.72V3.16H54.4673C56.1673 3.16 57.1873 3.72 57.1873 5.36V5.44C57.1873 6.96 56.2473 7.72 54.4673 7.72H52.3273Z" fill="#D7D6D5"/>
<path d="M66.7822 15.6C69.4622 15.6 71.2422 14.4 71.5822 12.2H69.2422C69.0622 13.22 68.3022 13.8 66.8422 13.8C65.0422 13.8 64.0422 12.68 63.9622 10.7H71.6222V10C71.6222 6.26 69.2822 4.72 66.6822 4.72C63.7022 4.72 61.4822 6.88 61.4822 10.12V10.28C61.4822 13.58 63.7022 15.6 66.7822 15.6ZM64.0022 9.08C64.2422 7.46 65.2222 6.48 66.6822 6.48C68.1822 6.48 69.1022 7.28 69.2222 9.08H64.0022Z" fill="#D7D6D5"/>
<path d="M74.2037 15.4H76.6237V6.76H79.0037V4.94H76.6237V3.44C76.6237 2.54 77.0237 1.9 78.0037 1.9C78.4437 1.9 78.8237 1.98 79.1037 2.08V0.2C78.6637 0.0600004 78.3037 0 77.7237 0C75.4837 0 74.2037 1.24 74.2037 3.54V4.94H72.7837V6.76H74.2037V15.4Z" fill="#D7D6D5"/>
<path d="M85.2392 15.6C87.9192 15.6 89.6992 14.4 90.0392 12.2H87.6992C87.5192 13.22 86.7592 13.8 85.2992 13.8C83.4992 13.8 82.4992 12.68 82.4192 10.7H90.0792V10C90.0792 6.26 87.7392 4.72 85.1392 4.72C82.1592 4.72 79.9392 6.88 79.9392 10.12V10.28C79.9392 13.58 82.1592 15.6 85.2392 15.6ZM82.4592 9.08C82.6992 7.46 83.6792 6.48 85.1392 6.48C86.6392 6.48 87.5592 7.28 87.6792 9.08H82.4592Z" fill="#D7D6D5"/>
<path d="M92.2408 15.4H94.6608V9.96C94.6608 7.74 95.9408 7.06 98.0608 7.04V4.78C96.3008 4.8 95.3208 5.58 94.6608 6.9V4.94H92.2408V15.4Z" fill="#D7D6D5"/>
<path d="M100.19 15.4H102.61V9.96C102.61 7.74 103.89 7.06 106.01 7.04V4.78C104.25 4.8 103.27 5.58 102.61 6.9V4.94H100.19V15.4Z" fill="#D7D6D5"/>
<path d="M110.684 15.6C112.284 15.6 113.204 15.02 113.884 14.12V15.4H116.264V8.54C116.264 5.68 114.424 4.72 112.084 4.72C109.744 4.72 107.804 5.74 107.604 8.18H109.944C110.064 7.14 110.684 6.54 111.944 6.54C113.364 6.54 113.844 7.24 113.844 8.64V9.18H112.544C109.544 9.18 107.184 10.06 107.184 12.5C107.184 14.68 108.764 15.6 110.684 15.6ZM111.264 13.86C110.064 13.86 109.584 13.28 109.584 12.4C109.584 11.12 110.764 10.7 112.604 10.7H113.844V11.74C113.844 13.08 112.744 13.86 111.264 13.86Z" fill="#D7D6D5"/>
<path d="M119.098 15.4H121.518V0.0999999H119.098V15.4Z" fill="#D7D6D5"/>
<path d="M135.693 15.6C139.093 15.6 141.533 13.86 141.953 10.42H139.353C139.073 12.44 137.673 13.44 135.693 13.44C133.053 13.44 131.513 11.54 131.513 8.32V8.16C131.513 4.96 133.153 3 135.673 3C137.733 3 138.793 3.98 139.093 5.88H141.793C141.473 2.52 138.933 0.880001 135.653 0.880001C131.673 0.880001 128.713 3.88 128.713 8.18V8.34C128.713 12.74 131.213 15.6 135.693 15.6Z" fill="#D7D6D5"/>
<path d="M148.737 13.72C146.897 13.72 145.837 12.38 145.837 10.24V10.08C145.837 7.92 146.937 6.62 148.737 6.62C150.537 6.62 151.617 7.94 151.617 10.1V10.24C151.617 12.38 150.537 13.72 148.737 13.72ZM148.717 15.6C151.797 15.6 154.097 13.48 154.097 10.22V10.06C154.097 6.86 151.797 4.72 148.737 4.72C145.657 4.72 143.357 6.88 143.357 10.12V10.28C143.357 13.46 145.637 15.6 148.717 15.6Z" fill="#D7D6D5"/>
<path d="M160.204 15.6C161.744 15.6 163.084 14.68 163.644 13.64V15.4H166.064V0.0999999H163.644V6.54C163.064 5.5 162.004 4.72 160.304 4.72C157.584 4.72 155.604 6.84 155.604 10.18V10.34C155.604 13.74 157.584 15.6 160.204 15.6ZM160.804 13.68C159.244 13.68 158.084 12.58 158.084 10.28V10.12C158.084 7.86 159.124 6.62 160.904 6.62C162.664 6.62 163.724 7.76 163.724 10.06V10.22C163.724 12.56 162.484 13.68 160.804 13.68Z" fill="#D7D6D5"/>
<path d="M173.54 15.6C176.22 15.6 178 14.4 178.34 12.2H176C175.82 13.22 175.06 13.8 173.6 13.8C171.8 13.8 170.8 12.68 170.72 10.7H178.38V10C178.38 6.26 176.04 4.72 173.44 4.72C170.46 4.72 168.24 6.88 168.24 10.12V10.28C168.24 13.58 170.46 15.6 173.54 15.6ZM170.76 9.08C171 7.46 171.98 6.48 173.44 6.48C174.94 6.48 175.86 7.28 175.98 9.08H170.76Z" fill="#D7D6D5"/>
<path d="M184.219 15.6C186.899 15.6 188.399 14.38 188.399 12.26C188.399 10.04 186.939 9.44 184.479 9.06C182.819 8.78 182.319 8.48 182.319 7.72C182.319 6.98 182.939 6.48 183.979 6.48C185.099 6.48 185.639 6.92 185.839 7.88H188.079C187.819 5.52 186.119 4.72 183.979 4.72C182.019 4.72 180.059 5.76 180.059 7.86C180.059 9.82 181.079 10.6 183.839 11.04C185.379 11.3 186.079 11.62 186.079 12.48C186.079 13.36 185.499 13.82 184.199 13.82C182.779 13.82 182.239 13.2 182.119 12.14H179.839C179.939 14.36 181.519 15.6 184.219 15.6Z" fill="#D7D6D5"/>
<g clip-path="url(#clip0)">
<path d="M1.6189 82.3999C1.6189 80.1908 3.40976 78.3999 5.6189 78.3999H21.6189C23.828 78.3999 25.6189 80.1908 25.6189 82.3999V98.3999C25.6189 100.609 23.828 102.4 21.6189 102.4H5.6189C3.40976 102.4 1.6189 100.609 1.6189 98.3999V82.3999Z" fill="#272727"/>
<path d="M34.1589 96.3999H36.6589L37.7789 92.8599H43.2389L44.3789 96.3999H47.1389L42.4189 82.0999H38.9389L34.1589 96.3999ZM40.5189 84.2799L42.6189 90.9199H38.3989L40.5189 84.2799Z" fill="#797979"/>
<path d="M53.4085 96.5999C56.2485 96.5999 58.0685 94.8999 58.2485 92.4999H56.0285C55.8885 93.9799 54.7885 94.7399 53.5085 94.7399C51.7285 94.7399 50.6085 93.5399 50.6085 91.2599V91.0999C50.6085 88.9399 51.7885 87.6599 53.4485 87.6599C54.7285 87.6599 55.6485 88.2399 55.8485 89.6399H58.1885C57.9085 86.7599 55.7285 85.7199 53.4085 85.7199C50.4885 85.7199 48.1285 87.8199 48.1285 91.1399V91.2999C48.1285 94.6399 50.4085 96.5999 53.4085 96.5999Z" fill="#797979"/>
<path d="M63.8924 96.5799C64.6324 96.5799 65.1524 96.4599 65.5324 96.3199V94.3999C65.1924 94.5399 64.8324 94.5999 64.3524 94.5999C63.5924 94.5999 63.1524 94.1799 63.1524 93.2599V87.7599H65.4524V85.9399H63.1524V83.6399H60.7324V85.9399H59.3324V87.7599H60.7324V93.4799C60.7324 95.4599 61.8124 96.5799 63.8924 96.5799Z" fill="#797979"/>
<path d="M67.7752 96.3999H70.1952V85.9399H67.7752V96.3999ZM68.9552 84.2199C69.7552 84.2199 70.3952 83.6199 70.3952 82.8399C70.3952 82.0399 69.7552 81.4399 68.9552 81.4399C68.1552 81.4399 67.5152 82.0399 67.5152 82.8399C67.5152 83.6199 68.1552 84.2199 68.9552 84.2199Z" fill="#797979"/>
<path d="M75.8849 96.3999H78.7049L82.4849 85.9399H80.1049L77.4049 93.9199L74.6649 85.9399H72.0649L75.8849 96.3999Z" fill="#797979"/>
<path d="M88.4871 96.5999C91.1671 96.5999 92.9471 95.3999 93.2871 93.1999H90.9471C90.7671 94.2199 90.0071 94.7999 88.5471 94.7999C86.7471 94.7999 85.7471 93.6799 85.6671 91.6999H93.3271V90.9999C93.3271 87.2599 90.9871 85.7199 88.3871 85.7199C85.4071 85.7199 83.1871 87.8799 83.1871 91.1199V91.2799C83.1871 94.5799 85.4071 96.5999 88.4871 96.5999ZM85.7071 90.0799C85.9471 88.4599 86.9271 87.4799 88.3871 87.4799C89.8871 87.4799 90.8071 88.2799 90.9271 90.0799H85.7071Z" fill="#797979"/>
<path d="M107.014 94.4599C104.414 94.4599 102.514 92.4399 102.514 89.3199V89.1599C102.514 86.0799 104.174 84.0199 106.974 84.0199C109.774 84.0199 111.414 86.1999 111.414 89.1399V89.2999C111.414 92.3999 109.714 94.4599 107.014 94.4599ZM106.974 96.5999C111.314 96.5999 114.174 93.4599 114.174 89.2799V89.1199C114.174 84.9199 111.234 81.8999 106.974 81.8999C102.734 81.8999 99.7342 84.9999 99.7342 89.1799V89.3399C99.7342 93.4599 102.594 96.5999 106.974 96.5999Z" fill="#797979"/>
<path d="M116.543 96.3999H118.963V90.2399C118.963 88.5799 120.063 87.7399 121.423 87.7399C122.863 87.7399 123.503 88.4599 123.503 90.0399V96.3999H125.923V89.8199C125.923 86.9399 124.443 85.7199 122.343 85.7199C120.623 85.7199 119.463 86.5799 118.963 87.5999V85.9399H116.543V96.3999Z" fill="#797979"/>
<path d="M128.771 96.3999H131.191V81.0999H128.771V96.3999Z" fill="#797979"/>
<path d="M135.301 99.9799H137.681L143.381 85.9399H141.021L138.461 92.6799L135.681 85.9399H133.061L137.201 95.3399L135.301 99.9799Z" fill="#797979"/>
</g>
<g clip-path="url(#clip1)">
<path d="M157.306 82.3999C157.306 80.1908 159.097 78.3999 161.306 78.3999H177.306C179.516 78.3999 181.306 80.1908 181.306 82.3999V98.3999C181.306 100.609 179.516 102.4 177.306 102.4H161.306C159.097 102.4 157.306 100.609 157.306 98.3999V82.3999Z" fill="#272727"/>
<path d="M191.026 96.3999H193.706V82.0999H191.026V96.3999Z" fill="#797979"/>
<path d="M196.879 96.3999H199.299V90.2399C199.299 88.5799 200.399 87.7399 201.759 87.7399C203.199 87.7399 203.839 88.4599 203.839 90.0399V96.3999H206.259V89.8199C206.259 86.9399 204.779 85.7199 202.679 85.7199C200.959 85.7199 199.799 86.5799 199.299 87.5999V85.9399H196.879V96.3999Z" fill="#797979"/>
<path d="M211.787 96.5999C213.387 96.5999 214.307 96.0199 214.987 95.1199V96.3999H217.367V89.5399C217.367 86.6799 215.527 85.7199 213.187 85.7199C210.847 85.7199 208.907 86.7399 208.707 89.1799H211.047C211.167 88.1399 211.787 87.5399 213.047 87.5399C214.467 87.5399 214.947 88.2399 214.947 89.6399V90.1799H213.647C210.647 90.1799 208.287 91.0599 208.287 93.4999C208.287 95.6799 209.867 96.5999 211.787 96.5999ZM212.367 94.8599C211.167 94.8599 210.687 94.2799 210.687 93.3999C210.687 92.1199 211.867 91.6999 213.707 91.6999H214.947V92.7399C214.947 94.0799 213.847 94.8599 212.367 94.8599Z" fill="#797979"/>
<path d="M224.721 96.5999C227.561 96.5999 229.381 94.8999 229.561 92.4999H227.341C227.201 93.9799 226.101 94.7399 224.821 94.7399C223.041 94.7399 221.921 93.5399 221.921 91.2599V91.0999C221.921 88.9399 223.101 87.6599 224.761 87.6599C226.041 87.6599 226.961 88.2399 227.161 89.6399H229.501C229.221 86.7599 227.041 85.7199 224.721 85.7199C221.801 85.7199 219.441 87.8199 219.441 91.1399V91.2999C219.441 94.6399 221.721 96.5999 224.721 96.5999Z" fill="#797979"/>
<path d="M235.205 96.5799C235.945 96.5799 236.465 96.4599 236.845 96.3199V94.3999C236.505 94.5399 236.145 94.5999 235.665 94.5999C234.905 94.5999 234.465 94.1799 234.465 93.2599V87.7599H236.765V85.9399H234.465V83.6399H232.045V85.9399H230.645V87.7599H232.045V93.4799C232.045 95.4599 233.125 96.5799 235.205 96.5799Z" fill="#797979"/>
<path d="M239.088 96.3999H241.508V85.9399H239.088V96.3999ZM240.268 84.2199C241.068 84.2199 241.708 83.6199 241.708 82.8399C241.708 82.0399 241.068 81.4399 240.268 81.4399C239.468 81.4399 238.828 82.0399 238.828 82.8399C238.828 83.6199 239.468 84.2199 240.268 84.2199Z" fill="#797979"/>
<path d="M247.197 96.3999H250.017L253.797 85.9399H251.417L248.717 93.9199L245.977 85.9399H243.377L247.197 96.3999Z" fill="#797979"/>
<path d="M259.799 96.5999C262.479 96.5999 264.259 95.3999 264.599 93.1999H262.259C262.079 94.2199 261.319 94.7999 259.859 94.7999C258.059 94.7999 257.059 93.6799 256.979 91.6999H264.639V90.9999C264.639 87.2599 262.299 85.7199 259.699 85.7199C256.719 85.7199 254.499 87.8799 254.499 91.1199V91.2799C254.499 94.5799 256.719 96.5999 259.799 96.5999ZM257.019 90.0799C257.259 88.4599 258.239 87.4799 259.699 87.4799C261.199 87.4799 262.119 88.2799 262.239 90.0799H257.019Z" fill="#797979"/>
<path d="M278.327 94.4599C275.727 94.4599 273.827 92.4399 273.827 89.3199V89.1599C273.827 86.0799 275.487 84.0199 278.287 84.0199C281.087 84.0199 282.727 86.1999 282.727 89.1399V89.2999C282.727 92.3999 281.027 94.4599 278.327 94.4599ZM278.287 96.5999C282.627 96.5999 285.487 93.4599 285.487 89.2799V89.1199C285.487 84.9199 282.547 81.8999 278.287 81.8999C274.047 81.8999 271.047 84.9999 271.047 89.1799V89.3399C271.047 93.4599 273.907 96.5999 278.287 96.5999Z" fill="#797979"/>
<path d="M287.856 96.3999H290.276V90.2399C290.276 88.5799 291.376 87.7399 292.736 87.7399C294.176 87.7399 294.816 88.4599 294.816 90.0399V96.3999H297.236V89.8199C297.236 86.9399 295.756 85.7199 293.656 85.7199C291.936 85.7199 290.776 86.5799 290.276 87.5999V85.9399H287.856V96.3999Z" fill="#797979"/>
<path d="M300.084 96.3999H302.504V81.0999H300.084V96.3999Z" fill="#797979"/>
<path d="M306.613 99.9799H308.993L314.693 85.9399H312.333L309.773 92.6799L306.993 85.9399H304.373L308.513 95.3399L306.613 99.9799Z" fill="#797979"/>
</g>
<path d="M6.19991 58.56C8.72791 58.56 10.4079 57.008 10.4079 55.024C10.4079 52.736 9.01591 51.968 6.32791 51.6C4.34391 51.312 3.95991 50.848 3.95991 49.92C3.95991 49.04 4.63191 48.416 5.92791 48.416C7.23991 48.416 7.92791 48.928 8.13591 50.128H10.0879C9.86391 47.936 8.39191 46.816 5.92791 46.816C3.54391 46.816 1.94391 48.224 1.94391 50.096C1.94391 52.24 3.23991 53.072 5.97591 53.44C7.83191 53.744 8.35991 54.144 8.35991 55.2C8.35991 56.256 7.46391 56.96 6.19991 56.96C4.26391 56.96 3.79991 56 3.65591 54.848H1.60791C1.76791 57.008 3.07991 58.56 6.19991 58.56Z" fill="#797979"/>
<path d="M14.4682 58.4H16.5962V53.536H21.7322V58.4H23.8762V46.96H21.7322V51.824H16.5962V46.96H14.4682V58.4Z" fill="#797979"/>
<path d="M33.7318 56.848C31.6518 56.848 30.1318 55.232 30.1318 52.736V52.608C30.1318 50.144 31.4598 48.496 33.6998 48.496C35.9398 48.496 37.2518 50.24 37.2518 52.592V52.72C37.2518 55.2 35.8918 56.848 33.7318 56.848ZM33.6998 58.56C37.1718 58.56 39.4598 56.048 39.4598 52.704V52.576C39.4598 49.216 37.1078 46.8 33.6998 46.8C30.3078 46.8 27.9078 49.28 27.9078 52.624V52.752C27.9078 56.048 30.1958 58.56 33.6998 58.56Z" fill="#797979"/>
<path d="M45.0608 58.4H47.0928L49.4128 50.064L51.6688 58.4H53.7968L56.6608 46.96H54.6768L52.6288 55.408L50.3568 46.96H48.5968L46.3728 55.36L44.3888 46.96H42.2128L45.0608 58.4Z" fill="#797979"/>
<defs>
<clipPath id="clip0">
<rect width="141.762" height="24" fill="white" transform="translate(1.6189 78.3999)"/>
</clipPath>
<clipPath id="clip1">
<rect width="157.387" height="24" fill="white" transform="translate(157.306 78.3999)"/>
</clipPath>
</defs>
</svg>
