<svg width="1293" height="379" viewBox="0 0 1293 379" fill="none" xmlns="http://www.w3.org/2000/svg">
<path d="M0 72H1293V379H0V72Z" fill="#272727" fill-opacity="0.5"/>
<path fill-rule="evenodd" clip-rule="evenodd" d="M17 111H21V336.364L150.884 254.033L272.059 288.048L372.271 223.357L645.368 288.047L832.629 138.304L929.994 158.719L1039.07 125.114L1039.58 125.224L1039.16 127.179C1039.58 125.224 1039.58 125.224 1039.58 125.224L1039.58 125.225L1196.01 158.827L1195.17 162.738L1039.25 129.244L930.184 162.846L833.654 142.606L646.344 292.388L373.008 227.643L272.714 292.387L151.519 258.366L25.8908 338H1265V342H17V111Z" fill="#797979"/>
<path d="M1199 160.5C1199 163.538 1196.54 166 1193.5 166C1190.46 166 1188 163.538 1188 160.5C1188 157.462 1190.46 155 1193.5 155C1196.54 155 1199 157.462 1199 160.5Z" fill="#F6A821"/>
<path d="M1165.58 181.25H1167.63V174.1H1165.86L1164.22 175.25V176.96L1165.58 176.12V181.25Z" fill="#151515"/>
<path d="M1170.48 181.25H1176.23V179.72H1173.83L1174.83 178.75C1175.63 177.98 1176.18 177.24 1176.18 176.26C1176.18 174.94 1175.25 174 1173.5 174C1171.77 174 1170.69 174.91 1170.62 176.7H1172.48C1172.57 175.85 1172.89 175.54 1173.4 175.54C1173.91 175.54 1174.16 175.86 1174.16 176.34C1174.16 176.94 1173.69 177.55 1172.98 178.31L1170.48 180.96V181.25Z" fill="#151515"/>
<path d="M1186.34 181.37C1188.31 181.37 1189.53 180.4 1189.53 178.32V174.1H1187.46V178.23C1187.46 179.3 1187.19 179.76 1186.34 179.76C1185.47 179.76 1185.22 179.27 1185.22 178.26V174.1H1183.17V178.35C1183.17 180.35 1184.32 181.37 1186.34 181.37Z" fill="#151515"/>
<path d="M1195.43 181.37C1197.27 181.37 1198.31 180.3 1198.31 178.99C1198.31 177.44 1197.38 176.97 1195.57 176.77C1194.68 176.65 1194.46 176.47 1194.46 176.07C1194.46 175.71 1194.74 175.46 1195.29 175.46C1195.85 175.46 1196.14 175.72 1196.21 176.23H1198.11C1197.98 174.72 1197.01 174 1195.29 174C1193.58 174 1192.52 174.94 1192.52 176.23C1192.52 177.67 1193.2 178.27 1195.22 178.51C1196.08 178.64 1196.35 178.76 1196.35 179.2C1196.35 179.62 1196.02 179.91 1195.43 179.91C1194.58 179.91 1194.35 179.49 1194.3 178.98H1192.35C1192.41 180.53 1193.43 181.37 1195.43 181.37Z" fill="#151515"/>
<path d="M1201.28 181.25H1206.38V179.67H1203.32V178.37H1205.63V176.91H1203.32V175.68H1206.22V174.1H1201.28V181.25Z" fill="#151515"/>
<path d="M1209.4 181.25H1211.44V178.69H1211.92L1213.37 181.25H1215.53L1213.82 178.29C1214.57 178 1215.11 177.43 1215.11 176.41V176.37C1215.11 174.86 1214.07 174.1 1212.2 174.1H1209.4V181.25ZM1211.44 177.36V175.64H1212.11C1212.77 175.64 1213.13 175.87 1213.13 176.45V176.49C1213.13 177.07 1212.79 177.36 1212.1 177.36H1211.44Z" fill="#151515"/>
<path d="M1220.9 181.37C1222.74 181.37 1223.78 180.3 1223.78 178.99C1223.78 177.44 1222.85 176.97 1221.04 176.77C1220.15 176.65 1219.93 176.47 1219.93 176.07C1219.93 175.71 1220.21 175.46 1220.76 175.46C1221.32 175.46 1221.61 175.72 1221.68 176.23H1223.58C1223.45 174.72 1222.48 174 1220.76 174C1219.05 174 1217.99 174.94 1217.99 176.23C1217.99 177.67 1218.67 178.27 1220.69 178.51C1221.55 178.64 1221.82 178.76 1221.82 179.2C1221.82 179.62 1221.49 179.91 1220.9 179.91C1220.05 179.91 1219.82 179.49 1219.77 178.98H1217.82C1217.88 180.53 1218.9 181.37 1220.9 181.37Z" fill="#151515"/>
<rect width="1293" height="72" fill="#383838"/>
<path d="M0 71H1293V72H0V71Z" fill="#383838"/>
<path d="M23.18 42.2C24.78 42.2 25.7 41.62 26.38 40.72V42H28.76V35.14C28.76 32.28 26.92 31.32 24.58 31.32C22.24 31.32 20.3 32.34 20.1 34.78H22.44C22.56 33.74 23.18 33.14 24.44 33.14C25.86 33.14 26.34 33.84 26.34 35.24V35.78H25.04C22.04 35.78 19.68 36.66 19.68 39.1C19.68 41.28 21.26 42.2 23.18 42.2ZM23.76 40.46C22.56 40.46 22.08 39.88 22.08 39C22.08 37.72 23.26 37.3 25.1 37.3H26.34V38.34C26.34 39.68 25.24 40.46 23.76 40.46Z" fill="#D7D6D5"/>
<path d="M31.5338 42H33.9537V36.56C33.9537 34.34 35.2338 33.66 37.3538 33.64V31.38C35.5938 31.4 34.6137 32.18 33.9537 33.5V31.54H31.5338V42Z" fill="#D7D6D5"/>
<path d="M43.1406 42.18C43.8806 42.18 44.4006 42.06 44.7806 41.92V40C44.4406 40.14 44.0806 40.2 43.6006 40.2C42.8406 40.2 42.4006 39.78 42.4006 38.86V33.36H44.7006V31.54H42.4006V29.24H39.9806V31.54H38.5806V33.36H39.9806V39.08C39.9806 41.06 41.0606 42.18 43.1406 42.18Z" fill="#D7D6D5"/>
<path d="M50.4634 42.2C52.1634 42.2 53.2634 41.38 53.7834 40.36V42H56.2034V31.54H53.7834V37.76C53.7834 39.42 52.6434 40.26 51.3434 40.26C49.9434 40.26 49.2834 39.54 49.2834 37.96V31.54H46.8634V38.24C46.8634 41.02 48.4034 42.2 50.4634 42.2Z" fill="#D7D6D5"/>
<path d="M59.0728 42H61.4928V36.56C61.4928 34.34 62.7728 33.66 64.8928 33.64V31.38C63.1328 31.4 62.1528 32.18 61.4928 33.5V31.54H59.0728V42Z" fill="#D7D6D5"/>
<path d="M71.5067 40.32C69.6667 40.32 68.6067 38.98 68.6067 36.84V36.68C68.6067 34.52 69.7067 33.22 71.5067 33.22C73.3067 33.22 74.3867 34.54 74.3867 36.7V36.84C74.3867 38.98 73.3067 40.32 71.5067 40.32ZM71.4867 42.2C74.5667 42.2 76.8667 40.08 76.8667 36.82V36.66C76.8667 33.46 74.5667 31.32 71.5067 31.32C68.4267 31.32 66.1267 33.48 66.1267 36.72V36.88C66.1267 40.06 68.4067 42.2 71.4867 42.2Z" fill="#D7D6D5"/>
<path d="M81.4027 42H84.2227L88.0027 31.54H85.6227L82.9227 39.52L80.1827 31.54H77.5827L81.4027 42Z" fill="#D7D6D5"/>
<path d="M89.8555 42H92.2755V31.54H89.8555V42ZM91.0355 29.82C91.8355 29.82 92.4755 29.22 92.4755 28.44C92.4755 27.64 91.8355 27.04 91.0355 27.04C90.2355 27.04 89.5955 27.64 89.5955 28.44C89.5955 29.22 90.2355 29.82 91.0355 29.82Z" fill="#D7D6D5"/>
<path d="M99.1452 42.2C100.685 42.2 102.025 41.28 102.585 40.24V42H105.005V26.7H102.585V33.14C102.005 32.1 100.945 31.32 99.2452 31.32C96.5252 31.32 94.5452 33.44 94.5452 36.78V36.94C94.5452 40.34 96.5252 42.2 99.1452 42.2ZM99.7452 40.28C98.1852 40.28 97.0252 39.18 97.0252 36.88V36.72C97.0252 34.46 98.0652 33.22 99.8452 33.22C101.605 33.22 102.665 34.36 102.665 36.66V36.82C102.665 39.16 101.425 40.28 99.7452 40.28Z" fill="#D7D6D5"/>
<path d="M110.621 42.2C112.221 42.2 113.141 41.62 113.821 40.72V42H116.201V35.14C116.201 32.28 114.361 31.32 112.021 31.32C109.681 31.32 107.741 32.34 107.541 34.78H109.881C110.001 33.74 110.621 33.14 111.881 33.14C113.301 33.14 113.781 33.84 113.781 35.24V35.78H112.481C109.481 35.78 107.121 36.66 107.121 39.1C107.121 41.28 108.701 42.2 110.621 42.2ZM111.201 40.46C110.001 40.46 109.521 39.88 109.521 39C109.521 37.72 110.701 37.3 112.541 37.3H113.781V38.34C113.781 39.68 112.681 40.46 111.201 40.46Z" fill="#D7D6D5"/>
<path d="M119.035 42H121.455V26.7H119.035V42Z" fill="#D7D6D5"/>
<path d="M214.66 42H217.34V27.7H214.96L211.64 30.06V32.4L214.66 30.34V42Z" fill="#797979"/>
<path d="M226.459 40.08C224.319 40.08 223.079 38.44 223.079 35.2V34.48C223.079 31.3 224.259 29.58 226.419 29.58C228.559 29.58 229.719 31.42 229.719 34.46V35.16C229.719 38.4 228.659 40.08 226.459 40.08ZM226.399 42.2C230.139 42.2 232.379 39.46 232.379 35.16V34.44C232.379 30.14 230.019 27.5 226.399 27.5C222.799 27.5 220.399 30.16 220.399 34.5V35.22C220.399 39.52 222.759 42.2 226.399 42.2Z" fill="#797979"/>
<path d="M241.462 42.2C245.502 42.2 247.982 39.8 247.982 35.84V34.52H241.762V36.52H245.362C245.282 38.5 244.182 40.12 241.502 40.12C238.502 40.12 237.082 38.02 237.082 34.96V34.8C237.082 31.66 238.702 29.58 241.502 29.58C243.362 29.58 244.642 30.4 244.962 32.3H247.622C247.242 28.88 244.522 27.48 241.462 27.48C237.282 27.48 234.322 30.52 234.322 34.78V34.94C234.322 39.16 236.882 42.2 241.462 42.2Z" fill="#797979"/>
<path d="M256.97 42.2C261.01 42.2 263.49 39.8 263.49 35.84V34.52H257.27V36.52H260.87C260.79 38.5 259.69 40.12 257.01 40.12C254.01 40.12 252.59 38.02 252.59 34.96V34.8C252.59 31.66 254.21 29.58 257.01 29.58C258.87 29.58 260.15 30.4 260.47 32.3H263.13C262.75 28.88 260.03 27.48 256.97 27.48C252.79 27.48 249.83 30.52 249.83 34.78V34.94C249.83 39.16 252.39 42.2 256.97 42.2Z" fill="#797979"/>
<path d="M273.444 44.96H275.564C273.944 42.8 272.524 39.9 272.524 35.74C272.524 31.6 273.944 28.68 275.564 26.52H273.444C271.724 28.56 270.124 31.58 270.124 35.74C270.124 39.92 271.724 42.92 273.444 44.96Z" fill="#797979"/>
<path d="M281.898 42.2C284.978 42.2 287.158 40.3 287.158 37.28C287.158 34.28 285.338 32.48 282.758 32.48C281.238 32.48 280.238 33.04 279.678 33.68L279.698 29.8H286.338V27.7H277.658L277.538 35.66H278.898C279.538 34.92 280.418 34.42 281.878 34.42C283.458 34.42 284.458 35.52 284.458 37.24C284.458 39 283.518 40.14 281.878 40.14C280.038 40.14 279.498 39.22 279.278 37.9H276.798C276.958 40.36 278.538 42.2 281.898 42.2Z" fill="#797979"/>
<path d="M291.643 32.88C290.703 32.88 290.103 32.24 290.103 31.02C290.103 29.82 290.703 29.16 291.643 29.16C292.583 29.16 293.163 29.86 293.163 31.02C293.163 32.2 292.583 32.88 291.643 32.88ZM291.623 34.5C293.583 34.5 295.103 33.02 295.103 31C295.103 29 293.563 27.56 291.643 27.56C289.723 27.56 288.143 29.04 288.143 31.04C288.143 33.02 289.663 34.5 291.623 34.5ZM290.103 42H291.803L301.003 27.7H299.323L290.103 42ZM299.483 40.58C298.543 40.58 297.943 39.94 297.943 38.72C297.943 37.52 298.543 36.86 299.483 36.86C300.423 36.86 301.003 37.56 301.003 38.72C301.003 39.9 300.423 40.58 299.483 40.58ZM299.463 42.2C301.423 42.2 302.963 40.72 302.963 38.7C302.963 36.7 301.403 35.26 299.483 35.26C297.563 35.26 296.003 36.74 296.003 38.74C296.003 40.72 297.503 42.2 299.463 42.2Z" fill="#797979"/>
<path d="M303.899 44.92H305.999C307.719 42.88 309.319 39.86 309.319 35.7C309.319 31.52 307.719 28.52 305.999 26.48H303.899C305.499 28.64 306.919 31.54 306.919 35.7C306.919 39.84 305.499 42.76 303.899 44.92Z" fill="#797979"/>
<path d="M386.66 42H389.34V27.7H386.96L383.64 30.06V32.4L386.66 30.34V42Z" fill="#D7D6D5"/>
<path d="M391.679 42H402.019V39.94H395.939L399.119 36.84C400.819 35.2 401.919 33.58 401.919 31.72C401.919 29.2 400.159 27.5 397.199 27.5C394.179 27.5 392.299 29.3 392.119 32.42H394.559C394.799 30.4 395.699 29.58 397.119 29.58C398.499 29.58 399.259 30.42 399.259 31.76C399.259 33.12 398.439 34.38 397.079 35.82L391.679 41.52V42Z" fill="#D7D6D5"/>
<path d="M568.04 42.18C571.72 42.18 573.8 39.56 573.8 34.86V34.12C573.8 30 571.96 27.48 568.22 27.48C564.96 27.48 562.92 29.46 562.92 32.38C562.92 35.2 564.9 37.02 567.66 37.02C569.36 37.02 570.52 36.3 571.18 35.22C571.14 38.48 570.04 40.12 568 40.12C566.46 40.12 565.8 39.4 565.54 38.28H563.04C563.38 40.74 565.12 42.18 568.04 42.18ZM568.22 35.16C566.58 35.16 565.54 34.02 565.54 32.3C565.54 30.6 566.6 29.46 568.2 29.46C569.84 29.46 570.98 30.58 570.98 32.5C570.98 34.08 569.84 35.16 568.22 35.16Z" fill="#797979"/>
<path d="M573.911 44.96H575.951L581.991 26.48H579.931L573.911 44.96Z" fill="#797979"/>
<path d="M582.027 42H592.367V39.94H586.287L589.467 36.84C591.167 35.2 592.267 33.58 592.267 31.72C592.267 29.2 590.507 27.5 587.547 27.5C584.527 27.5 582.647 29.3 582.467 32.42H584.907C585.147 30.4 586.047 29.58 587.467 29.58C588.847 29.58 589.607 30.42 589.607 31.76C589.607 33.12 588.787 34.38 587.427 35.82L582.027 41.52V42Z" fill="#797979"/>
<path d="M593.364 44.96H595.404L601.444 26.48H599.384L593.364 44.96Z" fill="#797979"/>
<path d="M601.48 42H611.82V39.94H605.74L608.92 36.84C610.62 35.2 611.72 33.58 611.72 31.72C611.72 29.2 609.96 27.5 607 27.5C603.98 27.5 602.1 29.3 601.92 32.42H604.36C604.6 30.4 605.5 29.58 606.92 29.58C608.3 29.58 609.06 30.42 609.06 31.76C609.06 33.12 608.24 34.38 606.88 35.82L601.48 41.52V42Z" fill="#797979"/>
<path d="M619.725 40.08C617.585 40.08 616.345 38.44 616.345 35.2V34.48C616.345 31.3 617.525 29.58 619.685 29.58C621.825 29.58 622.985 31.42 622.985 34.46V35.16C622.985 38.4 621.925 40.08 619.725 40.08ZM619.665 42.2C623.405 42.2 625.645 39.46 625.645 35.16V34.44C625.645 30.14 623.285 27.5 619.665 27.5C616.065 27.5 613.665 30.16 613.665 34.5V35.22C613.665 39.52 616.025 42.2 619.665 42.2Z" fill="#797979"/>
<path d="M635.614 42.2C637.214 42.2 638.134 41.62 638.814 40.72V42H641.194V35.14C641.194 32.28 639.354 31.32 637.014 31.32C634.674 31.32 632.734 32.34 632.534 34.78H634.874C634.994 33.74 635.614 33.14 636.874 33.14C638.294 33.14 638.774 33.84 638.774 35.24V35.78H637.474C634.474 35.78 632.114 36.66 632.114 39.1C632.114 41.28 633.694 42.2 635.614 42.2ZM636.194 40.46C634.994 40.46 634.514 39.88 634.514 39C634.514 37.72 635.694 37.3 637.534 37.3H638.774V38.34C638.774 39.68 637.674 40.46 636.194 40.46Z" fill="#797979"/>
<path d="M647.527 42.18C648.267 42.18 648.787 42.06 649.167 41.92V40C648.827 40.14 648.467 40.2 647.987 40.2C647.227 40.2 646.787 39.78 646.787 38.86V33.36H649.087V31.54H646.787V29.24H644.367V31.54H642.967V33.36H644.367V39.08C644.367 41.06 645.447 42.18 647.527 42.18Z" fill="#797979"/>
<path d="M658.336 42H661.016V27.7H658.636L655.316 30.06V32.4L658.336 30.34V42Z" fill="#797979"/>
<path d="M666.617 42H669.297V27.7H666.917L663.597 30.06V32.4L666.617 30.34V42Z" fill="#797979"/>
<path d="M674.296 42.14C675.196 42.14 675.896 41.46 675.896 40.58C675.896 39.7 675.196 39 674.296 39C673.416 39 672.716 39.7 672.716 40.58C672.716 41.46 673.416 42.14 674.296 42.14ZM674.296 36.3C675.196 36.3 675.896 35.6 675.896 34.72C675.896 33.84 675.196 33.16 674.296 33.16C673.416 33.16 672.716 33.84 672.716 34.72C672.716 35.6 673.416 36.3 674.296 36.3Z" fill="#797979"/>
<path d="M683.093 42.2C686.173 42.2 688.353 40.3 688.353 37.28C688.353 34.28 686.533 32.48 683.953 32.48C682.433 32.48 681.433 33.04 680.873 33.68L680.893 29.8H687.533V27.7H678.853L678.733 35.66H680.093C680.733 34.92 681.613 34.42 683.073 34.42C684.653 34.42 685.653 35.52 685.653 37.24C685.653 39 684.713 40.14 683.073 40.14C681.233 40.14 680.693 39.22 680.473 37.9H677.993C678.153 40.36 679.733 42.2 683.093 42.2Z" fill="#797979"/>
<path d="M695.424 42.2C698.704 42.2 700.784 40.56 700.784 37.92C700.784 36.02 699.684 34.84 698.024 34.46C699.404 33.94 700.344 32.96 700.344 31.34C700.344 29.22 698.604 27.5 695.624 27.5C692.564 27.5 690.704 29.4 690.564 31.88H692.924C693.084 30.44 694.064 29.52 695.584 29.52C697.064 29.52 697.804 30.38 697.804 31.54C697.804 32.88 697.064 33.64 695.424 33.64H694.404V35.54H695.504C697.244 35.54 698.084 36.32 698.084 37.88C698.084 39.3 697.224 40.2 695.364 40.2C693.444 40.2 692.604 39.08 692.464 37.58H690.044C690.164 40.32 692.024 42.2 695.424 42.2Z" fill="#797979"/>
<path d="M707.11 42H709.61L710.73 38.46H716.19L717.33 42H720.09L715.37 27.7H711.89L707.11 42ZM713.47 29.88L715.57 36.52H711.35L713.47 29.88Z" fill="#797979"/>
<path d="M722.273 42H724.673V31.2L729.013 42H729.873L734.133 31.2V42H736.793V27.7H733.273L729.593 37.46L725.833 27.7H722.273V42Z" fill="#797979"/>
<path d="M927.54 42H930.04L931.16 38.46H936.62L937.76 42H940.52L935.8 27.7H932.32L927.54 42ZM933.9 29.88L936 36.52H931.78L933.9 29.88Z" fill="#797979"/>
<path d="M946.79 42.2C949.63 42.2 951.45 40.5 951.63 38.1H949.41C949.27 39.58 948.17 40.34 946.89 40.34C945.11 40.34 943.99 39.14 943.99 36.86V36.7C943.99 34.54 945.17 33.26 946.83 33.26C948.11 33.26 949.03 33.84 949.23 35.24H951.57C951.29 32.36 949.11 31.32 946.79 31.32C943.87 31.32 941.51 33.42 941.51 36.74V36.9C941.51 40.24 943.79 42.2 946.79 42.2Z" fill="#797979"/>
<path d="M957.273 42.18C958.013 42.18 958.533 42.06 958.913 41.92V40C958.573 40.14 958.213 40.2 957.733 40.2C956.973 40.2 956.533 39.78 956.533 38.86V33.36H958.833V31.54H956.533V29.24H954.113V31.54H952.713V33.36H954.113V39.08C954.113 41.06 955.193 42.18 957.273 42.18Z" fill="#797979"/>
<path d="M961.156 42H963.576V31.54H961.156V42ZM962.336 29.82C963.136 29.82 963.776 29.22 963.776 28.44C963.776 27.64 963.136 27.04 962.336 27.04C961.536 27.04 960.896 27.64 960.896 28.44C960.896 29.22 961.536 29.82 962.336 29.82Z" fill="#797979"/>
<path d="M969.266 42H972.086L975.866 31.54H973.486L970.786 39.52L968.046 31.54H965.446L969.266 42Z" fill="#797979"/>
<path d="M981.868 42.2C984.548 42.2 986.328 41 986.668 38.8H984.328C984.148 39.82 983.388 40.4 981.928 40.4C980.128 40.4 979.128 39.28 979.048 37.3H986.708V36.6C986.708 32.86 984.368 31.32 981.768 31.32C978.788 31.32 976.568 33.48 976.568 36.72V36.88C976.568 40.18 978.788 42.2 981.868 42.2ZM979.088 35.68C979.328 34.06 980.308 33.08 981.768 33.08C983.268 33.08 984.188 33.88 984.308 35.68H979.088Z" fill="#797979"/>
<rect x="1151.05" y="22.3621" width="91.8925" height="26.276" rx="4" fill="#797979"/>
<path d="M1164.92 39.0281V31.9581H1165.99C1168.35 31.9581 1169.33 33.2601 1169.33 35.4161V35.5281C1169.33 37.7401 1168.25 39.0281 1166.01 39.0281H1164.92ZM1163.05 40.4981H1166.06C1169.58 40.4981 1171.27 38.4261 1171.27 35.5141V35.3881C1171.27 32.4761 1169.58 30.4881 1166.09 30.4881H1163.05V40.4981Z" fill="#383838"/>
<path d="M1175.1 40.4981H1176.98V30.4881H1175.1V40.4981Z" fill="#383838"/>
<path d="M1184.74 40.6381C1186.95 40.6381 1188.42 39.2801 1188.42 37.5441C1188.42 35.5421 1187.21 34.8701 1184.85 34.5481C1183.12 34.2961 1182.78 33.8901 1182.78 33.0781C1182.78 32.3081 1183.37 31.7621 1184.5 31.7621C1185.65 31.7621 1186.25 32.2101 1186.44 33.2601H1188.14C1187.95 31.3421 1186.66 30.3621 1184.5 30.3621C1182.42 30.3621 1181.02 31.5941 1181.02 33.2321C1181.02 35.1081 1182.15 35.8361 1184.55 36.1581C1186.17 36.4241 1186.63 36.7741 1186.63 37.6981C1186.63 38.6221 1185.85 39.2381 1184.74 39.2381C1183.05 39.2381 1182.64 38.3981 1182.52 37.3901H1180.72C1180.86 39.2801 1182.01 40.6381 1184.74 40.6381Z" fill="#383838"/>
<path d="M1191.1 40.4981H1192.85L1193.64 38.0201H1197.46L1198.26 40.4981H1200.19L1196.88 30.4881H1194.45L1191.1 40.4981ZM1195.55 32.0141L1197.02 36.6621H1194.07L1195.55 32.0141Z" fill="#383838"/>
<path d="M1203.72 40.4981H1207.57C1209.76 40.4981 1211 39.5601 1211 37.6981V37.6421C1211 36.3121 1210.35 35.5701 1208.99 35.2761C1210.13 34.9261 1210.58 34.1421 1210.58 33.1481V33.0921C1210.58 31.2721 1209.36 30.4881 1207.3 30.4881H1203.72V40.4981ZM1205.54 39.1681V35.9621H1207.22C1208.59 35.9621 1209.16 36.4801 1209.16 37.5161V37.5721C1209.16 38.6081 1208.59 39.1681 1207.34 39.1681H1205.54ZM1205.54 34.7021V31.8181H1207.05C1208.24 31.8181 1208.78 32.2241 1208.78 33.1761V33.2321C1208.78 34.2541 1208.31 34.7021 1207.08 34.7021H1205.54Z" fill="#383838"/>
<path d="M1214.74 40.4981H1220.87V39.0141H1216.6V30.4881H1214.74V40.4981Z" fill="#383838"/>
<path d="M1224.45 40.4981H1230.95V39.0281H1226.31V36.1021H1229.84V34.7021H1226.31V31.9581H1230.71V30.4881H1224.45V40.4981Z" fill="#383838"/>
<path d="M1266 33.5L1271 38.5L1276 33.5L1266 33.5Z" fill="#F6A821"/>
<path d="M0 0H1293V1H0V0Z" fill="#383838"/>
</svg>
