<svg width="445" height="40" viewBox="0 0 445 40" fill="none" xmlns="http://www.w3.org/2000/svg">
<path d="M0.77 9H2.38V6.24H3.08L4.79 9H6.51L4.62 5.96C5.46 5.71 6.09 5.14 6.09 4.06V4.02C6.09 2.54 5.02 1.85 3.33 1.85H0.77V9ZM2.38 5.14V3.09H3.29C4.07 3.09 4.51 3.34 4.51 4.07V4.11C4.51 4.8 4.1 5.14 3.29 5.14H2.38ZM11.4211 7.82C10.2511 7.82 9.41109 6.92 9.41109 5.46V5.38C9.41109 3.94 10.1611 3.03 11.4011 3.03C12.6511 3.03 13.3911 3.98 13.3911 5.37V5.45C13.3911 6.89 12.6311 7.82 11.4211 7.82ZM11.3911 9.11C13.6211 9.11 15.0811 7.56 15.0811 5.43V5.35C15.0811 3.2 13.5511 1.75 11.4011 1.75C9.28109 1.75 7.72109 3.26 7.72109 5.39V5.47C7.72109 7.56 9.15109 9.11 11.3911 9.11ZM19.8452 9.11C21.7752 9.11 22.8652 8.1 22.8652 6.15V1.85H21.2352V6.05C21.2352 7.36 20.8152 7.82 19.8552 7.82C18.8752 7.82 18.5252 7.3 18.5252 6.11V1.85H16.8952V6.21C16.8952 8.11 17.9652 9.11 19.8452 9.11ZM25.0477 9H26.4877V3.91L29.4677 9H31.0877V1.85H29.6477V6.56L26.9277 1.85H25.0477V9ZM34.9459 7.74V3.11H35.5859C37.0959 3.11 37.7259 3.9 37.7259 5.37V5.45C37.7259 6.93 37.0459 7.74 35.6059 7.74H34.9459ZM33.3259 9H35.6559C38.1659 9 39.4159 7.57 39.4159 5.43V5.35C39.4159 3.21 38.1759 1.85 35.6659 1.85H33.3259V9ZM44.1985 9H45.8085V6.24H46.5085L48.2185 9H49.9385L48.0485 5.96C48.8885 5.71 49.5185 5.14 49.5185 4.06V4.02C49.5185 2.54 48.4485 1.85 46.7585 1.85H44.1985V9ZM45.8085 5.14V3.09H46.7185C47.4985 3.09 47.9385 3.34 47.9385 4.07V4.11C47.9385 4.8 47.5285 5.14 46.7185 5.14H45.8085ZM54.8496 7.82C53.6796 7.82 52.8396 6.92 52.8396 5.46V5.38C52.8396 3.94 53.5896 3.03 54.8296 3.03C56.0796 3.03 56.8196 3.98 56.8196 5.37V5.45C56.8196 6.89 56.0596 7.82 54.8496 7.82ZM54.8196 9.11C57.0496 9.11 58.5096 7.56 58.5096 5.43V5.35C58.5096 3.2 56.9796 1.75 54.8296 1.75C52.7096 1.75 51.1496 3.26 51.1496 5.39V5.47C51.1496 7.56 52.5796 9.11 54.8196 9.11ZM60.3837 9H63.3237C64.9737 9 65.8337 8.31 65.8337 7V6.96C65.8337 6 65.3337 5.47 64.4037 5.28C65.2037 5.05 65.5637 4.5 65.5637 3.75V3.71C65.5637 2.49 64.7537 1.85 63.1937 1.85H60.3837V9ZM61.9637 7.88V5.83H62.9937C63.8737 5.83 64.2337 6.17 64.2337 6.83V6.87C64.2337 7.52 63.8737 7.88 63.0737 7.88H61.9637ZM61.9637 4.79V2.96H62.9237C63.6837 2.96 64.0237 3.23 64.0237 3.83V3.87C64.0237 4.51 63.7137 4.79 62.9337 4.79H61.9637ZM67.7155 9H69.3455V1.85H67.7155V9ZM71.6274 9H73.0674V3.91L76.0474 9H77.6674V1.85H76.2274V6.56L73.5074 1.85H71.6274V9Z" fill="#797979"/>
<path d="M1.64 35H10.92V32.9H4.3V28.72H9.34V26.72H4.3V22.8H10.58V20.7H1.64V35ZM18.1797 35.2C21.3397 35.2 23.4397 33.26 23.4397 30.78C23.4397 27.92 21.6997 26.96 18.3397 26.5C15.8597 26.14 15.3797 25.56 15.3797 24.4C15.3797 23.3 16.2197 22.52 17.8397 22.52C19.4797 22.52 20.3397 23.16 20.5997 24.66H23.0397C22.7597 21.92 20.9197 20.52 17.8397 20.52C14.8597 20.52 12.8597 22.28 12.8597 24.62C12.8597 27.3 14.4797 28.34 17.8997 28.8C20.2197 29.18 20.8797 29.68 20.8797 31C20.8797 32.32 19.7597 33.2 18.1797 33.2C15.7597 33.2 15.1797 32 14.9997 30.56H12.4397C12.6397 33.26 14.2797 35.2 18.1797 35.2ZM26.015 35H35.295V32.9H28.675V28.72H33.715V26.72H28.675V22.8H34.955V20.7H26.015V35ZM36.5947 35H39.0947L40.2147 31.46H45.6747L46.8147 35H49.5747L44.8547 20.7H41.3747L36.5947 35ZM42.9547 22.88L45.0547 29.52H40.8347L42.9547 22.88ZM56.5228 35H59.1828V29.56H61.1828C64.2428 29.56 66.4228 28.22 66.4228 25.2V25.12C66.4228 22.12 64.3228 20.7 61.1228 20.7H56.5228V35ZM59.1828 27.64V22.76H61.1228C62.8228 22.76 63.8228 23.42 63.8228 25.12V25.2C63.8228 26.78 62.8828 27.64 61.1228 27.64H59.1828ZM68.5103 35H70.9303V29.56C70.9303 27.34 72.2103 26.66 74.3303 26.64V24.38C72.5703 24.4 71.5903 25.18 70.9303 26.5V24.54H68.5103V35ZM80.8642 35.2C83.5442 35.2 85.3242 34 85.6642 31.8H83.3242C83.1442 32.82 82.3842 33.4 80.9242 33.4C79.1242 33.4 78.1242 32.28 78.0442 30.3H85.7042V29.6C85.7042 25.86 83.3642 24.32 80.7642 24.32C77.7842 24.32 75.5642 26.48 75.5642 29.72V29.88C75.5642 33.18 77.7842 35.2 80.8642 35.2ZM78.0842 28.68C78.3242 27.06 79.3042 26.08 80.7642 26.08C82.2642 26.08 83.1842 26.88 83.3042 28.68H78.0842ZM87.8658 35H90.2858V28.74C90.2858 27.14 91.3858 26.34 92.5858 26.34C93.7658 26.34 94.4458 27 94.4458 28.54V35H96.8658V28.74C96.8658 27.14 97.9658 26.34 99.1658 26.34C100.366 26.34 101.026 27 101.026 28.54V35H103.446V28.38C103.446 25.5 101.886 24.32 99.9658 24.32C98.6658 24.32 97.2258 24.9 96.4258 26.2C95.9058 24.9 94.8258 24.32 93.4658 24.32C91.9258 24.32 90.7858 25.16 90.2858 26.14V24.54H87.8658V35ZM106.285 35H108.705V24.54H106.285V35ZM107.465 22.82C108.265 22.82 108.905 22.22 108.905 21.44C108.905 20.64 108.265 20.04 107.465 20.04C106.665 20.04 106.025 20.64 106.025 21.44C106.025 22.22 106.665 22.82 107.465 22.82ZM116.255 35.2C118.935 35.2 120.715 34 121.055 31.8H118.715C118.535 32.82 117.775 33.4 116.315 33.4C114.515 33.4 113.515 32.28 113.435 30.3H121.095V29.6C121.095 25.86 118.755 24.32 116.155 24.32C113.175 24.32 110.955 26.48 110.955 29.72V29.88C110.955 33.18 113.175 35.2 116.255 35.2ZM113.475 28.68C113.715 27.06 114.695 26.08 116.155 26.08C117.655 26.08 118.575 26.88 118.695 28.68H113.475ZM123.256 35H125.676V29.56C125.676 27.34 126.956 26.66 129.076 26.64V24.38C127.316 24.4 126.336 25.18 125.676 26.5V24.54H123.256V35ZM141.031 35.2C144.191 35.2 146.291 33.26 146.291 30.78C146.291 27.92 144.551 26.96 141.191 26.5C138.711 26.14 138.231 25.56 138.231 24.4C138.231 23.3 139.071 22.52 140.691 22.52C142.331 22.52 143.191 23.16 143.451 24.66H145.891C145.611 21.92 143.771 20.52 140.691 20.52C137.711 20.52 135.711 22.28 135.711 24.62C135.711 27.3 137.331 28.34 140.751 28.8C143.071 29.18 143.731 29.68 143.731 31C143.731 32.32 142.611 33.2 141.031 33.2C138.611 33.2 138.031 32 137.851 30.56H135.291C135.491 33.26 137.131 35.2 141.031 35.2ZM153.267 35.2C155.947 35.2 157.727 34 158.067 31.8H155.727C155.547 32.82 154.787 33.4 153.327 33.4C151.527 33.4 150.527 32.28 150.447 30.3H158.107V29.6C158.107 25.86 155.767 24.32 153.167 24.32C150.187 24.32 147.967 26.48 147.967 29.72V29.88C147.967 33.18 150.187 35.2 153.267 35.2ZM150.487 28.68C150.727 27.06 151.707 26.08 153.167 26.08C154.667 26.08 155.587 26.88 155.707 28.68H150.487ZM163.106 35.2C164.706 35.2 165.626 34.62 166.306 33.72V35H168.686V28.14C168.686 25.28 166.846 24.32 164.506 24.32C162.166 24.32 160.226 25.34 160.026 27.78H162.366C162.486 26.74 163.106 26.14 164.366 26.14C165.786 26.14 166.266 26.84 166.266 28.24V28.78H164.966C161.966 28.78 159.606 29.66 159.606 32.1C159.606 34.28 161.186 35.2 163.106 35.2ZM163.686 33.46C162.486 33.46 162.006 32.88 162.006 32C162.006 30.72 163.186 30.3 165.026 30.3H166.266V31.34C166.266 32.68 165.166 33.46 163.686 33.46ZM175.04 35.2C177.72 35.2 179.22 33.98 179.22 31.86C179.22 29.64 177.76 29.04 175.3 28.66C173.64 28.38 173.14 28.08 173.14 27.32C173.14 26.58 173.76 26.08 174.8 26.08C175.92 26.08 176.46 26.52 176.66 27.48H178.9C178.64 25.12 176.94 24.32 174.8 24.32C172.84 24.32 170.88 25.36 170.88 27.46C170.88 29.42 171.9 30.2 174.66 30.64C176.2 30.9 176.9 31.22 176.9 32.08C176.9 32.96 176.32 33.42 175.02 33.42C173.6 33.42 173.06 32.8 172.94 31.74H170.66C170.76 33.96 172.34 35.2 175.04 35.2ZM186.022 33.32C184.182 33.32 183.122 31.98 183.122 29.84V29.68C183.122 27.52 184.222 26.22 186.022 26.22C187.822 26.22 188.902 27.54 188.902 29.7V29.84C188.902 31.98 187.822 33.32 186.022 33.32ZM186.002 35.2C189.082 35.2 191.382 33.08 191.382 29.82V29.66C191.382 26.46 189.082 24.32 186.022 24.32C182.942 24.32 180.642 26.48 180.642 29.72V29.88C180.642 33.06 182.922 35.2 186.002 35.2ZM193.569 35H195.989V28.84C195.989 27.18 197.089 26.34 198.449 26.34C199.889 26.34 200.529 27.06 200.529 28.64V35H202.949V28.42C202.949 25.54 201.469 24.32 199.369 24.32C197.649 24.32 196.489 25.18 195.989 26.2V24.54H193.569V35ZM215.143 35.2C218.423 35.2 220.503 33.56 220.503 30.92C220.503 29.02 219.403 27.84 217.743 27.46C219.123 26.94 220.063 25.96 220.063 24.34C220.063 22.22 218.323 20.5 215.343 20.5C212.283 20.5 210.423 22.4 210.283 24.88H212.643C212.803 23.44 213.783 22.52 215.303 22.52C216.783 22.52 217.523 23.38 217.523 24.54C217.523 25.88 216.783 26.64 215.143 26.64H214.123V28.54H215.223C216.963 28.54 217.803 29.32 217.803 30.88C217.803 32.3 216.943 33.2 215.083 33.2C213.163 33.2 212.323 32.08 212.183 30.58H209.763C209.883 33.32 211.743 35.2 215.143 35.2ZM227.506 35.2C230.786 35.2 232.866 33.56 232.866 30.92C232.866 29.02 231.766 27.84 230.106 27.46C231.486 26.94 232.426 25.96 232.426 24.34C232.426 22.22 230.686 20.5 227.706 20.5C224.646 20.5 222.786 22.4 222.646 24.88H225.006C225.166 23.44 226.146 22.52 227.666 22.52C229.146 22.52 229.886 23.38 229.886 24.54C229.886 25.88 229.146 26.64 227.506 26.64H226.486V28.54H227.586C229.326 28.54 230.166 29.32 230.166 30.88C230.166 32.3 229.306 33.2 227.446 33.2C225.526 33.2 224.686 32.08 224.546 30.58H222.126C222.246 33.32 224.106 35.2 227.506 35.2ZM240.292 35H242.712V24.04L249.152 35H251.912V20.7H249.492V31.04L243.472 20.7H240.292V35ZM259.577 33.32C257.737 33.32 256.677 31.98 256.677 29.84V29.68C256.677 27.52 257.777 26.22 259.577 26.22C261.377 26.22 262.457 27.54 262.457 29.7V29.84C262.457 31.98 261.377 33.32 259.577 33.32ZM259.557 35.2C262.637 35.2 264.937 33.08 264.937 29.82V29.66C264.937 26.46 262.637 24.32 259.577 24.32C256.497 24.32 254.197 26.48 254.197 29.72V29.88C254.197 33.06 256.477 35.2 259.557 35.2ZM267.124 35H269.544V29.56C269.544 27.34 270.824 26.66 272.944 26.64V24.38C271.184 24.4 270.204 25.18 269.544 26.5V24.54H267.124V35ZM278.73 35.18C279.47 35.18 279.99 35.06 280.37 34.92V33C280.03 33.14 279.67 33.2 279.19 33.2C278.43 33.2 277.99 32.78 277.99 31.86V26.36H280.29V24.54H277.99V22.24H275.57V24.54H274.17V26.36H275.57V32.08C275.57 34.06 276.65 35.18 278.73 35.18ZM282.553 35H284.973V28.84C284.973 27.18 286.073 26.34 287.433 26.34C288.873 26.34 289.513 27.06 289.513 28.64V35H291.933V28.42C291.933 25.54 290.453 24.32 288.353 24.32C286.633 24.32 285.473 25.18 284.973 26.2V19.7H282.553V35ZM298.587 35H301.087L302.207 31.46H307.667L308.807 35H311.567L306.847 20.7H303.367L298.587 35ZM304.947 22.88L307.047 29.52H302.827L304.947 22.88ZM313.549 35H315.969V28.74C315.969 27.14 317.069 26.34 318.269 26.34C319.449 26.34 320.129 27 320.129 28.54V35H322.549V28.74C322.549 27.14 323.649 26.34 324.849 26.34C326.049 26.34 326.709 27 326.709 28.54V35H329.129V28.38C329.129 25.5 327.569 24.32 325.649 24.32C324.349 24.32 322.909 24.9 322.109 26.2C321.589 24.9 320.509 24.32 319.149 24.32C317.609 24.32 316.469 25.16 315.969 26.14V24.54H313.549V35ZM336.509 35.2C339.189 35.2 340.969 34 341.309 31.8H338.969C338.789 32.82 338.029 33.4 336.569 33.4C334.769 33.4 333.769 32.28 333.689 30.3H341.349V29.6C341.349 25.86 339.009 24.32 336.409 24.32C333.429 24.32 331.209 26.48 331.209 29.72V29.88C331.209 33.18 333.429 35.2 336.509 35.2ZM333.729 28.68C333.969 27.06 334.949 26.08 336.409 26.08C337.909 26.08 338.829 26.88 338.949 28.68H333.729ZM343.51 35H345.93V29.56C345.93 27.34 347.21 26.66 349.33 26.64V24.38C347.57 24.4 346.59 25.18 345.93 26.5V24.54H343.51V35ZM351.52 35H353.94V24.54H351.52V35ZM352.7 22.82C353.5 22.82 354.14 22.22 354.14 21.44C354.14 20.64 353.5 20.04 352.7 20.04C351.9 20.04 351.26 20.64 351.26 21.44C351.26 22.22 351.9 22.82 352.7 22.82ZM361.469 35.2C364.309 35.2 366.129 33.5 366.309 31.1H364.089C363.949 32.58 362.849 33.34 361.569 33.34C359.789 33.34 358.669 32.14 358.669 29.86V29.7C358.669 27.54 359.849 26.26 361.509 26.26C362.789 26.26 363.709 26.84 363.909 28.24H366.249C365.969 25.36 363.789 24.32 361.469 24.32C358.549 24.32 356.189 26.42 356.189 29.74V29.9C356.189 33.24 358.469 35.2 361.469 35.2ZM371.133 35.2C372.733 35.2 373.653 34.62 374.333 33.72V35H376.713V28.14C376.713 25.28 374.873 24.32 372.533 24.32C370.193 24.32 368.253 25.34 368.053 27.78H370.393C370.513 26.74 371.133 26.14 372.393 26.14C373.813 26.14 374.293 26.84 374.293 28.24V28.78H372.993C369.993 28.78 367.633 29.66 367.633 32.1C367.633 34.28 369.213 35.2 371.133 35.2ZM371.713 33.46C370.513 33.46 370.033 32.88 370.033 32C370.033 30.72 371.213 30.3 373.053 30.3H374.293V31.34C374.293 32.68 373.193 33.46 371.713 33.46Z" fill="#D7D6D5"/>
<rect x="387" y="20" width="58" height="17" rx="2" fill="#F6A821"/>
<path d="M399.05 32.12C400.9 32.12 402.24 31.16 402.38 29.31H400.34C400.24 30.1 399.73 30.48 399.01 30.48C398.03 30.48 397.48 29.75 397.48 28.46V28.38C397.48 27.08 398.06 26.36 398.98 26.36C399.7 26.36 400.1 26.76 400.18 27.49H402.29C402.12 25.6 400.83 24.74 398.97 24.74C396.88 24.74 395.32 26.19 395.32 28.39V28.47C395.32 30.66 396.55 32.12 399.05 32.12ZM407.898 32.12C409.738 32.12 410.778 31.05 410.778 29.74C410.778 28.19 409.848 27.72 408.038 27.52C407.148 27.4 406.928 27.22 406.928 26.82C406.928 26.46 407.208 26.21 407.758 26.21C408.318 26.21 408.608 26.47 408.678 26.98H410.578C410.448 25.47 409.478 24.75 407.758 24.75C406.048 24.75 404.988 25.69 404.988 26.98C404.988 28.42 405.668 29.02 407.688 29.26C408.548 29.39 408.818 29.51 408.818 29.95C408.818 30.37 408.488 30.66 407.898 30.66C407.048 30.66 406.818 30.24 406.768 29.73H404.818C404.878 31.28 405.898 32.12 407.898 32.12ZM414.573 32.11C415.173 32.11 415.623 31.66 415.623 31.1C415.623 30.54 415.173 30.09 414.573 30.09C413.993 30.09 413.553 30.54 413.553 31.1C413.553 31.66 413.993 32.11 414.573 32.11ZM414.573 29.25C415.173 29.25 415.623 28.81 415.623 28.24C415.623 27.68 415.173 27.23 414.573 27.23C413.993 27.23 413.553 27.68 413.553 28.24C413.553 28.81 413.993 29.25 414.573 29.25ZM422.121 32.12C424.431 32.12 425.621 30.75 425.621 28.93V28.05H422.261V29.48H423.601C423.561 30.05 423.181 30.56 422.181 30.56C420.941 30.56 420.511 29.66 420.511 28.5V28.42C420.511 27.13 421.121 26.35 422.131 26.35C422.891 26.35 423.321 26.7 423.421 27.37H425.451C425.311 25.51 423.811 24.74 422.121 24.74C419.971 24.74 418.371 26.21 418.371 28.39V28.47C418.371 30.61 419.691 32.12 422.121 32.12ZM432.032 30.51C431.042 30.51 430.382 29.76 430.382 28.46V28.38C430.382 27.08 431.012 26.35 432.022 26.35C433.032 26.35 433.672 27.1 433.672 28.37V28.45C433.672 29.73 433.042 30.51 432.032 30.51ZM431.992 32.12C434.302 32.12 435.812 30.62 435.812 28.42V28.34C435.812 26.12 434.202 24.75 432.022 24.75C429.882 24.75 428.242 26.21 428.242 28.39V28.47C428.242 30.62 429.682 32.12 431.992 32.12Z" fill="#151515"/>
</svg>
