<svg width="647" height="289" viewBox="0 0 647 289" fill="none" xmlns="http://www.w3.org/2000/svg">
<path d="M4 42.5H643C644.933 42.5 646.5 44.067 646.5 46V285C646.5 286.933 644.933 288.5 643 288.5H3.99999C2.067 288.5 0.5 286.933 0.5 285V46C0.5 44.067 2.067 42.5 4 42.5Z" fill="#272727" fill-opacity="0.5" stroke="#272727"/>
<rect x="0.499947" y="135" width="646.5" height="1" fill="#383838"/>
<path d="M12.6228 115H20.8948V113.352H16.0308L18.5748 110.872C19.9348 109.56 20.8148 108.264 20.8148 106.776C20.8148 104.76 19.4068 103.4 17.0388 103.4C14.6228 103.4 13.1188 104.84 12.9748 107.336H14.9268C15.1188 105.72 15.8388 105.064 16.9748 105.064C18.0788 105.064 18.6868 105.736 18.6868 106.808C18.6868 107.896 18.0308 108.904 16.9428 110.056L12.6228 114.616V115ZM21.6931 117.368H23.3251L28.1571 102.584H26.5091L21.6931 117.368ZM31.2796 115H33.4236V103.56H31.5196L28.8636 105.448V107.32L31.2796 105.672V115ZM37.9046 115H40.0486V103.56H38.1446L35.4886 105.448V107.32L37.9046 105.672V115ZM41.5056 117.368H43.1376L47.9696 102.584H46.3216L41.5056 117.368ZM47.9978 115H56.2698V113.352H51.4058L53.9498 110.872C55.3098 109.56 56.1898 108.264 56.1898 106.776C56.1898 104.76 54.7818 103.4 52.4138 103.4C49.9978 103.4 48.4938 104.84 48.3498 107.336H50.3018C50.4938 105.72 51.2138 105.064 52.3498 105.064C53.4538 105.064 54.0618 105.736 54.0618 106.808C54.0618 107.896 53.4058 108.904 52.3178 110.056L47.9978 114.616V115ZM62.5937 113.464C60.8817 113.464 59.8897 112.152 59.8897 109.56V108.984C59.8897 106.44 60.8337 105.064 62.5617 105.064C64.2737 105.064 65.2017 106.536 65.2017 108.968V109.528C65.2017 112.12 64.3537 113.464 62.5937 113.464ZM62.5457 115.16C65.5377 115.16 67.3297 112.968 67.3297 109.528V108.952C67.3297 105.512 65.4417 103.4 62.5457 103.4C59.6657 103.4 57.7457 105.528 57.7457 109V109.576C57.7457 113.016 59.6337 115.16 62.5457 115.16Z" fill="#797979"/>
<path d="M106.113 112.111H104.56V109.055H109.394V115.744C109.394 116.369 109.153 116.903 108.672 117.346C108.196 117.782 107.63 118 106.972 118H102.148C101.491 118 100.924 117.782 100.449 117.346C99.9672 116.903 99.7263 116.369 99.7263 115.744V103.732C99.7263 103.107 99.9672 102.574 100.449 102.131C100.924 101.695 101.491 101.477 102.148 101.477H106.972C107.63 101.477 108.196 101.695 108.672 102.131C109.153 102.574 109.394 103.107 109.394 103.732V107.053H106.113V104.533H103.008V114.943H106.113V112.111ZM115.107 105.207V115.1H118.056V105.207H115.107ZM118.877 102.307C119.502 102.307 120.039 102.512 120.488 102.922C120.95 103.345 121.181 103.853 121.181 104.445V115.861C121.181 116.454 120.95 116.958 120.488 117.375C120.039 117.792 119.502 118 118.877 118H114.297C113.672 118 113.131 117.792 112.676 117.375C112.22 116.958 111.992 116.454 111.992 115.861V104.445C111.992 103.853 112.22 103.345 112.676 102.922C113.131 102.512 113.672 102.307 114.297 102.307H118.877ZM127.304 105.207V115.1H128.779C129.762 115.1 130.254 114.758 130.254 114.074V105.207H127.304ZM124.189 102.307H131.074C131.699 102.307 132.236 102.512 132.685 102.922C133.148 103.345 133.379 103.853 133.379 104.445V114.074C133.379 115.272 132.92 116.239 132.002 116.975C131.142 117.658 130.068 118 128.779 118H124.189V102.307ZM142.119 105.207H139.17V107.688C139.17 108.358 139.661 108.693 140.644 108.693C141.933 108.693 143.008 109.038 143.867 109.729C144.785 110.458 145.244 111.421 145.244 112.619V115.861C145.244 116.454 145.013 116.958 144.551 117.375C144.101 117.792 143.564 118 142.939 118H138.359C137.734 118 137.194 117.792 136.738 117.375C136.282 116.958 136.054 116.454 136.054 115.861V112.697H139.17V115.1H142.119V112.619C142.119 111.942 141.627 111.604 140.644 111.604C139.362 111.604 138.291 111.262 137.431 110.578C136.513 109.849 136.054 108.885 136.054 107.688V104.445C136.054 103.853 136.282 103.345 136.738 102.922C137.194 102.512 137.734 102.307 138.359 102.307H142.939C143.564 102.307 144.101 102.512 144.551 102.922C145.013 103.345 145.244 103.853 145.244 104.445V107.6H142.119V105.207ZM151.054 115.1H156.25V118H147.939V102.307H156.25V105.207H151.054V108.693H155.381V111.604H151.054V115.1ZM161.65 107.893V118H158.535V102.307H162.861L165.41 112.463V102.307H168.525V118H164.209L161.65 107.893ZM173.515 105.207H170.468V102.307H179.658V105.207H176.621V118H173.515V105.207Z" fill="#797979"/>
<path d="M245.872 115H250.272C252.784 115 254.192 113.928 254.192 111.8V111.736C254.192 110.216 253.456 109.368 251.904 109.032C253.2 108.632 253.712 107.736 253.712 106.6V106.536C253.712 104.456 252.32 103.56 249.968 103.56H245.872V115ZM247.952 113.48V109.816H249.872C251.44 109.816 252.096 110.408 252.096 111.592V111.656C252.096 112.84 251.44 113.48 250.016 113.48H247.952ZM247.952 108.376V105.08H249.68C251.04 105.08 251.664 105.544 251.664 106.632V106.696C251.664 107.864 251.12 108.376 249.712 108.376H247.952ZM258.824 115.16C260.184 115.16 261.064 114.504 261.48 113.688V115H263.416V106.632H261.48V111.608C261.48 112.936 260.568 113.608 259.528 113.608C258.408 113.608 257.88 113.032 257.88 111.768V106.632H255.944V111.992C255.944 114.216 257.176 115.16 258.824 115.16ZM266.64 117.864H268.544L273.104 106.632H271.216L269.168 112.024L266.944 106.632H264.848L268.16 114.152L266.64 117.864ZM280.624 117.368H282.32C281.024 115.64 279.888 113.32 279.888 109.992C279.888 106.68 281.024 104.344 282.32 102.616H280.624C279.248 104.248 277.968 106.664 277.968 109.992C277.968 113.336 279.248 115.736 280.624 117.368ZM283.887 115H290.895V113.304H286.015V103.56H283.887V115ZM292.588 115H294.524V106.632H292.588V115ZM293.532 105.256C294.172 105.256 294.684 104.776 294.684 104.152C294.684 103.512 294.172 103.032 293.532 103.032C292.892 103.032 292.38 103.512 292.38 104.152C292.38 104.776 292.892 105.256 293.532 105.256ZM296.884 115H298.82V109.992C298.82 108.712 299.7 108.072 300.66 108.072C301.604 108.072 302.148 108.6 302.148 109.832V115H304.084V109.992C304.084 108.712 304.964 108.072 305.924 108.072C306.884 108.072 307.412 108.6 307.412 109.832V115H309.348V109.704C309.348 107.4 308.1 106.456 306.564 106.456C305.524 106.456 304.372 106.92 303.732 107.96C303.316 106.92 302.452 106.456 301.364 106.456C300.132 106.456 299.22 107.128 298.82 107.912V106.632H296.884V115ZM311.619 115H313.555V106.632H311.619V115ZM312.563 105.256C313.203 105.256 313.715 104.776 313.715 104.152C313.715 103.512 313.203 103.032 312.563 103.032C311.923 103.032 311.411 103.512 311.411 104.152C311.411 104.776 311.923 105.256 312.563 105.256ZM318.763 115.144C319.355 115.144 319.771 115.048 320.075 114.936V113.4C319.803 113.512 319.515 113.56 319.131 113.56C318.523 113.56 318.171 113.224 318.171 112.488V108.088H320.011V106.632H318.171V104.792H316.235V106.632H315.115V108.088H316.235V112.664C316.235 114.248 317.099 115.144 318.763 115.144ZM320.941 117.336H322.621C323.997 115.704 325.277 113.288 325.277 109.96C325.277 106.616 323.997 104.216 322.621 102.584H320.941C322.221 104.312 323.357 106.632 323.357 109.96C323.357 113.272 322.221 115.608 320.941 117.336Z" fill="#D7D6D5"/>
<path d="M412.591 115H414.735V103.56H412.831L410.175 105.448V107.32L412.591 105.672V115ZM418.436 115.112C419.156 115.112 419.716 114.568 419.716 113.864C419.716 113.16 419.156 112.6 418.436 112.6C417.732 112.6 417.172 113.16 417.172 113.864C417.172 114.568 417.732 115.112 418.436 115.112ZM425.624 113.464C423.912 113.464 422.92 112.152 422.92 109.56V108.984C422.92 106.44 423.864 105.064 425.592 105.064C427.304 105.064 428.232 106.536 428.232 108.968V109.528C428.232 112.12 427.384 113.464 425.624 113.464ZM425.576 115.16C428.568 115.16 430.36 112.968 430.36 109.528V108.952C430.36 105.512 428.472 103.4 425.576 103.4C422.696 103.4 420.776 105.528 420.776 109V109.576C420.776 113.016 422.664 115.16 425.576 115.16ZM441.44 115.16C444.672 115.16 446.656 113.24 446.656 110.072V109.016H441.68V110.616H444.56C444.496 112.2 443.616 113.496 441.472 113.496C439.072 113.496 437.936 111.816 437.936 109.368V109.24C437.936 106.728 439.232 105.064 441.472 105.064C442.96 105.064 443.984 105.72 444.24 107.24H446.368C446.064 104.504 443.888 103.384 441.44 103.384C438.096 103.384 435.728 105.816 435.728 109.224V109.352C435.728 112.728 437.776 115.16 441.44 115.16ZM453.846 115.16C457.078 115.16 459.062 113.24 459.062 110.072V109.016H454.086V110.616H456.966C456.902 112.2 456.022 113.496 453.878 113.496C451.478 113.496 450.342 111.816 450.342 109.368V109.24C450.342 106.728 451.638 105.064 453.878 105.064C455.366 105.064 456.39 105.72 456.646 107.24H458.774C458.47 104.504 456.294 103.384 453.846 103.384C450.502 103.384 448.134 105.816 448.134 109.224V109.352C448.134 112.728 450.182 115.16 453.846 115.16Z" fill="#797979"/>
<path d="M529.297 115.16C531.761 115.16 533.505 113.64 533.505 111.224C533.505 108.824 532.049 107.384 529.985 107.384C528.769 107.384 527.969 107.832 527.521 108.344L527.537 105.24H532.849V103.56H525.905L525.809 109.928H526.897C527.409 109.336 528.113 108.936 529.281 108.936C530.545 108.936 531.345 109.816 531.345 111.192C531.345 112.6 530.593 113.512 529.281 113.512C527.809 113.512 527.377 112.776 527.201 111.72H525.217C525.345 113.688 526.609 115.16 529.297 115.16ZM539.883 113.464C538.171 113.464 537.179 112.152 537.179 109.56V108.984C537.179 106.44 538.123 105.064 539.851 105.064C541.563 105.064 542.491 106.536 542.491 108.968V109.528C542.491 112.12 541.643 113.464 539.883 113.464ZM539.835 115.16C542.827 115.16 544.619 112.968 544.619 109.528V108.952C544.619 105.512 542.731 103.4 539.835 103.4C536.955 103.4 535.035 105.528 535.035 109V109.576C535.035 113.016 536.923 115.16 539.835 115.16ZM548.64 107.704C547.888 107.704 547.408 107.192 547.408 106.216C547.408 105.256 547.888 104.728 548.64 104.728C549.392 104.728 549.856 105.288 549.856 106.216C549.856 107.16 549.392 107.704 548.64 107.704ZM548.624 109C550.192 109 551.408 107.816 551.408 106.2C551.408 104.6 550.176 103.448 548.64 103.448C547.104 103.448 545.84 104.632 545.84 106.232C545.84 107.816 547.056 109 548.624 109ZM547.408 115H548.768L556.128 103.56H554.784L547.408 115ZM554.912 113.864C554.16 113.864 553.68 113.352 553.68 112.376C553.68 111.416 554.16 110.888 554.912 110.888C555.664 110.888 556.128 111.448 556.128 112.376C556.128 113.32 555.664 113.864 554.912 113.864ZM554.896 115.16C556.464 115.16 557.696 113.976 557.696 112.36C557.696 110.76 556.448 109.608 554.912 109.608C553.376 109.608 552.128 110.792 552.128 112.392C552.128 113.976 553.328 115.16 554.896 115.16Z" fill="#797979"/>
<path fill-rule="evenodd" clip-rule="evenodd" d="M613.979 109C613.979 103.47 618.592 99 624.298 99C630.005 99 634.617 103.47 634.617 109C634.617 114.53 630.005 119 624.298 119C618.592 119 613.979 114.53 613.979 109ZM624.298 107.59L628.003 104L629.458 105.41L625.753 109L629.458 112.59L628.003 114L624.298 110.41L620.594 114L619.139 112.59L622.843 109L619.139 105.41L620.594 104L624.298 107.59Z" fill="#383838"/>
<rect x="0.499947" y="186" width="646.5" height="1" fill="#383838"/>
<path d="M12.6228 166H20.8948V164.352H16.0308L18.5748 161.872C19.9348 160.56 20.8148 159.264 20.8148 157.776C20.8148 155.76 19.4068 154.4 17.0388 154.4C14.6228 154.4 13.1188 155.84 12.9748 158.336H14.9268C15.1188 156.72 15.8388 156.064 16.9748 156.064C18.0788 156.064 18.6868 156.736 18.6868 157.808C18.6868 158.896 18.0308 159.904 16.9428 161.056L12.6228 165.616V166ZM21.6931 168.368H23.3251L28.1571 153.584H26.5091L21.6931 168.368ZM31.2796 166H33.4236V154.56H31.5196L28.8636 156.448V158.32L31.2796 156.672V166ZM37.9046 166H40.0486V154.56H38.1446L35.4886 156.448V158.32L37.9046 156.672V166ZM41.5056 168.368H43.1376L47.9696 153.584H46.3216L41.5056 168.368ZM47.9978 166H56.2698V164.352H51.4058L53.9498 161.872C55.3098 160.56 56.1898 159.264 56.1898 157.776C56.1898 155.76 54.7818 154.4 52.4138 154.4C49.9978 154.4 48.4938 155.84 48.3498 158.336H50.3018C50.4938 156.72 51.2138 156.064 52.3498 156.064C53.4538 156.064 54.0618 156.736 54.0618 157.808C54.0618 158.896 53.4058 159.904 52.3178 161.056L47.9978 165.616V166ZM62.5937 164.464C60.8817 164.464 59.8897 163.152 59.8897 160.56V159.984C59.8897 157.44 60.8337 156.064 62.5617 156.064C64.2737 156.064 65.2017 157.536 65.2017 159.968V160.528C65.2017 163.12 64.3537 164.464 62.5937 164.464ZM62.5457 166.16C65.5377 166.16 67.3297 163.968 67.3297 160.528V159.952C67.3297 156.512 65.4417 154.4 62.5457 154.4C59.6657 154.4 57.7457 156.528 57.7457 160V160.576C57.7457 164.016 59.6337 166.16 62.5457 166.16Z" fill="#797979"/>
<path d="M106.113 163.111H104.56V160.055H109.394V166.744C109.394 167.369 109.153 167.903 108.672 168.346C108.196 168.782 107.63 169 106.972 169H102.148C101.491 169 100.924 168.782 100.449 168.346C99.9672 167.903 99.7263 167.369 99.7263 166.744V154.732C99.7263 154.107 99.9672 153.574 100.449 153.131C100.924 152.695 101.491 152.477 102.148 152.477H106.972C107.63 152.477 108.196 152.695 108.672 153.131C109.153 153.574 109.394 154.107 109.394 154.732V158.053H106.113V155.533H103.008V165.943H106.113V163.111ZM115.107 156.207V166.1H118.056V156.207H115.107ZM118.877 153.307C119.502 153.307 120.039 153.512 120.488 153.922C120.95 154.345 121.181 154.853 121.181 155.445V166.861C121.181 167.454 120.95 167.958 120.488 168.375C120.039 168.792 119.502 169 118.877 169H114.297C113.672 169 113.131 168.792 112.676 168.375C112.22 167.958 111.992 167.454 111.992 166.861V155.445C111.992 154.853 112.22 154.345 112.676 153.922C113.131 153.512 113.672 153.307 114.297 153.307H118.877ZM127.304 156.207V166.1H128.779C129.762 166.1 130.254 165.758 130.254 165.074V156.207H127.304ZM124.189 153.307H131.074C131.699 153.307 132.236 153.512 132.685 153.922C133.148 154.345 133.379 154.853 133.379 155.445V165.074C133.379 166.272 132.92 167.239 132.002 167.975C131.142 168.658 130.068 169 128.779 169H124.189V153.307ZM142.119 156.207H139.17V158.688C139.17 159.358 139.661 159.693 140.644 159.693C141.933 159.693 143.008 160.038 143.867 160.729C144.785 161.458 145.244 162.421 145.244 163.619V166.861C145.244 167.454 145.013 167.958 144.551 168.375C144.101 168.792 143.564 169 142.939 169H138.359C137.734 169 137.194 168.792 136.738 168.375C136.282 167.958 136.054 167.454 136.054 166.861V163.697H139.17V166.1H142.119V163.619C142.119 162.942 141.627 162.604 140.644 162.604C139.362 162.604 138.291 162.262 137.431 161.578C136.513 160.849 136.054 159.885 136.054 158.688V155.445C136.054 154.853 136.282 154.345 136.738 153.922C137.194 153.512 137.734 153.307 138.359 153.307H142.939C143.564 153.307 144.101 153.512 144.551 153.922C145.013 154.345 145.244 154.853 145.244 155.445V158.6H142.119V156.207ZM151.054 166.1H156.25V169H147.939V153.307H156.25V156.207H151.054V159.693H155.381V162.604H151.054V166.1ZM161.65 158.893V169H158.535V153.307H162.861L165.41 163.463V153.307H168.525V169H164.209L161.65 158.893ZM173.515 156.207H170.468V153.307H179.658V156.207H176.621V169H173.515V156.207Z" fill="#797979"/>
<path d="M245.872 166H250.272C252.784 166 254.192 164.928 254.192 162.8V162.736C254.192 161.216 253.456 160.368 251.904 160.032C253.2 159.632 253.712 158.736 253.712 157.6V157.536C253.712 155.456 252.32 154.56 249.968 154.56H245.872V166ZM247.952 164.48V160.816H249.872C251.44 160.816 252.096 161.408 252.096 162.592V162.656C252.096 163.84 251.44 164.48 250.016 164.48H247.952ZM247.952 159.376V156.08H249.68C251.04 156.08 251.664 156.544 251.664 157.632V157.696C251.664 158.864 251.12 159.376 249.712 159.376H247.952ZM258.824 166.16C260.184 166.16 261.064 165.504 261.48 164.688V166H263.416V157.632H261.48V162.608C261.48 163.936 260.568 164.608 259.528 164.608C258.408 164.608 257.88 164.032 257.88 162.768V157.632H255.944V162.992C255.944 165.216 257.176 166.16 258.824 166.16ZM266.64 168.864H268.544L273.104 157.632H271.216L269.168 163.024L266.944 157.632H264.848L268.16 165.152L266.64 168.864ZM280.624 168.368H282.32C281.024 166.64 279.888 164.32 279.888 160.992C279.888 157.68 281.024 155.344 282.32 153.616H280.624C279.248 155.248 277.968 157.664 277.968 160.992C277.968 164.336 279.248 166.736 280.624 168.368ZM287.775 166.16C290.303 166.16 291.983 164.608 291.983 162.624C291.983 160.336 290.591 159.568 287.903 159.2C285.919 158.912 285.535 158.448 285.535 157.52C285.535 156.64 286.207 156.016 287.503 156.016C288.815 156.016 289.503 156.528 289.711 157.728H291.663C291.439 155.536 289.967 154.416 287.503 154.416C285.119 154.416 283.519 155.824 283.519 157.696C283.519 159.84 284.815 160.672 287.551 161.04C289.407 161.344 289.935 161.744 289.935 162.8C289.935 163.856 289.039 164.56 287.775 164.56C285.839 164.56 285.375 163.6 285.231 162.448H283.183C283.343 164.608 284.655 166.16 287.775 166.16ZM296.732 166.144C297.324 166.144 297.74 166.048 298.044 165.936V164.4C297.772 164.512 297.484 164.56 297.1 164.56C296.492 164.56 296.14 164.224 296.14 163.488V159.088H297.98V157.632H296.14V155.792H294.204V157.632H293.084V159.088H294.204V163.664C294.204 165.248 295.068 166.144 296.732 166.144ZM303.534 164.656C302.062 164.656 301.214 163.584 301.214 161.872V161.744C301.214 160.016 302.094 158.976 303.534 158.976C304.974 158.976 305.838 160.032 305.838 161.76V161.872C305.838 163.584 304.974 164.656 303.534 164.656ZM303.518 166.16C305.982 166.16 307.822 164.464 307.822 161.856V161.728C307.822 159.168 305.982 157.456 303.534 157.456C301.07 157.456 299.23 159.184 299.23 161.776V161.904C299.23 164.448 301.054 166.16 303.518 166.16ZM309.571 168.864H311.507V164.688C311.955 165.504 312.915 166.16 314.243 166.16C316.403 166.16 317.955 164.528 317.955 161.84V161.712C317.955 159.008 316.339 157.456 314.243 157.456C313.011 157.456 311.971 158.176 311.507 158.976V157.632H309.571V168.864ZM313.763 164.624C312.355 164.624 311.443 163.744 311.443 161.872V161.744C311.443 159.888 312.403 158.976 313.747 158.976C315.011 158.976 315.971 159.888 315.971 161.744V161.872C315.971 163.664 315.187 164.624 313.763 164.624ZM318.738 168.336H320.418C321.794 166.704 323.074 164.288 323.074 160.96C323.074 157.616 321.794 155.216 320.418 153.584H318.738C320.018 155.312 321.154 157.632 321.154 160.96C321.154 164.272 320.018 166.608 318.738 168.336Z" fill="#D7D6D5"/>
<path d="M412.591 166H414.735V154.56H412.831L410.175 156.448V158.32L412.591 156.672V166ZM418.436 166.112C419.156 166.112 419.716 165.568 419.716 164.864C419.716 164.16 419.156 163.6 418.436 163.6C417.732 163.6 417.172 164.16 417.172 164.864C417.172 165.568 417.732 166.112 418.436 166.112ZM425.624 164.464C423.912 164.464 422.92 163.152 422.92 160.56V159.984C422.92 157.44 423.864 156.064 425.592 156.064C427.304 156.064 428.232 157.536 428.232 159.968V160.528C428.232 163.12 427.384 164.464 425.624 164.464ZM425.576 166.16C428.568 166.16 430.36 163.968 430.36 160.528V159.952C430.36 156.512 428.472 154.4 425.576 154.4C422.696 154.4 420.776 156.528 420.776 160V160.576C420.776 164.016 422.664 166.16 425.576 166.16ZM441.44 166.16C444.672 166.16 446.656 164.24 446.656 161.072V160.016H441.68V161.616H444.56C444.496 163.2 443.616 164.496 441.472 164.496C439.072 164.496 437.936 162.816 437.936 160.368V160.24C437.936 157.728 439.232 156.064 441.472 156.064C442.96 156.064 443.984 156.72 444.24 158.24H446.368C446.064 155.504 443.888 154.384 441.44 154.384C438.096 154.384 435.728 156.816 435.728 160.224V160.352C435.728 163.728 437.776 166.16 441.44 166.16ZM453.846 166.16C457.078 166.16 459.062 164.24 459.062 161.072V160.016H454.086V161.616H456.966C456.902 163.2 456.022 164.496 453.878 164.496C451.478 164.496 450.342 162.816 450.342 160.368V160.24C450.342 157.728 451.638 156.064 453.878 156.064C455.366 156.064 456.39 156.72 456.646 158.24H458.774C458.47 155.504 456.294 154.384 453.846 154.384C450.502 154.384 448.134 156.816 448.134 160.224V160.352C448.134 163.728 450.182 166.16 453.846 166.16Z" fill="#797979"/>
<path d="M529.297 166.16C531.761 166.16 533.505 164.64 533.505 162.224C533.505 159.824 532.049 158.384 529.985 158.384C528.769 158.384 527.969 158.832 527.521 159.344L527.537 156.24H532.849V154.56H525.905L525.809 160.928H526.897C527.409 160.336 528.113 159.936 529.281 159.936C530.545 159.936 531.345 160.816 531.345 162.192C531.345 163.6 530.593 164.512 529.281 164.512C527.809 164.512 527.377 163.776 527.201 162.72H525.217C525.345 164.688 526.609 166.16 529.297 166.16ZM539.883 164.464C538.171 164.464 537.179 163.152 537.179 160.56V159.984C537.179 157.44 538.123 156.064 539.851 156.064C541.563 156.064 542.491 157.536 542.491 159.968V160.528C542.491 163.12 541.643 164.464 539.883 164.464ZM539.835 166.16C542.827 166.16 544.619 163.968 544.619 160.528V159.952C544.619 156.512 542.731 154.4 539.835 154.4C536.955 154.4 535.035 156.528 535.035 160V160.576C535.035 164.016 536.923 166.16 539.835 166.16ZM548.64 158.704C547.888 158.704 547.408 158.192 547.408 157.216C547.408 156.256 547.888 155.728 548.64 155.728C549.392 155.728 549.856 156.288 549.856 157.216C549.856 158.16 549.392 158.704 548.64 158.704ZM548.624 160C550.192 160 551.408 158.816 551.408 157.2C551.408 155.6 550.176 154.448 548.64 154.448C547.104 154.448 545.84 155.632 545.84 157.232C545.84 158.816 547.056 160 548.624 160ZM547.408 166H548.768L556.128 154.56H554.784L547.408 166ZM554.912 164.864C554.16 164.864 553.68 164.352 553.68 163.376C553.68 162.416 554.16 161.888 554.912 161.888C555.664 161.888 556.128 162.448 556.128 163.376C556.128 164.32 555.664 164.864 554.912 164.864ZM554.896 166.16C556.464 166.16 557.696 164.976 557.696 163.36C557.696 161.76 556.448 160.608 554.912 160.608C553.376 160.608 552.128 161.792 552.128 163.392C552.128 164.976 553.328 166.16 554.896 166.16Z" fill="#797979"/>
<rect x="0.499947" y="135" width="646.5" height="1" fill="#383838"/>
<path fill-rule="evenodd" clip-rule="evenodd" d="M613.979 160C613.979 154.47 618.592 150 624.298 150C630.005 150 634.617 154.47 634.617 160C634.617 165.53 630.005 170 624.298 170C618.592 170 613.979 165.53 613.979 160ZM624.298 158.59L628.003 155L629.458 156.41L625.753 160L629.458 163.59L628.003 165L624.298 161.41L620.594 165L619.139 163.59L622.843 160L619.139 156.41L620.594 155L624.298 158.59Z" fill="#383838"/>
<rect x="0.499947" y="237" width="646.5" height="1" fill="#383838"/>
<path d="M12.6228 217H20.8948V215.352H16.0308L18.5748 212.872C19.9348 211.56 20.8148 210.264 20.8148 208.776C20.8148 206.76 19.4068 205.4 17.0388 205.4C14.6228 205.4 13.1188 206.84 12.9748 209.336H14.9268C15.1188 207.72 15.8388 207.064 16.9748 207.064C18.0788 207.064 18.6868 207.736 18.6868 208.808C18.6868 209.896 18.0308 210.904 16.9428 212.056L12.6228 216.616V217ZM21.6931 219.368H23.3251L28.1571 204.584H26.5091L21.6931 219.368ZM31.2796 217H33.4236V205.56H31.5196L28.8636 207.448V209.32L31.2796 207.672V217ZM37.9046 217H40.0486V205.56H38.1446L35.4886 207.448V209.32L37.9046 207.672V217ZM41.5056 219.368H43.1376L47.9696 204.584H46.3216L41.5056 219.368ZM47.9978 217H56.2698V215.352H51.4058L53.9498 212.872C55.3098 211.56 56.1898 210.264 56.1898 208.776C56.1898 206.76 54.7818 205.4 52.4138 205.4C49.9978 205.4 48.4938 206.84 48.3498 209.336H50.3018C50.4938 207.72 51.2138 207.064 52.3498 207.064C53.4538 207.064 54.0618 207.736 54.0618 208.808C54.0618 209.896 53.4058 210.904 52.3178 212.056L47.9978 216.616V217ZM62.5937 215.464C60.8817 215.464 59.8897 214.152 59.8897 211.56V210.984C59.8897 208.44 60.8337 207.064 62.5617 207.064C64.2737 207.064 65.2017 208.536 65.2017 210.968V211.528C65.2017 214.12 64.3537 215.464 62.5937 215.464ZM62.5457 217.16C65.5377 217.16 67.3297 214.968 67.3297 211.528V210.952C67.3297 207.512 65.4417 205.4 62.5457 205.4C59.6657 205.4 57.7457 207.528 57.7457 211V211.576C57.7457 215.016 59.6337 217.16 62.5457 217.16Z" fill="#797979"/>
<path d="M106.113 214.111H104.56V211.055H109.394V217.744C109.394 218.369 109.153 218.903 108.672 219.346C108.196 219.782 107.63 220 106.972 220H102.148C101.491 220 100.924 219.782 100.449 219.346C99.9672 218.903 99.7263 218.369 99.7263 217.744V205.732C99.7263 205.107 99.9672 204.574 100.449 204.131C100.924 203.695 101.491 203.477 102.148 203.477H106.972C107.63 203.477 108.196 203.695 108.672 204.131C109.153 204.574 109.394 205.107 109.394 205.732V209.053H106.113V206.533H103.008V216.943H106.113V214.111ZM115.107 207.207V217.1H118.056V207.207H115.107ZM118.877 204.307C119.502 204.307 120.039 204.512 120.488 204.922C120.95 205.345 121.181 205.853 121.181 206.445V217.861C121.181 218.454 120.95 218.958 120.488 219.375C120.039 219.792 119.502 220 118.877 220H114.297C113.672 220 113.131 219.792 112.676 219.375C112.22 218.958 111.992 218.454 111.992 217.861V206.445C111.992 205.853 112.22 205.345 112.676 204.922C113.131 204.512 113.672 204.307 114.297 204.307H118.877ZM127.304 207.207V217.1H128.779C129.762 217.1 130.254 216.758 130.254 216.074V207.207H127.304ZM124.189 204.307H131.074C131.699 204.307 132.236 204.512 132.685 204.922C133.148 205.345 133.379 205.853 133.379 206.445V216.074C133.379 217.272 132.92 218.239 132.002 218.975C131.142 219.658 130.068 220 128.779 220H124.189V204.307ZM142.119 207.207H139.17V209.688C139.17 210.358 139.661 210.693 140.644 210.693C141.933 210.693 143.008 211.038 143.867 211.729C144.785 212.458 145.244 213.421 145.244 214.619V217.861C145.244 218.454 145.013 218.958 144.551 219.375C144.101 219.792 143.564 220 142.939 220H138.359C137.734 220 137.194 219.792 136.738 219.375C136.282 218.958 136.054 218.454 136.054 217.861V214.697H139.17V217.1H142.119V214.619C142.119 213.942 141.627 213.604 140.644 213.604C139.362 213.604 138.291 213.262 137.431 212.578C136.513 211.849 136.054 210.885 136.054 209.688V206.445C136.054 205.853 136.282 205.345 136.738 204.922C137.194 204.512 137.734 204.307 138.359 204.307H142.939C143.564 204.307 144.101 204.512 144.551 204.922C145.013 205.345 145.244 205.853 145.244 206.445V209.6H142.119V207.207ZM151.054 217.1H156.25V220H147.939V204.307H156.25V207.207H151.054V210.693H155.381V213.604H151.054V217.1ZM161.65 209.893V220H158.535V204.307H162.861L165.41 214.463V204.307H168.525V220H164.209L161.65 209.893ZM173.515 207.207H170.468V204.307H179.658V207.207H176.621V220H173.515V207.207Z" fill="#797979"/>
<path d="M245.872 217H250.272C252.784 217 254.192 215.928 254.192 213.8V213.736C254.192 212.216 253.456 211.368 251.904 211.032C253.2 210.632 253.712 209.736 253.712 208.6V208.536C253.712 206.456 252.32 205.56 249.968 205.56H245.872V217ZM247.952 215.48V211.816H249.872C251.44 211.816 252.096 212.408 252.096 213.592V213.656C252.096 214.84 251.44 215.48 250.016 215.48H247.952ZM247.952 210.376V207.08H249.68C251.04 207.08 251.664 207.544 251.664 208.632V208.696C251.664 209.864 251.12 210.376 249.712 210.376H247.952ZM258.824 217.16C260.184 217.16 261.064 216.504 261.48 215.688V217H263.416V208.632H261.48V213.608C261.48 214.936 260.568 215.608 259.528 215.608C258.408 215.608 257.88 215.032 257.88 213.768V208.632H255.944V213.992C255.944 216.216 257.176 217.16 258.824 217.16ZM266.64 219.864H268.544L273.104 208.632H271.216L269.168 214.024L266.944 208.632H264.848L268.16 216.152L266.64 219.864ZM280.624 219.368H282.32C281.024 217.64 279.888 215.32 279.888 211.992C279.888 208.68 281.024 206.344 282.32 204.616H280.624C279.248 206.248 277.968 208.664 277.968 211.992C277.968 215.336 279.248 217.736 280.624 219.368ZM283.887 217H290.895V215.304H286.015V205.56H283.887V217ZM292.588 217H294.524V208.632H292.588V217ZM293.532 207.256C294.172 207.256 294.684 206.776 294.684 206.152C294.684 205.512 294.172 205.032 293.532 205.032C292.892 205.032 292.38 205.512 292.38 206.152C292.38 206.776 292.892 207.256 293.532 207.256ZM296.884 217H298.82V211.992C298.82 210.712 299.7 210.072 300.66 210.072C301.604 210.072 302.148 210.6 302.148 211.832V217H304.084V211.992C304.084 210.712 304.964 210.072 305.924 210.072C306.884 210.072 307.412 210.6 307.412 211.832V217H309.348V211.704C309.348 209.4 308.1 208.456 306.564 208.456C305.524 208.456 304.372 208.92 303.732 209.96C303.316 208.92 302.452 208.456 301.364 208.456C300.132 208.456 299.22 209.128 298.82 209.912V208.632H296.884V217ZM311.619 217H313.555V208.632H311.619V217ZM312.563 207.256C313.203 207.256 313.715 206.776 313.715 206.152C313.715 205.512 313.203 205.032 312.563 205.032C311.923 205.032 311.411 205.512 311.411 206.152C311.411 206.776 311.923 207.256 312.563 207.256ZM318.763 217.144C319.355 217.144 319.771 217.048 320.075 216.936V215.4C319.803 215.512 319.515 215.56 319.131 215.56C318.523 215.56 318.171 215.224 318.171 214.488V210.088H320.011V208.632H318.171V206.792H316.235V208.632H315.115V210.088H316.235V214.664C316.235 216.248 317.099 217.144 318.763 217.144ZM320.941 219.336H322.621C323.997 217.704 325.277 215.288 325.277 211.96C325.277 208.616 323.997 206.216 322.621 204.584H320.941C322.221 206.312 323.357 208.632 323.357 211.96C323.357 215.272 322.221 217.608 320.941 219.336Z" fill="#D7D6D5"/>
<path d="M412.591 217H414.735V205.56H412.831L410.175 207.448V209.32L412.591 207.672V217ZM418.436 217.112C419.156 217.112 419.716 216.568 419.716 215.864C419.716 215.16 419.156 214.6 418.436 214.6C417.732 214.6 417.172 215.16 417.172 215.864C417.172 216.568 417.732 217.112 418.436 217.112ZM425.624 215.464C423.912 215.464 422.92 214.152 422.92 211.56V210.984C422.92 208.44 423.864 207.064 425.592 207.064C427.304 207.064 428.232 208.536 428.232 210.968V211.528C428.232 214.12 427.384 215.464 425.624 215.464ZM425.576 217.16C428.568 217.16 430.36 214.968 430.36 211.528V210.952C430.36 207.512 428.472 205.4 425.576 205.4C422.696 205.4 420.776 207.528 420.776 211V211.576C420.776 215.016 422.664 217.16 425.576 217.16ZM441.44 217.16C444.672 217.16 446.656 215.24 446.656 212.072V211.016H441.68V212.616H444.56C444.496 214.2 443.616 215.496 441.472 215.496C439.072 215.496 437.936 213.816 437.936 211.368V211.24C437.936 208.728 439.232 207.064 441.472 207.064C442.96 207.064 443.984 207.72 444.24 209.24H446.368C446.064 206.504 443.888 205.384 441.44 205.384C438.096 205.384 435.728 207.816 435.728 211.224V211.352C435.728 214.728 437.776 217.16 441.44 217.16ZM453.846 217.16C457.078 217.16 459.062 215.24 459.062 212.072V211.016H454.086V212.616H456.966C456.902 214.2 456.022 215.496 453.878 215.496C451.478 215.496 450.342 213.816 450.342 211.368V211.24C450.342 208.728 451.638 207.064 453.878 207.064C455.366 207.064 456.39 207.72 456.646 209.24H458.774C458.47 206.504 456.294 205.384 453.846 205.384C450.502 205.384 448.134 207.816 448.134 211.224V211.352C448.134 214.728 450.182 217.16 453.846 217.16Z" fill="#797979"/>
<path d="M529.297 217.16C531.761 217.16 533.505 215.64 533.505 213.224C533.505 210.824 532.049 209.384 529.985 209.384C528.769 209.384 527.969 209.832 527.521 210.344L527.537 207.24H532.849V205.56H525.905L525.809 211.928H526.897C527.409 211.336 528.113 210.936 529.281 210.936C530.545 210.936 531.345 211.816 531.345 213.192C531.345 214.6 530.593 215.512 529.281 215.512C527.809 215.512 527.377 214.776 527.201 213.72H525.217C525.345 215.688 526.609 217.16 529.297 217.16ZM539.883 215.464C538.171 215.464 537.179 214.152 537.179 211.56V210.984C537.179 208.44 538.123 207.064 539.851 207.064C541.563 207.064 542.491 208.536 542.491 210.968V211.528C542.491 214.12 541.643 215.464 539.883 215.464ZM539.835 217.16C542.827 217.16 544.619 214.968 544.619 211.528V210.952C544.619 207.512 542.731 205.4 539.835 205.4C536.955 205.4 535.035 207.528 535.035 211V211.576C535.035 215.016 536.923 217.16 539.835 217.16ZM548.64 209.704C547.888 209.704 547.408 209.192 547.408 208.216C547.408 207.256 547.888 206.728 548.64 206.728C549.392 206.728 549.856 207.288 549.856 208.216C549.856 209.16 549.392 209.704 548.64 209.704ZM548.624 211C550.192 211 551.408 209.816 551.408 208.2C551.408 206.6 550.176 205.448 548.64 205.448C547.104 205.448 545.84 206.632 545.84 208.232C545.84 209.816 547.056 211 548.624 211ZM547.408 217H548.768L556.128 205.56H554.784L547.408 217ZM554.912 215.864C554.16 215.864 553.68 215.352 553.68 214.376C553.68 213.416 554.16 212.888 554.912 212.888C555.664 212.888 556.128 213.448 556.128 214.376C556.128 215.32 555.664 215.864 554.912 215.864ZM554.896 217.16C556.464 217.16 557.696 215.976 557.696 214.36C557.696 212.76 556.448 211.608 554.912 211.608C553.376 211.608 552.128 212.792 552.128 214.392C552.128 215.976 553.328 217.16 554.896 217.16Z" fill="#797979"/>
<rect x="0.499947" y="186" width="646.5" height="1" fill="#383838"/>
<path fill-rule="evenodd" clip-rule="evenodd" d="M613.979 211C613.979 205.47 618.592 201 624.298 201C630.005 201 634.617 205.47 634.617 211C634.617 216.53 630.005 221 624.298 221C618.592 221 613.979 216.53 613.979 211ZM624.298 209.59L628.003 206L629.458 207.41L625.753 211L629.458 214.59L628.003 216L624.298 212.41L620.594 216L619.139 214.59L622.843 211L619.139 207.41L620.594 206L624.298 209.59Z" fill="#383838"/>
<rect width="647" height="52" transform="translate(0 237)" fill="#272727"/>
<path d="M12.6228 268H20.8948V266.352H16.0308L18.5748 263.872C19.9348 262.56 20.8148 261.264 20.8148 259.776C20.8148 257.76 19.4068 256.4 17.0388 256.4C14.6228 256.4 13.1188 257.84 12.9748 260.336H14.9268C15.1188 258.72 15.8388 258.064 16.9748 258.064C18.0788 258.064 18.6868 258.736 18.6868 259.808C18.6868 260.896 18.0308 261.904 16.9428 263.056L12.6228 267.616V268ZM21.6931 270.368H23.3251L28.1571 255.584H26.5091L21.6931 270.368ZM31.2796 268H33.4236V256.56H31.5196L28.8636 258.448V260.32L31.2796 258.672V268ZM37.9046 268H40.0486V256.56H38.1446L35.4886 258.448V260.32L37.9046 258.672V268ZM41.5056 270.368H43.1376L47.9696 255.584H46.3216L41.5056 270.368ZM47.9978 268H56.2698V266.352H51.4058L53.9498 263.872C55.3098 262.56 56.1898 261.264 56.1898 259.776C56.1898 257.76 54.7818 256.4 52.4138 256.4C49.9978 256.4 48.4938 257.84 48.3498 260.336H50.3018C50.4938 258.72 51.2138 258.064 52.3498 258.064C53.4538 258.064 54.0618 258.736 54.0618 259.808C54.0618 260.896 53.4058 261.904 52.3178 263.056L47.9978 267.616V268ZM62.5937 266.464C60.8817 266.464 59.8897 265.152 59.8897 262.56V261.984C59.8897 259.44 60.8337 258.064 62.5617 258.064C64.2737 258.064 65.2017 259.536 65.2017 261.968V262.528C65.2017 265.12 64.3537 266.464 62.5937 266.464ZM62.5457 268.16C65.5377 268.16 67.3297 265.968 67.3297 262.528V261.952C67.3297 258.512 65.4417 256.4 62.5457 256.4C59.6657 256.4 57.7457 258.528 57.7457 262V262.576C57.7457 266.016 59.6337 268.16 62.5457 268.16Z" fill="#797979"/>
<path d="M106.113 265.111H104.56V262.055H109.394V268.744C109.394 269.369 109.153 269.903 108.672 270.346C108.196 270.782 107.63 271 106.972 271H102.148C101.491 271 100.924 270.782 100.449 270.346C99.9672 269.903 99.7263 269.369 99.7263 268.744V256.732C99.7263 256.107 99.9672 255.574 100.449 255.131C100.924 254.695 101.491 254.477 102.148 254.477H106.972C107.63 254.477 108.196 254.695 108.672 255.131C109.153 255.574 109.394 256.107 109.394 256.732V260.053H106.113V257.533H103.008V267.943H106.113V265.111ZM115.107 258.207V268.1H118.056V258.207H115.107ZM118.877 255.307C119.502 255.307 120.039 255.512 120.488 255.922C120.95 256.345 121.181 256.853 121.181 257.445V268.861C121.181 269.454 120.95 269.958 120.488 270.375C120.039 270.792 119.502 271 118.877 271H114.297C113.672 271 113.131 270.792 112.676 270.375C112.22 269.958 111.992 269.454 111.992 268.861V257.445C111.992 256.853 112.22 256.345 112.676 255.922C113.131 255.512 113.672 255.307 114.297 255.307H118.877ZM127.304 258.207V268.1H128.779C129.762 268.1 130.254 267.758 130.254 267.074V258.207H127.304ZM124.189 255.307H131.074C131.699 255.307 132.236 255.512 132.685 255.922C133.148 256.345 133.379 256.853 133.379 257.445V267.074C133.379 268.272 132.92 269.239 132.002 269.975C131.142 270.658 130.068 271 128.779 271H124.189V255.307ZM142.119 258.207H139.17V260.688C139.17 261.358 139.661 261.693 140.644 261.693C141.933 261.693 143.008 262.038 143.867 262.729C144.785 263.458 145.244 264.421 145.244 265.619V268.861C145.244 269.454 145.013 269.958 144.551 270.375C144.101 270.792 143.564 271 142.939 271H138.359C137.734 271 137.194 270.792 136.738 270.375C136.282 269.958 136.054 269.454 136.054 268.861V265.697H139.17V268.1H142.119V265.619C142.119 264.942 141.627 264.604 140.644 264.604C139.362 264.604 138.291 264.262 137.431 263.578C136.513 262.849 136.054 261.885 136.054 260.688V257.445C136.054 256.853 136.282 256.345 136.738 255.922C137.194 255.512 137.734 255.307 138.359 255.307H142.939C143.564 255.307 144.101 255.512 144.551 255.922C145.013 256.345 145.244 256.853 145.244 257.445V260.6H142.119V258.207ZM151.054 268.1H156.25V271H147.939V255.307H156.25V258.207H151.054V261.693H155.381V264.604H151.054V268.1ZM161.65 260.893V271H158.535V255.307H162.861L165.41 265.463V255.307H168.525V271H164.209L161.65 260.893ZM173.515 258.207H170.468V255.307H179.658V258.207H176.621V271H173.515V258.207Z" fill="#797979"/>
<path d="M245.872 268H250.272C252.784 268 254.192 266.928 254.192 264.8V264.736C254.192 263.216 253.456 262.368 251.904 262.032C253.2 261.632 253.712 260.736 253.712 259.6V259.536C253.712 257.456 252.32 256.56 249.968 256.56H245.872V268ZM247.952 266.48V262.816H249.872C251.44 262.816 252.096 263.408 252.096 264.592V264.656C252.096 265.84 251.44 266.48 250.016 266.48H247.952ZM247.952 261.376V258.08H249.68C251.04 258.08 251.664 258.544 251.664 259.632V259.696C251.664 260.864 251.12 261.376 249.712 261.376H247.952ZM258.824 268.16C260.184 268.16 261.064 267.504 261.48 266.688V268H263.416V259.632H261.48V264.608C261.48 265.936 260.568 266.608 259.528 266.608C258.408 266.608 257.88 266.032 257.88 264.768V259.632H255.944V264.992C255.944 267.216 257.176 268.16 258.824 268.16ZM266.64 270.864H268.544L273.104 259.632H271.216L269.168 265.024L266.944 259.632H264.848L268.16 267.152L266.64 270.864ZM280.624 270.368H282.32C281.024 268.64 279.888 266.32 279.888 262.992C279.888 259.68 281.024 257.344 282.32 255.616H280.624C279.248 257.248 277.968 259.664 277.968 262.992C277.968 266.336 279.248 268.736 280.624 270.368ZM287.775 268.16C290.303 268.16 291.983 266.608 291.983 264.624C291.983 262.336 290.591 261.568 287.903 261.2C285.919 260.912 285.535 260.448 285.535 259.52C285.535 258.64 286.207 258.016 287.503 258.016C288.815 258.016 289.503 258.528 289.711 259.728H291.663C291.439 257.536 289.967 256.416 287.503 256.416C285.119 256.416 283.519 257.824 283.519 259.696C283.519 261.84 284.815 262.672 287.551 263.04C289.407 263.344 289.935 263.744 289.935 264.8C289.935 265.856 289.039 266.56 287.775 266.56C285.839 266.56 285.375 265.6 285.231 264.448H283.183C283.343 266.608 284.655 268.16 287.775 268.16ZM296.732 268.144C297.324 268.144 297.74 268.048 298.044 267.936V266.4C297.772 266.512 297.484 266.56 297.1 266.56C296.492 266.56 296.14 266.224 296.14 265.488V261.088H297.98V259.632H296.14V257.792H294.204V259.632H293.084V261.088H294.204V265.664C294.204 267.248 295.068 268.144 296.732 268.144ZM303.534 266.656C302.062 266.656 301.214 265.584 301.214 263.872V263.744C301.214 262.016 302.094 260.976 303.534 260.976C304.974 260.976 305.838 262.032 305.838 263.76V263.872C305.838 265.584 304.974 266.656 303.534 266.656ZM303.518 268.16C305.982 268.16 307.822 266.464 307.822 263.856V263.728C307.822 261.168 305.982 259.456 303.534 259.456C301.07 259.456 299.23 261.184 299.23 263.776V263.904C299.23 266.448 301.054 268.16 303.518 268.16ZM309.571 270.864H311.507V266.688C311.955 267.504 312.915 268.16 314.243 268.16C316.403 268.16 317.955 266.528 317.955 263.84V263.712C317.955 261.008 316.339 259.456 314.243 259.456C313.011 259.456 311.971 260.176 311.507 260.976V259.632H309.571V270.864ZM313.763 266.624C312.355 266.624 311.443 265.744 311.443 263.872V263.744C311.443 261.888 312.403 260.976 313.747 260.976C315.011 260.976 315.971 261.888 315.971 263.744V263.872C315.971 265.664 315.187 266.624 313.763 266.624ZM318.738 270.336H320.418C321.794 268.704 323.074 266.288 323.074 262.96C323.074 259.616 321.794 257.216 320.418 255.584H318.738C320.018 257.312 321.154 259.632 321.154 262.96C321.154 266.272 320.018 268.608 318.738 270.336Z" fill="#D7D6D5"/>
<path d="M412.591 268H414.735V256.56H412.831L410.175 258.448V260.32L412.591 258.672V268ZM418.436 268.112C419.156 268.112 419.716 267.568 419.716 266.864C419.716 266.16 419.156 265.6 418.436 265.6C417.732 265.6 417.172 266.16 417.172 266.864C417.172 267.568 417.732 268.112 418.436 268.112ZM425.624 266.464C423.912 266.464 422.92 265.152 422.92 262.56V261.984C422.92 259.44 423.864 258.064 425.592 258.064C427.304 258.064 428.232 259.536 428.232 261.968V262.528C428.232 265.12 427.384 266.464 425.624 266.464ZM425.576 268.16C428.568 268.16 430.36 265.968 430.36 262.528V261.952C430.36 258.512 428.472 256.4 425.576 256.4C422.696 256.4 420.776 258.528 420.776 262V262.576C420.776 266.016 422.664 268.16 425.576 268.16ZM441.44 268.16C444.672 268.16 446.656 266.24 446.656 263.072V262.016H441.68V263.616H444.56C444.496 265.2 443.616 266.496 441.472 266.496C439.072 266.496 437.936 264.816 437.936 262.368V262.24C437.936 259.728 439.232 258.064 441.472 258.064C442.96 258.064 443.984 258.72 444.24 260.24H446.368C446.064 257.504 443.888 256.384 441.44 256.384C438.096 256.384 435.728 258.816 435.728 262.224V262.352C435.728 265.728 437.776 268.16 441.44 268.16ZM453.846 268.16C457.078 268.16 459.062 266.24 459.062 263.072V262.016H454.086V263.616H456.966C456.902 265.2 456.022 266.496 453.878 266.496C451.478 266.496 450.342 264.816 450.342 262.368V262.24C450.342 259.728 451.638 258.064 453.878 258.064C455.366 258.064 456.39 258.72 456.646 260.24H458.774C458.47 257.504 456.294 256.384 453.846 256.384C450.502 256.384 448.134 258.816 448.134 262.224V262.352C448.134 265.728 450.182 268.16 453.846 268.16Z" fill="#797979"/>
<path d="M529.297 268.16C531.761 268.16 533.505 266.64 533.505 264.224C533.505 261.824 532.049 260.384 529.985 260.384C528.769 260.384 527.969 260.832 527.521 261.344L527.537 258.24H532.849V256.56H525.905L525.809 262.928H526.897C527.409 262.336 528.113 261.936 529.281 261.936C530.545 261.936 531.345 262.816 531.345 264.192C531.345 265.6 530.593 266.512 529.281 266.512C527.809 266.512 527.377 265.776 527.201 264.72H525.217C525.345 266.688 526.609 268.16 529.297 268.16ZM539.883 266.464C538.171 266.464 537.179 265.152 537.179 262.56V261.984C537.179 259.44 538.123 258.064 539.851 258.064C541.563 258.064 542.491 259.536 542.491 261.968V262.528C542.491 265.12 541.643 266.464 539.883 266.464ZM539.835 268.16C542.827 268.16 544.619 265.968 544.619 262.528V261.952C544.619 258.512 542.731 256.4 539.835 256.4C536.955 256.4 535.035 258.528 535.035 262V262.576C535.035 266.016 536.923 268.16 539.835 268.16ZM548.64 260.704C547.888 260.704 547.408 260.192 547.408 259.216C547.408 258.256 547.888 257.728 548.64 257.728C549.392 257.728 549.856 258.288 549.856 259.216C549.856 260.16 549.392 260.704 548.64 260.704ZM548.624 262C550.192 262 551.408 260.816 551.408 259.2C551.408 257.6 550.176 256.448 548.64 256.448C547.104 256.448 545.84 257.632 545.84 259.232C545.84 260.816 547.056 262 548.624 262ZM547.408 268H548.768L556.128 256.56H554.784L547.408 268ZM554.912 266.864C554.16 266.864 553.68 266.352 553.68 265.376C553.68 264.416 554.16 263.888 554.912 263.888C555.664 263.888 556.128 264.448 556.128 265.376C556.128 266.32 555.664 266.864 554.912 266.864ZM554.896 268.16C556.464 268.16 557.696 266.976 557.696 265.36C557.696 263.76 556.448 262.608 554.912 262.608C553.376 262.608 552.128 263.792 552.128 265.392C552.128 266.976 553.328 268.16 554.896 268.16Z" fill="#797979"/>
<rect x="0.499947" y="237" width="646.5" height="1" fill="#383838"/>
<path fill-rule="evenodd" clip-rule="evenodd" d="M613.979 262C613.979 256.47 618.592 252 624.298 252C630.005 252 634.617 256.47 634.617 262C634.617 267.53 630.005 272 624.298 272C618.592 272 613.979 267.53 613.979 262ZM624.298 260.59L628.003 257L629.458 258.41L625.753 262L629.458 265.59L628.003 267L624.298 263.41L620.594 267L619.139 265.59L622.843 262L619.139 258.41L620.594 257L624.298 260.59Z" fill="#F6A821"/>
<path d="M0 46C0 43.7909 1.79086 42 4 42H643C645.209 42 647 43.7909 647 46V84H0V46Z" fill="#272727"/>
<path d="M15.8228 66.32V58.24H17.0548C19.7428 58.24 20.8628 59.728 20.8628 62.192V62.32C20.8628 64.848 19.6308 66.32 17.0708 66.32H15.8228ZM13.6948 68H17.1348C21.1508 68 23.0868 65.632 23.0868 62.304V62.16C23.0868 58.832 21.1508 56.56 17.1668 56.56H13.6948V68ZM25.596 68H27.596L28.492 65.168H32.86L33.772 68H35.98L32.204 56.56H29.42L25.596 68ZM30.684 58.304L32.364 63.616H28.988L30.684 58.304ZM40.889 68H43.033V58.24H46.217V56.56H37.705V58.24H40.889V68ZM49.9291 68H57.3531V66.32H52.0571V62.976H56.0891V61.376H52.0571V58.24H57.0812V56.56H49.9291V68Z" fill="#797979"/>
<path d="M102.662 68H104.806V58.24H107.99V56.56H99.4782V58.24H102.662V68ZM111.702 68H119.126V66.32H113.83V62.976H117.862V61.376H113.83V58.24H118.854V56.56H111.702V68ZM122.166 68H124.166L125.062 65.168H129.43L130.342 68H132.55L128.774 56.56H125.99L122.166 68ZM127.254 58.304L128.934 63.616H125.558L127.254 58.304ZM136.296 68H138.216V59.36L141.688 68H142.376L145.784 59.36V68H147.912V56.56H145.096L142.152 64.368L139.144 56.56H136.296V68Z" fill="#797979"/>
<path d="M251.12 66.448C249.04 66.448 247.52 64.832 247.52 62.336V62.208C247.52 59.744 248.848 58.096 251.088 58.096C253.328 58.096 254.64 59.84 254.64 62.192V62.32C254.64 64.8 253.28 66.448 251.12 66.448ZM251.088 68.16C254.56 68.16 256.848 65.648 256.848 62.304V62.176C256.848 58.816 254.496 56.4 251.088 56.4C247.696 56.4 245.296 58.88 245.296 62.224V62.352C245.296 65.648 247.584 68.16 251.088 68.16ZM260.903 68H263.031V63.376H264.391L267.383 68H269.687L266.471 63.056C267.895 62.688 269.015 61.776 269.015 59.984V59.92C269.015 57.584 267.255 56.56 264.743 56.56H260.903V68ZM263.031 61.856V58.208H264.743C266.103 58.208 266.919 58.656 266.919 59.968V60.032C266.919 61.248 266.167 61.856 264.743 61.856H263.031ZM275.515 66.32V58.24H276.747C279.435 58.24 280.555 59.728 280.555 62.192V62.32C280.555 64.848 279.323 66.32 276.763 66.32H275.515ZM273.387 68H276.827C280.843 68 282.779 65.632 282.779 62.304V62.16C282.779 58.832 280.843 56.56 276.859 56.56H273.387V68ZM286.809 68H294.233V66.32H288.937V62.976H292.969V61.376H288.937V58.24H293.961V56.56H286.809V68ZM298.153 68H300.281V63.376H301.641L304.633 68H306.937L303.721 63.056C305.145 62.688 306.265 61.776 306.265 59.984V59.92C306.265 57.584 304.505 56.56 301.993 56.56H298.153V68ZM300.281 61.856V58.208H301.993C303.353 58.208 304.169 58.656 304.169 59.968V60.032C304.169 61.248 303.417 61.856 301.993 61.856H300.281ZM318.738 68H320.882V58.24H324.066V56.56H315.554V58.24H318.738V68ZM330.686 68H332.83V63.056L336.414 56.56H334.334L331.822 61.296L329.246 56.56H326.894L330.686 63.04V68ZM339.997 68H342.125V63.648H343.725C346.173 63.648 347.917 62.576 347.917 60.16V60.096C347.917 57.696 346.237 56.56 343.677 56.56H339.997V68ZM342.125 62.112V58.208H343.677C345.037 58.208 345.837 58.736 345.837 60.096V60.16C345.837 61.424 345.085 62.112 343.677 62.112H342.125ZM351.747 68H359.171V66.32H353.875V62.976H357.907V61.376H353.875V58.24H358.899V56.56H351.747V68Z" fill="#797979"/>
<path d="M413.887 68H416.351L420.223 56.56H418.223L415.231 65.84L412.255 56.56H410.031L413.887 68ZM428.661 66.448C426.581 66.448 425.061 64.832 425.061 62.336V62.208C425.061 59.744 426.389 58.096 428.629 58.096C430.869 58.096 432.181 59.84 432.181 62.192V62.32C432.181 64.8 430.821 66.448 428.661 66.448ZM428.629 68.16C432.101 68.16 434.389 65.648 434.389 62.304V62.176C434.389 58.816 432.037 56.4 428.629 56.4C425.237 56.4 422.837 58.88 422.837 62.224V62.352C422.837 65.648 425.125 68.16 428.629 68.16ZM438.444 68H445.452V66.304H440.572V56.56H438.444V68ZM453.344 68.16C456.368 68.16 457.984 66.512 457.984 63.52V56.56H455.84V63.344C455.84 65.712 455.008 66.448 453.36 66.448C451.664 66.448 450.992 65.584 450.992 63.488V56.56H448.848V63.648C448.848 66.592 450.48 68.16 453.344 68.16ZM462.507 68H464.427V59.36L467.899 68H468.587L471.995 59.36V68H474.123V56.56H471.307L468.363 64.368L465.355 56.56H462.507V68ZM478.741 68H486.165V66.32H480.869V62.976H484.901V61.376H480.869V58.24H485.893V56.56H478.741V68Z" fill="#797979"/>
<path d="M527.702 68H529.734L532.054 59.664L534.31 68H536.438L539.302 56.56H537.318L535.27 65.008L532.998 56.56H531.238L529.014 64.96L527.03 56.56H524.854L527.702 68ZM543.095 68H545.239V56.56H543.095V68ZM549.937 68H551.873V59.232L557.025 68H559.233V56.56H557.297V64.832L552.481 56.56H549.937V68ZM571.64 60.704C570.888 60.704 570.408 60.192 570.408 59.216C570.408 58.256 570.888 57.728 571.64 57.728C572.392 57.728 572.856 58.288 572.856 59.216C572.856 60.16 572.392 60.704 571.64 60.704ZM571.624 62C573.192 62 574.408 60.816 574.408 59.2C574.408 57.6 573.176 56.448 571.64 56.448C570.104 56.448 568.84 57.632 568.84 59.232C568.84 60.816 570.056 62 571.624 62ZM570.408 68H571.768L579.128 56.56H577.784L570.408 68ZM577.912 66.864C577.16 66.864 576.68 66.352 576.68 65.376C576.68 64.416 577.16 63.888 577.912 63.888C578.664 63.888 579.128 64.448 579.128 65.376C579.128 66.32 578.664 66.864 577.912 66.864ZM577.896 68.16C579.464 68.16 580.696 66.976 580.696 65.36C580.696 63.76 579.448 62.608 577.912 62.608C576.376 62.608 575.128 63.792 575.128 65.392C575.128 66.976 576.328 68.16 577.896 68.16Z" fill="#797979"/>
<path d="M5.08 17H7.76V10.82L12.24 2.7H9.64L6.5 8.62L3.28 2.7H0.34L5.08 10.8V17ZM17.0966 15.32C15.2566 15.32 14.1966 13.98 14.1966 11.84V11.68C14.1966 9.52 15.2966 8.22 17.0966 8.22C18.8966 8.22 19.9766 9.54 19.9766 11.7V11.84C19.9766 13.98 18.8966 15.32 17.0966 15.32ZM17.0766 17.2C20.1566 17.2 22.4566 15.08 22.4566 11.82V11.66C22.4566 8.46 20.1566 6.32 17.0966 6.32C14.0166 6.32 11.7166 8.48 11.7166 11.72V11.88C11.7166 15.06 13.9966 17.2 17.0766 17.2ZM28.1431 17.2C29.8431 17.2 30.9431 16.38 31.4631 15.36V17H33.8831V6.54H31.4631V12.76C31.4631 14.42 30.3231 15.26 29.0231 15.26C27.6231 15.26 26.9631 14.54 26.9631 12.96V6.54H24.5431V13.24C24.5431 16.02 26.0831 17.2 28.1431 17.2ZM36.7525 17H39.1725V11.56C39.1725 9.34 40.4525 8.66 42.5725 8.64V6.38C40.8125 6.4 39.8325 7.18 39.1725 8.5V6.54H36.7525V17ZM56.2273 15.06C53.6273 15.06 51.7273 13.04 51.7273 9.92V9.76C51.7273 6.68 53.3873 4.62 56.1873 4.62C58.9873 4.62 60.6273 6.8 60.6273 9.74V9.9C60.6273 13 58.9273 15.06 56.2273 15.06ZM56.1873 17.2C60.5273 17.2 63.3873 14.06 63.3873 9.88V9.72C63.3873 5.52 60.4473 2.5 56.1873 2.5C51.9473 2.5 48.9473 5.6 48.9473 9.78V9.94C48.9473 14.06 51.8073 17.2 56.1873 17.2ZM65.7564 20.58H68.1764V15.36C68.7364 16.38 69.9364 17.2 71.5964 17.2C74.2964 17.2 76.2364 15.16 76.2364 11.8V11.64C76.2364 8.26 74.2164 6.32 71.5964 6.32C70.0564 6.32 68.7564 7.22 68.1764 8.22V6.54H65.7564V20.58ZM70.9964 15.28C69.2364 15.28 68.0964 14.18 68.0964 11.84V11.68C68.0964 9.36 69.2964 8.22 70.9764 8.22C72.5564 8.22 73.7564 9.36 73.7564 11.68V11.84C73.7564 14.08 72.7764 15.28 70.9964 15.28ZM83.0127 17.2C85.6927 17.2 87.4727 16 87.8127 13.8H85.4727C85.2927 14.82 84.5327 15.4 83.0727 15.4C81.2727 15.4 80.2727 14.28 80.1927 12.3H87.8527V11.6C87.8527 7.86 85.5127 6.32 82.9127 6.32C79.9327 6.32 77.7127 8.48 77.7127 11.72V11.88C77.7127 15.18 79.9327 17.2 83.0127 17.2ZM80.2327 10.68C80.4727 9.06 81.4527 8.08 82.9127 8.08C84.4127 8.08 85.3327 8.88 85.4527 10.68H80.2327ZM90.0142 17H92.4342V10.84C92.4342 9.18 93.5342 8.34 94.8942 8.34C96.3342 8.34 96.9742 9.06 96.9742 10.64V17H99.3942V10.42C99.3942 7.54 97.9142 6.32 95.8142 6.32C94.0942 6.32 92.9342 7.18 92.4342 8.2V6.54H90.0142V17ZM113.708 15.06C111.108 15.06 109.208 13.04 109.208 9.92V9.76C109.208 6.68 110.868 4.62 113.668 4.62C116.468 4.62 118.108 6.8 118.108 9.74V9.9C118.108 13 116.408 15.06 113.708 15.06ZM113.668 17.2C118.008 17.2 120.868 14.06 120.868 9.88V9.72C120.868 5.52 117.928 2.5 113.668 2.5C109.428 2.5 106.428 5.6 106.428 9.78V9.94C106.428 14.06 109.288 17.2 113.668 17.2ZM123.237 17H125.657V11.56C125.657 9.34 126.937 8.66 129.057 8.64V6.38C127.297 6.4 126.317 7.18 125.657 8.5V6.54H123.237V17ZM134.911 17.2C136.451 17.2 137.791 16.28 138.351 15.24V17H140.771V1.7H138.351V8.14C137.771 7.1 136.711 6.32 135.011 6.32C132.291 6.32 130.311 8.44 130.311 11.78V11.94C130.311 15.34 132.291 17.2 134.911 17.2ZM135.511 15.28C133.951 15.28 132.791 14.18 132.791 11.88V11.72C132.791 9.46 133.831 8.22 135.611 8.22C137.371 8.22 138.431 9.36 138.431 11.66V11.82C138.431 14.16 137.191 15.28 135.511 15.28ZM148.247 17.2C150.927 17.2 152.707 16 153.047 13.8H150.707C150.527 14.82 149.767 15.4 148.307 15.4C146.507 15.4 145.507 14.28 145.427 12.3H153.087V11.6C153.087 7.86 150.747 6.32 148.147 6.32C145.167 6.32 142.947 8.48 142.947 11.72V11.88C142.947 15.18 145.167 17.2 148.247 17.2ZM145.467 10.68C145.707 9.06 146.687 8.08 148.147 8.08C149.647 8.08 150.567 8.88 150.687 10.68H145.467ZM155.249 17H157.669V11.56C157.669 9.34 158.949 8.66 161.069 8.64V6.38C159.309 6.4 158.329 7.18 157.669 8.5V6.54H155.249V17ZM166.778 17.2C169.458 17.2 170.958 15.98 170.958 13.86C170.958 11.64 169.498 11.04 167.038 10.66C165.378 10.38 164.878 10.08 164.878 9.32C164.878 8.58 165.498 8.08 166.538 8.08C167.658 8.08 168.198 8.52 168.398 9.48H170.638C170.378 7.12 168.678 6.32 166.538 6.32C164.578 6.32 162.618 7.36 162.618 9.46C162.618 11.42 163.638 12.2 166.398 12.64C167.938 12.9 168.638 13.22 168.638 14.08C168.638 14.96 168.058 15.42 166.758 15.42C165.338 15.42 164.798 14.8 164.678 13.74H162.398C162.498 15.96 164.078 17.2 166.778 17.2Z" fill="#D7D6D5"/>
<path d="M196.55 16.14C198.762 16.14 200.232 14.782 200.232 13.046C200.232 11.044 199.014 10.372 196.662 10.05C194.926 9.798 194.59 9.392 194.59 8.58C194.59 7.81 195.178 7.264 196.312 7.264C197.46 7.264 198.062 7.712 198.244 8.762H199.952C199.756 6.844 198.468 5.864 196.312 5.864C194.226 5.864 192.826 7.096 192.826 8.734C192.826 10.61 193.96 11.338 196.354 11.66C197.978 11.926 198.44 12.276 198.44 13.2C198.44 14.124 197.656 14.74 196.55 14.74C194.856 14.74 194.45 13.9 194.324 12.892H192.532C192.672 14.782 193.82 16.14 196.55 16.14ZM204.035 16H210.531V14.53H205.897V11.604H209.425V10.204H205.897V7.46H210.293V5.99H204.035V16ZM214.211 16H220.707V14.53H216.073V11.604H219.601V10.204H216.073V7.46H220.469V5.99H214.211V16ZM228.952 16H230.702L231.486 13.522H235.308L236.106 16H238.038L234.734 5.99H232.298L228.952 16ZM233.404 7.516L234.874 12.164H231.92L233.404 7.516ZM241.566 16H247.698V14.516H243.428V5.99H241.566V16ZM251.277 16H257.409V14.516H253.139V5.99H251.277V16Z" fill="#F6A821"/>
</svg>
