<svg width="1294" height="643" viewBox="0 0 1294 643" fill="none" xmlns="http://www.w3.org/2000/svg">
<path d="M613.5 563V565H615.5H644V600.5H47V299.5H51.5V306V308H53.5H61.5V309.5V311.5H63.5H70V312V314H72H79V322.5V324.5H81H95.5H124.5H140.264L147.711 339.394L148.264 340.5H149.5H168.5V351.5V353.5H170.5H219.98L241.025 365.246L241.48 365.5H242H271.5V413.5V415.5H273.5H292.785L311.731 431.046L311.96 431.234L312.232 431.347L350.732 447.347L351.101 447.5H351.5H385.88L394.795 462.045L395.38 463H396.5H422V498V499.755L423.74 499.983L484.74 507.983L484.869 508H485H505.5V523V525H507.5H524.5H557.653L564.647 542.251L565.153 543.5H566.5H613.5V563Z" fill="#72CE08" fill-opacity="0.1" stroke="#72CE08" stroke-width="4"/>
<path d="M680.885 546.793V548.793H678.885H648V601H1292V171H1286.84V181.095V183.095H1284.84H1276.05V186.075V188.075H1274.05H1266.89V189.633V191.633H1264.89H1257.18V204.574V206.574H1255.18H1239.55H1208.28H1191.33L1183.2 228.05L1182.71 229.341H1181.33H1160.69V245.839V247.839H1158.69H1105.43L1082.78 264.525L1082.25 264.915H1081.59H1049.63V334.062V336.062H1047.63H1026.94L1006.51 358.186L1006.29 358.426L1006 358.583L964.493 381.35L964.043 381.597H963.531H926.531L916.826 402.495L916.288 403.652H915.012H887.361V454.302V455.985L885.702 456.272L819.932 467.656L819.763 467.685H819.591H797.331V489.875V491.875H795.331H777.002H741.281L733.629 516.787L733.195 518.2H731.717H680.885V546.793Z" fill="#F66121" fill-opacity="0.1" stroke="#F66121" stroke-width="4"/>
<g opacity="0.5">
<rect x="72" y="437" width="20" height="166" fill="#151515"/>
<rect x="72" y="437" width="20" height="166" stroke="#72CE08"/>
<rect x="134" y="530" width="20" height="73" fill="#151515"/>
<rect x="134" y="530" width="20" height="73" stroke="#F66121"/>
<rect x="196" y="497" width="20" height="106" fill="#151515"/>
<rect x="196" y="497" width="20" height="106" stroke="#72CE08"/>
<rect x="258" y="544" width="20" height="59" fill="#151515"/>
<rect x="258" y="544" width="20" height="59" stroke="#F66121"/>
<rect x="320" y="572" width="20" height="31" fill="#151515"/>
<rect x="320" y="572" width="20" height="31" stroke="#72CE08"/>
<rect x="382" y="572" width="20" height="31" fill="#151515"/>
<rect x="382" y="572" width="20" height="31" stroke="#72CE08"/>
<rect x="697" y="570" width="20" height="33" fill="#151515"/>
<rect x="697" y="570" width="20" height="33" stroke="#F66121"/>
<rect x="751" y="542" width="20" height="61" fill="#151515"/>
<rect x="751" y="542" width="20" height="61" stroke="#F66121"/>
<rect x="848" y="493" width="20" height="110" fill="#151515"/>
<rect x="848" y="493" width="20" height="110" stroke="#F66121"/>
<rect x="945" y="542" width="20" height="61" fill="#151515"/>
<rect x="945" y="542" width="20" height="61" stroke="#72CE08"/>
<rect x="1042" y="416" width="20" height="187" fill="#151515"/>
<rect x="1042" y="416" width="20" height="187" stroke="#72CE08"/>
<rect x="1139" y="451" width="20" height="152" fill="#151515"/>
<rect x="1139" y="451" width="20" height="152" stroke="#72CE08"/>
<rect x="1236" y="249" width="20" height="354" fill="#151515"/>
<rect x="1236" y="249" width="20" height="354" stroke="#F66121"/>
</g>
<path d="M46.5762 145V601H1292.99" stroke="#797979" stroke-width="4"/>
<path d="M1.64652 162H11.9865V159.94H5.90652L9.08652 156.84C10.7865 155.2 11.8865 153.58 11.8865 151.72C11.8865 149.2 10.1265 147.5 7.16652 147.5C4.14652 147.5 2.26652 149.3 2.08652 152.42H4.52652C4.76652 150.4 5.66652 149.58 7.08652 149.58C8.46652 149.58 9.22652 150.42 9.22652 151.76C9.22652 153.12 8.40652 154.38 7.04652 155.82L1.64652 161.52V162ZM18.729 162.2C21.809 162.2 23.989 160.3 23.989 157.28C23.989 154.28 22.169 152.48 19.589 152.48C18.069 152.48 17.069 153.04 16.509 153.68L16.529 149.8H23.169V147.7H14.489L14.369 155.66H15.729C16.369 154.92 17.249 154.42 18.709 154.42C20.289 154.42 21.289 155.52 21.289 157.24C21.289 159 20.349 160.14 18.709 160.14C16.869 160.14 16.329 159.22 16.109 157.9H13.629C13.789 160.36 15.369 162.2 18.729 162.2Z" fill="#797979"/>
<path d="M0.718613 249H11.0586V246.94H4.97861L8.15861 243.84C9.85861 242.2 10.9586 240.58 10.9586 238.72C10.9586 236.2 9.19861 234.5 6.23861 234.5C3.21861 234.5 1.33861 236.3 1.15861 239.42H3.59861C3.83861 237.4 4.73861 236.58 6.15861 236.58C7.53861 236.58 8.29861 237.42 8.29861 238.76C8.29861 240.12 7.47861 241.38 6.11861 242.82L0.718613 248.52V249ZM18.9635 247.08C16.8235 247.08 15.5835 245.44 15.5835 242.2V241.48C15.5835 238.3 16.7635 236.58 18.9235 236.58C21.0635 236.58 22.2235 238.42 22.2235 241.46V242.16C22.2235 245.4 21.1635 247.08 18.9635 247.08ZM18.9035 249.2C22.6435 249.2 24.8835 246.46 24.8835 242.16V241.44C24.8835 237.14 22.5235 234.5 18.9035 234.5C15.3035 234.5 12.9035 237.16 12.9035 241.5V242.22C12.9035 246.52 15.2635 249.2 18.9035 249.2Z" fill="#797979"/>
<path d="M7.10396 336H9.78396V321.7H7.40396L4.08396 324.06V326.4L7.10396 324.34V336ZM17.6429 336.2C20.7229 336.2 22.9029 334.3 22.9029 331.28C22.9029 328.28 21.0829 326.48 18.5029 326.48C16.9829 326.48 15.9829 327.04 15.4229 327.68L15.4429 323.8H22.0829V321.7H13.4029L13.2829 329.66H14.6429C15.2829 328.92 16.1629 328.42 17.6229 328.42C19.2029 328.42 20.2029 329.52 20.2029 331.24C20.2029 333 19.2629 334.14 17.6229 334.14C15.7829 334.14 15.2429 333.22 15.0229 331.9H12.5429C12.7029 334.36 14.2829 336.2 17.6429 336.2Z" fill="#797979"/>
<path d="M6.12819 423H8.80819V408.7H6.42819L3.10819 411.06V413.4L6.12819 411.34V423ZM17.9271 421.08C15.7871 421.08 14.5471 419.44 14.5471 416.2V415.48C14.5471 412.3 15.7271 410.58 17.8871 410.58C20.0271 410.58 21.1871 412.42 21.1871 415.46V416.16C21.1871 419.4 20.1271 421.08 17.9271 421.08ZM17.8671 423.2C21.6071 423.2 23.8471 420.46 23.8471 416.16V415.44C23.8471 411.14 21.4871 408.5 17.8671 408.5C14.2671 408.5 11.8671 411.16 11.8671 415.5V416.22C11.8671 420.52 14.2271 423.2 17.8671 423.2Z" fill="#797979"/>
<path d="M13.4541 510.2C16.5341 510.2 18.7141 508.3 18.7141 505.28C18.7141 502.28 16.8941 500.48 14.3141 500.48C12.7941 500.48 11.7941 501.04 11.2341 501.68L11.2541 497.8H17.8941V495.7H9.21411L9.09411 503.66H10.4541C11.0941 502.92 11.9741 502.42 13.4341 502.42C15.0141 502.42 16.0141 503.52 16.0141 505.24C16.0141 507 15.0741 508.14 13.4341 508.14C11.5941 508.14 11.0541 507.22 10.8341 505.9H8.35411C8.51411 508.36 10.0941 510.2 13.4541 510.2Z" fill="#797979"/>
<path d="M13.7374 595.08C11.5974 595.08 10.3574 593.44 10.3574 590.2V589.48C10.3574 586.3 11.5374 584.58 13.6974 584.58C15.8374 584.58 16.9974 586.42 16.9974 589.46V590.16C16.9974 593.4 15.9374 595.08 13.7374 595.08ZM13.6774 597.2C17.4174 597.2 19.6574 594.46 19.6574 590.16V589.44C19.6574 585.14 17.2974 582.5 13.6774 582.5C10.0774 582.5 7.67737 585.16 7.67737 589.5V590.22C7.67737 594.52 10.0374 597.2 13.6774 597.2Z" fill="#797979"/>
<path d="M50.8352 636.08C48.6952 636.08 47.4552 634.44 47.4552 631.2V630.48C47.4552 627.3 48.6352 625.58 50.7952 625.58C52.9352 625.58 54.0952 627.42 54.0952 630.46V631.16C54.0952 634.4 53.0352 636.08 50.8352 636.08ZM50.7752 638.2C54.5152 638.2 56.7552 635.46 56.7552 631.16V630.44C56.7552 626.14 54.3952 623.5 50.7752 623.5C47.1752 623.5 44.7752 626.16 44.7752 630.5V631.22C44.7752 635.52 47.1352 638.2 50.7752 638.2ZM61.781 628.88C60.841 628.88 60.241 628.24 60.241 627.02C60.241 625.82 60.841 625.16 61.781 625.16C62.721 625.16 63.301 625.86 63.301 627.02C63.301 628.2 62.721 628.88 61.781 628.88ZM61.761 630.5C63.721 630.5 65.241 629.02 65.241 627C65.241 625 63.701 623.56 61.781 623.56C59.861 623.56 58.281 625.04 58.281 627.04C58.281 629.02 59.801 630.5 61.761 630.5ZM60.241 638H61.941L71.141 623.7H69.461L60.241 638ZM69.621 636.58C68.681 636.58 68.081 635.94 68.081 634.72C68.081 633.52 68.681 632.86 69.621 632.86C70.561 632.86 71.141 633.56 71.141 634.72C71.141 635.9 70.561 636.58 69.621 636.58ZM69.601 638.2C71.561 638.2 73.101 636.72 73.101 634.7C73.101 632.7 71.541 631.26 69.621 631.26C67.701 631.26 66.141 632.74 66.141 634.74C66.141 636.72 67.641 638.2 69.601 638.2Z" fill="#797979"/>
<path d="M156.122 638H158.802V623.7H156.422L153.102 626.06V628.4L156.122 626.34V638ZM167.921 636.08C165.781 636.08 164.541 634.44 164.541 631.2V630.48C164.541 627.3 165.721 625.58 167.881 625.58C170.021 625.58 171.181 627.42 171.181 630.46V631.16C171.181 634.4 170.121 636.08 167.921 636.08ZM167.861 638.2C171.601 638.2 173.841 635.46 173.841 631.16V630.44C173.841 626.14 171.481 623.5 167.861 623.5C164.261 623.5 161.861 626.16 161.861 630.5V631.22C161.861 635.52 164.221 638.2 167.861 638.2ZM178.867 628.88C177.927 628.88 177.327 628.24 177.327 627.02C177.327 625.82 177.927 625.16 178.867 625.16C179.807 625.16 180.387 625.86 180.387 627.02C180.387 628.2 179.807 628.88 178.867 628.88ZM178.847 630.5C180.807 630.5 182.327 629.02 182.327 627C182.327 625 180.787 623.56 178.867 623.56C176.947 623.56 175.367 625.04 175.367 627.04C175.367 629.02 176.887 630.5 178.847 630.5ZM177.327 638H179.027L188.227 623.7H186.547L177.327 638ZM186.707 636.58C185.767 636.58 185.167 635.94 185.167 634.72C185.167 633.52 185.767 632.86 186.707 632.86C187.647 632.86 188.227 633.56 188.227 634.72C188.227 635.9 187.647 636.58 186.707 636.58ZM186.687 638.2C188.647 638.2 190.187 636.72 190.187 634.7C190.187 632.7 188.627 631.26 186.707 631.26C184.787 631.26 183.227 632.74 183.227 634.74C183.227 636.72 184.727 638.2 186.687 638.2Z" fill="#797979"/>
<path d="M760.375 638.2C763.615 638.2 765.655 636.24 765.655 633.34C765.655 630.56 763.695 628.68 760.955 628.68C759.255 628.68 758.075 629.42 757.415 630.52C757.495 627.26 758.755 625.56 760.675 625.56C762.055 625.56 762.615 626.2 762.875 627.28H765.355C765.015 624.78 763.295 623.5 760.695 623.5C757.275 623.5 754.775 626.2 754.775 631.16V631.5C754.775 635.28 756.215 638.2 760.375 638.2ZM760.335 636.24C758.715 636.24 757.575 635.14 757.575 633.24C757.575 631.66 758.715 630.52 760.335 630.52C761.975 630.52 763.015 631.68 763.015 633.4C763.015 635.1 761.935 636.24 760.335 636.24ZM773.55 636.08C771.41 636.08 770.17 634.44 770.17 631.2V630.48C770.17 627.3 771.35 625.58 773.51 625.58C775.65 625.58 776.81 627.42 776.81 630.46V631.16C776.81 634.4 775.75 636.08 773.55 636.08ZM773.49 638.2C777.23 638.2 779.47 635.46 779.47 631.16V630.44C779.47 626.14 777.11 623.5 773.49 623.5C769.89 623.5 767.49 626.16 767.49 630.5V631.22C767.49 635.52 769.85 638.2 773.49 638.2ZM784.496 628.88C783.556 628.88 782.956 628.24 782.956 627.02C782.956 625.82 783.556 625.16 784.496 625.16C785.436 625.16 786.016 625.86 786.016 627.02C786.016 628.2 785.436 628.88 784.496 628.88ZM784.476 630.5C786.436 630.5 787.956 629.02 787.956 627C787.956 625 786.416 623.56 784.496 623.56C782.576 623.56 780.996 625.04 780.996 627.04C780.996 629.02 782.516 630.5 784.476 630.5ZM782.956 638H784.656L793.856 623.7H792.176L782.956 638ZM792.336 636.58C791.396 636.58 790.796 635.94 790.796 634.72C790.796 633.52 791.396 632.86 792.336 632.86C793.276 632.86 793.856 633.56 793.856 634.72C793.856 635.9 793.276 636.58 792.336 636.58ZM792.316 638.2C794.276 638.2 795.816 636.72 795.816 634.7C795.816 632.7 794.256 631.26 792.336 631.26C790.416 631.26 788.856 632.74 788.856 634.74C788.856 636.72 790.356 638.2 792.316 638.2Z" fill="#797979"/>
<path d="M270.19 638H280.53V635.94H274.45L277.63 632.84C279.33 631.2 280.43 629.58 280.43 627.72C280.43 625.2 278.67 623.5 275.71 623.5C272.69 623.5 270.81 625.3 270.63 628.42H273.07C273.31 626.4 274.21 625.58 275.63 625.58C277.01 625.58 277.77 626.42 277.77 627.76C277.77 629.12 276.95 630.38 275.59 631.82L270.19 637.52V638ZM288.435 636.08C286.295 636.08 285.055 634.44 285.055 631.2V630.48C285.055 627.3 286.235 625.58 288.395 625.58C290.535 625.58 291.695 627.42 291.695 630.46V631.16C291.695 634.4 290.635 636.08 288.435 636.08ZM288.375 638.2C292.115 638.2 294.355 635.46 294.355 631.16V630.44C294.355 626.14 291.995 623.5 288.375 623.5C284.775 623.5 282.375 626.16 282.375 630.5V631.22C282.375 635.52 284.735 638.2 288.375 638.2ZM299.38 628.88C298.44 628.88 297.84 628.24 297.84 627.02C297.84 625.82 298.44 625.16 299.38 625.16C300.32 625.16 300.9 625.86 300.9 627.02C300.9 628.2 300.32 628.88 299.38 628.88ZM299.36 630.5C301.32 630.5 302.84 629.02 302.84 627C302.84 625 301.3 623.56 299.38 623.56C297.46 623.56 295.88 625.04 295.88 627.04C295.88 629.02 297.4 630.5 299.36 630.5ZM297.84 638H299.54L308.74 623.7H307.06L297.84 638ZM307.22 636.58C306.28 636.58 305.68 635.94 305.68 634.72C305.68 633.52 306.28 632.86 307.22 632.86C308.16 632.86 308.74 633.56 308.74 634.72C308.74 635.9 308.16 636.58 307.22 636.58ZM307.2 638.2C309.16 638.2 310.7 636.72 310.7 634.7C310.7 632.7 309.14 631.26 307.22 631.26C305.3 631.26 303.74 632.74 303.74 634.74C303.74 636.72 305.24 638.2 307.2 638.2Z" fill="#797979"/>
<path d="M877.988 638H880.728L885.928 624.02V623.7H875.928V625.86H882.588L877.988 638ZM892.936 636.08C890.796 636.08 889.556 634.44 889.556 631.2V630.48C889.556 627.3 890.736 625.58 892.896 625.58C895.036 625.58 896.196 627.42 896.196 630.46V631.16C896.196 634.4 895.136 636.08 892.936 636.08ZM892.876 638.2C896.616 638.2 898.856 635.46 898.856 631.16V630.44C898.856 626.14 896.496 623.5 892.876 623.5C889.276 623.5 886.876 626.16 886.876 630.5V631.22C886.876 635.52 889.236 638.2 892.876 638.2ZM903.882 628.88C902.942 628.88 902.342 628.24 902.342 627.02C902.342 625.82 902.942 625.16 903.882 625.16C904.822 625.16 905.402 625.86 905.402 627.02C905.402 628.2 904.822 628.88 903.882 628.88ZM903.862 630.5C905.822 630.5 907.342 629.02 907.342 627C907.342 625 905.802 623.56 903.882 623.56C901.962 623.56 900.382 625.04 900.382 627.04C900.382 629.02 901.902 630.5 903.862 630.5ZM902.342 638H904.042L913.242 623.7H911.562L902.342 638ZM911.722 636.58C910.782 636.58 910.182 635.94 910.182 634.72C910.182 633.52 910.782 632.86 911.722 632.86C912.662 632.86 913.242 633.56 913.242 634.72C913.242 635.9 912.662 636.58 911.722 636.58ZM911.702 638.2C913.662 638.2 915.202 636.72 915.202 634.7C915.202 632.7 913.642 631.26 911.722 631.26C909.802 631.26 908.242 632.74 908.242 634.74C908.242 636.72 909.742 638.2 911.702 638.2Z" fill="#797979"/>
<path d="M396.467 638.2C399.747 638.2 401.827 636.56 401.827 633.92C401.827 632.02 400.727 630.84 399.067 630.46C400.447 629.94 401.387 628.96 401.387 627.34C401.387 625.22 399.647 623.5 396.667 623.5C393.607 623.5 391.747 625.4 391.607 627.88H393.967C394.127 626.44 395.107 625.52 396.627 625.52C398.107 625.52 398.847 626.38 398.847 627.54C398.847 628.88 398.107 629.64 396.467 629.64H395.447V631.54H396.547C398.287 631.54 399.127 632.32 399.127 633.88C399.127 635.3 398.267 636.2 396.407 636.2C394.487 636.2 393.647 635.08 393.507 633.58H391.087C391.207 636.32 393.067 638.2 396.467 638.2ZM409.928 636.08C407.788 636.08 406.548 634.44 406.548 631.2V630.48C406.548 627.3 407.728 625.58 409.888 625.58C412.028 625.58 413.188 627.42 413.188 630.46V631.16C413.188 634.4 412.128 636.08 409.928 636.08ZM409.868 638.2C413.608 638.2 415.848 635.46 415.848 631.16V630.44C415.848 626.14 413.488 623.5 409.868 623.5C406.268 623.5 403.868 626.16 403.868 630.5V631.22C403.868 635.52 406.228 638.2 409.868 638.2ZM420.874 628.88C419.934 628.88 419.334 628.24 419.334 627.02C419.334 625.82 419.934 625.16 420.874 625.16C421.814 625.16 422.394 625.86 422.394 627.02C422.394 628.2 421.814 628.88 420.874 628.88ZM420.854 630.5C422.814 630.5 424.334 629.02 424.334 627C424.334 625 422.794 623.56 420.874 623.56C418.954 623.56 417.374 625.04 417.374 627.04C417.374 629.02 418.894 630.5 420.854 630.5ZM419.334 638H421.034L430.234 623.7H428.554L419.334 638ZM428.714 636.58C427.774 636.58 427.174 635.94 427.174 634.72C427.174 633.52 427.774 632.86 428.714 632.86C429.654 632.86 430.234 633.56 430.234 634.72C430.234 635.9 429.654 636.58 428.714 636.58ZM428.694 638.2C430.654 638.2 432.194 636.72 432.194 634.7C432.194 632.7 430.634 631.26 428.714 631.26C426.794 631.26 425.234 632.74 425.234 634.74C425.234 636.72 426.734 638.2 428.694 638.2Z" fill="#797979"/>
<path d="M1001.2 638.2C1004.08 638.2 1006.52 636.7 1006.52 633.88C1006.52 632.14 1005.54 630.9 1003.86 630.3C1005.14 629.74 1005.98 628.76 1005.98 627.3C1005.98 624.94 1003.76 623.5 1001.2 623.5C998.721 623.5 996.401 624.92 996.401 627.34C996.401 628.76 997.201 629.8 998.521 630.32C996.921 630.88 995.841 632.14 995.841 633.96C995.841 636.76 998.361 638.2 1001.2 638.2ZM1001.2 636.2C999.761 636.2 998.521 635.34 998.521 633.74C998.521 632.14 999.761 631.28 1001.22 631.28C1002.7 631.28 1003.86 632.14 1003.86 633.72C1003.86 635.32 1002.72 636.2 1001.2 636.2ZM1001.24 629.54C1000 629.54 998.941 628.78 998.941 627.48C998.941 626.2 999.941 625.42 1001.2 625.42C1002.48 625.42 1003.46 626.24 1003.46 627.46C1003.46 628.76 1002.54 629.54 1001.24 629.54ZM1014.34 636.08C1012.2 636.08 1010.96 634.44 1010.96 631.2V630.48C1010.96 627.3 1012.14 625.58 1014.3 625.58C1016.44 625.58 1017.6 627.42 1017.6 630.46V631.16C1017.6 634.4 1016.54 636.08 1014.34 636.08ZM1014.28 638.2C1018.02 638.2 1020.26 635.46 1020.26 631.16V630.44C1020.26 626.14 1017.9 623.5 1014.28 623.5C1010.68 623.5 1008.28 626.16 1008.28 630.5V631.22C1008.28 635.52 1010.64 638.2 1014.28 638.2ZM1025.29 628.88C1024.35 628.88 1023.75 628.24 1023.75 627.02C1023.75 625.82 1024.35 625.16 1025.29 625.16C1026.23 625.16 1026.81 625.86 1026.81 627.02C1026.81 628.2 1026.23 628.88 1025.29 628.88ZM1025.27 630.5C1027.23 630.5 1028.75 629.02 1028.75 627C1028.75 625 1027.21 623.56 1025.29 623.56C1023.37 623.56 1021.79 625.04 1021.79 627.04C1021.79 629.02 1023.31 630.5 1025.27 630.5ZM1023.75 638H1025.45L1034.65 623.7H1032.97L1023.75 638ZM1033.13 636.58C1032.19 636.58 1031.59 635.94 1031.59 634.72C1031.59 633.52 1032.19 632.86 1033.13 632.86C1034.07 632.86 1034.65 633.56 1034.65 634.72C1034.65 635.9 1034.07 636.58 1033.13 636.58ZM1033.11 638.2C1035.07 638.2 1036.61 636.72 1036.61 634.7C1036.61 632.7 1035.05 631.26 1033.13 631.26C1031.21 631.26 1029.65 632.74 1029.65 634.74C1029.65 636.72 1031.15 638.2 1033.11 638.2Z" fill="#797979"/>
<path d="M519.463 638H522.043V635.1H523.963V633.12H522.043V623.7H518.703L512.383 634.16V635.1H519.463V638ZM515.223 633.12L519.503 625.72V633.12H515.223ZM531.558 636.08C529.418 636.08 528.178 634.44 528.178 631.2V630.48C528.178 627.3 529.358 625.58 531.518 625.58C533.658 625.58 534.818 627.42 534.818 630.46V631.16C534.818 634.4 533.758 636.08 531.558 636.08ZM531.498 638.2C535.238 638.2 537.478 635.46 537.478 631.16V630.44C537.478 626.14 535.118 623.5 531.498 623.5C527.898 623.5 525.498 626.16 525.498 630.5V631.22C525.498 635.52 527.858 638.2 531.498 638.2ZM542.504 628.88C541.564 628.88 540.964 628.24 540.964 627.02C540.964 625.82 541.564 625.16 542.504 625.16C543.444 625.16 544.024 625.86 544.024 627.02C544.024 628.2 543.444 628.88 542.504 628.88ZM542.484 630.5C544.444 630.5 545.964 629.02 545.964 627C545.964 625 544.424 623.56 542.504 623.56C540.584 623.56 539.004 625.04 539.004 627.04C539.004 629.02 540.524 630.5 542.484 630.5ZM540.964 638H542.664L551.864 623.7H550.184L540.964 638ZM550.344 636.58C549.404 636.58 548.804 635.94 548.804 634.72C548.804 633.52 549.404 632.86 550.344 632.86C551.284 632.86 551.864 633.56 551.864 634.72C551.864 635.9 551.284 636.58 550.344 636.58ZM550.324 638.2C552.284 638.2 553.824 636.72 553.824 634.7C553.824 632.7 552.264 631.26 550.344 631.26C548.424 631.26 546.864 632.74 546.864 634.74C546.864 636.72 548.364 638.2 550.324 638.2Z" fill="#797979"/>
<path d="M1122.22 638.18C1125.9 638.18 1127.98 635.56 1127.98 630.86V630.12C1127.98 626 1126.14 623.48 1122.4 623.48C1119.14 623.48 1117.1 625.46 1117.1 628.38C1117.1 631.2 1119.08 633.02 1121.84 633.02C1123.54 633.02 1124.7 632.3 1125.36 631.22C1125.32 634.48 1124.22 636.12 1122.18 636.12C1120.64 636.12 1119.98 635.4 1119.72 634.28H1117.22C1117.56 636.74 1119.3 638.18 1122.22 638.18ZM1122.4 631.16C1120.76 631.16 1119.72 630.02 1119.72 628.3C1119.72 626.6 1120.78 625.46 1122.38 625.46C1124.02 625.46 1125.16 626.58 1125.16 628.5C1125.16 630.08 1124.02 631.16 1122.4 631.16ZM1136.09 636.08C1133.95 636.08 1132.71 634.44 1132.71 631.2V630.48C1132.71 627.3 1133.89 625.58 1136.05 625.58C1138.19 625.58 1139.35 627.42 1139.35 630.46V631.16C1139.35 634.4 1138.29 636.08 1136.09 636.08ZM1136.03 638.2C1139.77 638.2 1142.01 635.46 1142.01 631.16V630.44C1142.01 626.14 1139.65 623.5 1136.03 623.5C1132.43 623.5 1130.03 626.16 1130.03 630.5V631.22C1130.03 635.52 1132.39 638.2 1136.03 638.2ZM1147.04 628.88C1146.1 628.88 1145.5 628.24 1145.5 627.02C1145.5 625.82 1146.1 625.16 1147.04 625.16C1147.98 625.16 1148.56 625.86 1148.56 627.02C1148.56 628.2 1147.98 628.88 1147.04 628.88ZM1147.02 630.5C1148.98 630.5 1150.5 629.02 1150.5 627C1150.5 625 1148.96 623.56 1147.04 623.56C1145.12 623.56 1143.54 625.04 1143.54 627.04C1143.54 629.02 1145.06 630.5 1147.02 630.5ZM1145.5 638H1147.2L1156.4 623.7H1154.72L1145.5 638ZM1154.88 636.58C1153.94 636.58 1153.34 635.94 1153.34 634.72C1153.34 633.52 1153.94 632.86 1154.88 632.86C1155.82 632.86 1156.4 633.56 1156.4 634.72C1156.4 635.9 1155.82 636.58 1154.88 636.58ZM1154.86 638.2C1156.82 638.2 1158.36 636.72 1158.36 634.7C1158.36 632.7 1156.8 631.26 1154.88 631.26C1152.96 631.26 1151.4 632.74 1151.4 634.74C1151.4 636.72 1152.9 638.2 1154.86 638.2Z" fill="#797979"/>
<path d="M638.95 638.2C642.03 638.2 644.21 636.3 644.21 633.28C644.21 630.28 642.39 628.48 639.81 628.48C638.29 628.48 637.29 629.04 636.73 629.68L636.75 625.8H643.39V623.7H634.71L634.59 631.66H635.95C636.59 630.92 637.47 630.42 638.93 630.42C640.51 630.42 641.51 631.52 641.51 633.24C641.51 635 640.57 636.14 638.93 636.14C637.09 636.14 636.55 635.22 636.33 633.9H633.85C634.01 636.36 635.59 638.2 638.95 638.2ZM652.183 636.08C650.043 636.08 648.803 634.44 648.803 631.2V630.48C648.803 627.3 649.983 625.58 652.143 625.58C654.283 625.58 655.443 627.42 655.443 630.46V631.16C655.443 634.4 654.383 636.08 652.183 636.08ZM652.123 638.2C655.863 638.2 658.103 635.46 658.103 631.16V630.44C658.103 626.14 655.743 623.5 652.123 623.5C648.523 623.5 646.123 626.16 646.123 630.5V631.22C646.123 635.52 648.483 638.2 652.123 638.2ZM663.129 628.88C662.189 628.88 661.589 628.24 661.589 627.02C661.589 625.82 662.189 625.16 663.129 625.16C664.069 625.16 664.649 625.86 664.649 627.02C664.649 628.2 664.069 628.88 663.129 628.88ZM663.109 630.5C665.069 630.5 666.589 629.02 666.589 627C666.589 625 665.049 623.56 663.129 623.56C661.209 623.56 659.629 625.04 659.629 627.04C659.629 629.02 661.149 630.5 663.109 630.5ZM661.589 638H663.289L672.489 623.7H670.809L661.589 638ZM670.969 636.58C670.029 636.58 669.429 635.94 669.429 634.72C669.429 633.52 670.029 632.86 670.969 632.86C671.909 632.86 672.489 633.56 672.489 634.72C672.489 635.9 671.909 636.58 670.969 636.58ZM670.949 638.2C672.909 638.2 674.449 636.72 674.449 634.7C674.449 632.7 672.889 631.26 670.969 631.26C669.049 631.26 667.489 632.74 667.489 634.74C667.489 636.72 668.989 638.2 670.949 638.2Z" fill="#797979"/>
<path d="M1242.28 638H1244.96V623.7H1242.58L1239.26 626.06V628.4L1242.28 626.34V638ZM1254.08 636.08C1251.94 636.08 1250.7 634.44 1250.7 631.2V630.48C1250.7 627.3 1251.88 625.58 1254.04 625.58C1256.18 625.58 1257.34 627.42 1257.34 630.46V631.16C1257.34 634.4 1256.28 636.08 1254.08 636.08ZM1254.02 638.2C1257.76 638.2 1260 635.46 1260 631.16V630.44C1260 626.14 1257.64 623.5 1254.02 623.5C1250.42 623.5 1248.02 626.16 1248.02 630.5V631.22C1248.02 635.52 1250.38 638.2 1254.02 638.2ZM1268.1 636.08C1265.96 636.08 1264.72 634.44 1264.72 631.2V630.48C1264.72 627.3 1265.9 625.58 1268.06 625.58C1270.2 625.58 1271.36 627.42 1271.36 630.46V631.16C1271.36 634.4 1270.3 636.08 1268.1 636.08ZM1268.04 638.2C1271.78 638.2 1274.02 635.46 1274.02 631.16V630.44C1274.02 626.14 1271.66 623.5 1268.04 623.5C1264.44 623.5 1262.04 626.16 1262.04 630.5V631.22C1262.04 635.52 1264.4 638.2 1268.04 638.2ZM1279.05 628.88C1278.11 628.88 1277.51 628.24 1277.51 627.02C1277.51 625.82 1278.11 625.16 1279.05 625.16C1279.99 625.16 1280.57 625.86 1280.57 627.02C1280.57 628.2 1279.99 628.88 1279.05 628.88ZM1279.03 630.5C1280.99 630.5 1282.51 629.02 1282.51 627C1282.51 625 1280.97 623.56 1279.05 623.56C1277.13 623.56 1275.55 625.04 1275.55 627.04C1275.55 629.02 1277.07 630.5 1279.03 630.5ZM1277.51 638H1279.21L1288.41 623.7H1286.73L1277.51 638ZM1286.89 636.58C1285.95 636.58 1285.35 635.94 1285.35 634.72C1285.35 633.52 1285.95 632.86 1286.89 632.86C1287.83 632.86 1288.41 633.56 1288.41 634.72C1288.41 635.9 1287.83 636.58 1286.89 636.58ZM1286.87 638.2C1288.83 638.2 1290.37 636.72 1290.37 634.7C1290.37 632.7 1288.81 631.26 1286.89 631.26C1284.97 631.26 1283.41 632.74 1283.41 634.74C1283.41 636.72 1284.91 638.2 1286.87 638.2Z" fill="#797979"/>
<path d="M186.804 0.5H377.72C379.653 0.5 381.22 2.067 381.22 4V58C381.22 59.933 379.653 61.5 377.72 61.5H186.804V0.5Z" fill="#272727" fill-opacity="0.5"/>
<path d="M227.815 37H230.495V24.8H234.475V22.7H223.835V24.8H227.815V37ZM239.512 37.2C242.192 37.2 243.972 36 244.312 33.8H241.972C241.792 34.82 241.032 35.4 239.572 35.4C237.772 35.4 236.772 34.28 236.692 32.3H244.352V31.6C244.352 27.86 242.012 26.32 239.412 26.32C236.432 26.32 234.212 28.48 234.212 31.72V31.88C234.212 35.18 236.432 37.2 239.512 37.2ZM236.732 30.68C236.972 29.06 237.952 28.08 239.412 28.08C240.912 28.08 241.832 28.88 241.952 30.68H236.732ZM249.351 37.2C250.951 37.2 251.871 36.62 252.551 35.72V37H254.931V30.14C254.931 27.28 253.091 26.32 250.751 26.32C248.411 26.32 246.471 27.34 246.271 29.78H248.611C248.731 28.74 249.351 28.14 250.611 28.14C252.031 28.14 252.511 28.84 252.511 30.24V30.78H251.211C248.211 30.78 245.851 31.66 245.851 34.1C245.851 36.28 247.431 37.2 249.351 37.2ZM249.931 35.46C248.731 35.46 248.251 34.88 248.251 34C248.251 32.72 249.431 32.3 251.271 32.3H252.511V33.34C252.511 34.68 251.411 35.46 249.931 35.46ZM257.705 37H260.125V30.74C260.125 29.14 261.225 28.34 262.425 28.34C263.605 28.34 264.285 29 264.285 30.54V37H266.705V30.74C266.705 29.14 267.805 28.34 269.005 28.34C270.205 28.34 270.865 29 270.865 30.54V37H273.285V30.38C273.285 27.5 271.725 26.32 269.805 26.32C268.505 26.32 267.065 26.9 266.265 28.2C265.745 26.9 264.665 26.32 263.305 26.32C261.765 26.32 260.625 27.16 260.125 28.14V26.54H257.705V37ZM281.03 37H289.79V34.88H283.69V22.7H281.03V37ZM296.25 37.2C298.93 37.2 300.71 36 301.05 33.8H298.71C298.53 34.82 297.77 35.4 296.31 35.4C294.51 35.4 293.51 34.28 293.43 32.3H301.09V31.6C301.09 27.86 298.75 26.32 296.15 26.32C293.17 26.32 290.95 28.48 290.95 31.72V31.88C290.95 35.18 293.17 37.2 296.25 37.2ZM293.47 30.68C293.71 29.06 294.69 28.08 296.15 28.08C297.65 28.08 298.57 28.88 298.69 30.68H293.47ZM307.712 40.84C310.952 40.84 313.012 39.3 313.032 36.22V26.54H310.612V28.14C310.012 27.1 308.972 26.32 307.252 26.32C304.552 26.32 302.552 28.52 302.552 31.46V31.6C302.552 34.62 304.572 36.58 307.192 36.58C308.732 36.58 310.032 35.64 310.612 34.64V36.18C310.612 38.06 309.572 39 307.692 39C306.112 39 305.312 38.4 305.112 37.36H302.672C302.952 39.36 304.432 40.84 307.712 40.84ZM307.792 34.72C306.232 34.72 305.032 33.52 305.032 31.58V31.42C305.032 29.52 306.072 28.22 307.872 28.22C309.612 28.22 310.692 29.4 310.692 31.38V31.52C310.692 33.52 309.472 34.72 307.792 34.72ZM315.968 37H318.388V26.54H315.968V37ZM317.148 24.82C317.948 24.82 318.588 24.22 318.588 23.44C318.588 22.64 317.948 22.04 317.148 22.04C316.348 22.04 315.708 22.64 315.708 23.44C315.708 24.22 316.348 24.82 317.148 24.82ZM326.017 35.32C324.177 35.32 323.117 33.98 323.117 31.84V31.68C323.117 29.52 324.217 28.22 326.017 28.22C327.817 28.22 328.897 29.54 328.897 31.7V31.84C328.897 33.98 327.817 35.32 326.017 35.32ZM325.997 37.2C329.077 37.2 331.377 35.08 331.377 31.82V31.66C331.377 28.46 329.077 26.32 326.017 26.32C322.937 26.32 320.637 28.48 320.637 31.72V31.88C320.637 35.06 322.917 37.2 325.997 37.2ZM333.564 37H335.984V30.84C335.984 29.18 337.084 28.34 338.444 28.34C339.884 28.34 340.524 29.06 340.524 30.64V37H342.944V30.42C342.944 27.54 341.464 26.32 339.364 26.32C337.644 26.32 336.484 27.18 335.984 28.2V26.54H333.564V37Z" fill="#D7D6D5"/>
<path d="M186.804 0.5H377.72C379.653 0.5 381.22 2.067 381.22 4V58C381.22 59.933 379.653 61.5 377.72 61.5H186.804V0.5Z" stroke="#F6A821"/>
<path d="M0.5 4C0.5 2.067 2.067 0.5 4 0.5H185.804V61.5H4C2.067 61.5 0.5 59.933 0.5 58V4Z" fill="#272727"/>
<path d="M27.75 37H30.43V24.8H34.41V22.7H23.77V24.8H27.75V37ZM39.4463 37.2C42.1263 37.2 43.9063 36 44.2463 33.8H41.9063C41.7263 34.82 40.9663 35.4 39.5063 35.4C37.7063 35.4 36.7063 34.28 36.6263 32.3H44.2863V31.6C44.2863 27.86 41.9463 26.32 39.3463 26.32C36.3663 26.32 34.1463 28.48 34.1463 31.72V31.88C34.1463 35.18 36.3663 37.2 39.4463 37.2ZM36.6663 30.68C36.9063 29.06 37.8863 28.08 39.3463 28.08C40.8463 28.08 41.7663 28.88 41.8863 30.68H36.6663ZM49.2855 37.2C50.8855 37.2 51.8055 36.62 52.4855 35.72V37H54.8655V30.14C54.8655 27.28 53.0255 26.32 50.6855 26.32C48.3455 26.32 46.4055 27.34 46.2055 29.78H48.5455C48.6655 28.74 49.2855 28.14 50.5455 28.14C51.9655 28.14 52.4455 28.84 52.4455 30.24V30.78H51.1455C48.1455 30.78 45.7855 31.66 45.7855 34.1C45.7855 36.28 47.3655 37.2 49.2855 37.2ZM49.8655 35.46C48.6655 35.46 48.1855 34.88 48.1855 34C48.1855 32.72 49.3655 32.3 51.2055 32.3H52.4455V33.34C52.4455 34.68 51.3455 35.46 49.8655 35.46ZM57.6392 37H60.0592V30.74C60.0592 29.14 61.1592 28.34 62.3592 28.34C63.5392 28.34 64.2192 29 64.2192 30.54V37H66.6392V30.74C66.6392 29.14 67.7392 28.34 68.9392 28.34C70.1392 28.34 70.7992 29 70.7992 30.54V37H73.2192V30.38C73.2192 27.5 71.6592 26.32 69.7392 26.32C68.4392 26.32 66.9992 26.9 66.1992 28.2C65.6792 26.9 64.5992 26.32 63.2392 26.32C61.6992 26.32 60.5592 27.16 60.0592 28.14V26.54H57.6392V37ZM87.3842 37.2C91.4242 37.2 93.9042 34.8 93.9042 30.84V29.52H87.6842V31.52H91.2842C91.2042 33.5 90.1042 35.12 87.4242 35.12C84.4242 35.12 83.0042 33.02 83.0042 29.96V29.8C83.0042 26.66 84.6242 24.58 87.4242 24.58C89.2842 24.58 90.5642 25.4 90.8842 27.3H93.5442C93.1642 23.88 90.4442 22.48 87.3842 22.48C83.2042 22.48 80.2442 25.52 80.2442 29.78V29.94C80.2442 34.16 82.8042 37.2 87.3842 37.2ZM100.952 35.32C99.112 35.32 98.052 33.98 98.052 31.84V31.68C98.052 29.52 99.152 28.22 100.952 28.22C102.752 28.22 103.832 29.54 103.832 31.7V31.84C103.832 33.98 102.752 35.32 100.952 35.32ZM100.932 37.2C104.012 37.2 106.312 35.08 106.312 31.82V31.66C106.312 28.46 104.012 26.32 100.952 26.32C97.872 26.32 95.572 28.48 95.572 31.72V31.88C95.572 35.06 97.852 37.2 100.932 37.2ZM112.419 37.2C113.959 37.2 115.299 36.28 115.859 35.24V37H118.279V21.7H115.859V28.14C115.279 27.1 114.219 26.32 112.519 26.32C109.799 26.32 107.819 28.44 107.819 31.78V31.94C107.819 35.34 109.799 37.2 112.419 37.2ZM113.019 35.28C111.459 35.28 110.299 34.18 110.299 31.88V31.72C110.299 29.46 111.339 28.22 113.119 28.22C114.879 28.22 115.939 29.36 115.939 31.66V31.82C115.939 34.16 114.699 35.28 113.019 35.28ZM124.735 37.2C127.415 37.2 128.915 35.98 128.915 33.86C128.915 31.64 127.455 31.04 124.995 30.66C123.335 30.38 122.835 30.08 122.835 29.32C122.835 28.58 123.455 28.08 124.495 28.08C125.615 28.08 126.155 28.52 126.355 29.48H128.595C128.335 27.12 126.635 26.32 124.495 26.32C122.535 26.32 120.575 27.36 120.575 29.46C120.575 31.42 121.595 32.2 124.355 32.64C125.895 32.9 126.595 33.22 126.595 34.08C126.595 34.96 126.015 35.42 124.715 35.42C123.295 35.42 122.755 34.8 122.635 33.74H120.355C120.455 35.96 122.035 37.2 124.735 37.2ZM135.638 37.2C138.318 37.2 140.098 36 140.438 33.8H138.098C137.918 34.82 137.158 35.4 135.698 35.4C133.898 35.4 132.898 34.28 132.818 32.3H140.478V31.6C140.478 27.86 138.138 26.32 135.538 26.32C132.558 26.32 130.338 28.48 130.338 31.72V31.88C130.338 35.18 132.558 37.2 135.638 37.2ZM132.858 30.68C133.098 29.06 134.078 28.08 135.538 28.08C137.038 28.08 137.958 28.88 138.078 30.68H132.858ZM142.639 37H145.059V30.84C145.059 29.18 146.159 28.34 147.519 28.34C148.959 28.34 149.599 29.06 149.599 30.64V37H152.019V30.42C152.019 27.54 150.539 26.32 148.439 26.32C146.719 26.32 145.559 27.18 145.059 28.2V26.54H142.639V37ZM158.367 37.18C159.107 37.18 159.627 37.06 160.007 36.92V35C159.667 35.14 159.307 35.2 158.827 35.2C158.067 35.2 157.627 34.78 157.627 33.86V28.36H159.927V26.54H157.627V24.24H155.207V26.54H153.807V28.36H155.207V34.08C155.207 36.06 156.287 37.18 158.367 37.18Z" fill="#F6A821"/>
<path d="M0.5 4C0.5 2.067 2.067 0.5 4 0.5H185.804V61.5H4C2.067 61.5 0.5 59.933 0.5 58V4Z" stroke="#F6A821"/>
<path d="M1179.5 0.5H1290C1291.93 0.5 1293.5 2.067 1293.5 4V58C1293.5 59.933 1291.93 61.5 1290 61.5H1179.5V0.5Z" fill="#272727" fill-opacity="0.5"/>
<path d="M1216.38 37H1219.06V22.7H1216.68L1213.36 25.06V27.4L1216.38 25.34V37ZM1230.17 34.9V24.8H1231.71C1235.07 24.8 1236.47 26.66 1236.47 29.74V29.9C1236.47 33.06 1234.93 34.9 1231.73 34.9H1230.17ZM1227.51 37H1231.81C1236.83 37 1239.25 34.04 1239.25 29.88V29.7C1239.25 25.54 1236.83 22.7 1231.85 22.7H1227.51V37ZM1244.32 37.2C1245.92 37.2 1246.84 36.62 1247.52 35.72V37H1249.9V30.14C1249.9 27.28 1248.06 26.32 1245.72 26.32C1243.38 26.32 1241.44 27.34 1241.24 29.78H1243.58C1243.7 28.74 1244.32 28.14 1245.58 28.14C1247 28.14 1247.48 28.84 1247.48 30.24V30.78H1246.18C1243.18 30.78 1240.82 31.66 1240.82 34.1C1240.82 36.28 1242.4 37.2 1244.32 37.2ZM1244.9 35.46C1243.7 35.46 1243.22 34.88 1243.22 34C1243.22 32.72 1244.4 32.3 1246.24 32.3H1247.48V33.34C1247.48 34.68 1246.38 35.46 1244.9 35.46ZM1253.55 40.58H1255.93L1261.63 26.54H1259.27L1256.71 33.28L1253.93 26.54H1251.31L1255.45 35.94L1253.55 40.58Z" fill="#D7D6D5"/>
<path d="M1179.5 0.5H1290C1291.93 0.5 1293.5 2.067 1293.5 4V58C1293.5 59.933 1291.93 61.5 1290 61.5H1179.5V0.5Z" stroke="#F6A821"/>
<path d="M1065.5 0.5H1179.5V61.5H1065.5V0.5Z" fill="#272727" fill-opacity="0.5"/>
<path d="M1096.31 37H1098.99V22.7H1096.61L1093.29 25.06V27.4L1096.31 25.34V37ZM1107.43 37H1110.09V30.92H1116.51V37H1119.19V22.7H1116.51V28.78H1110.09V22.7H1107.43V37ZM1126.83 35.32C1124.99 35.32 1123.93 33.98 1123.93 31.84V31.68C1123.93 29.52 1125.03 28.22 1126.83 28.22C1128.63 28.22 1129.71 29.54 1129.71 31.7V31.84C1129.71 33.98 1128.63 35.32 1126.83 35.32ZM1126.81 37.2C1129.89 37.2 1132.19 35.08 1132.19 31.82V31.66C1132.19 28.46 1129.89 26.32 1126.83 26.32C1123.75 26.32 1121.45 28.48 1121.45 31.72V31.88C1121.45 35.06 1123.73 37.2 1126.81 37.2ZM1137.88 37.2C1139.58 37.2 1140.68 36.38 1141.2 35.36V37H1143.62V26.54H1141.2V32.76C1141.2 34.42 1140.06 35.26 1138.76 35.26C1137.36 35.26 1136.7 34.54 1136.7 32.96V26.54H1134.28V33.24C1134.28 36.02 1135.82 37.2 1137.88 37.2ZM1146.49 37H1148.91V31.56C1148.91 29.34 1150.19 28.66 1152.31 28.64V26.38C1150.55 26.4 1149.57 27.18 1148.91 28.5V26.54H1146.49V37Z" fill="#D7D6D5"/>
<path d="M1065.5 0.5H1179.5V61.5H1065.5V0.5Z" stroke="#F6A821"/>
<path d="M951.5 0.5H1065.5V61.5H951.5V0.5Z" fill="#272727" fill-opacity="0.5"/>
<path d="M981.535 37H984.215V22.7H981.835L978.515 25.06V27.4L981.535 25.34V37ZM993.334 35.08C991.194 35.08 989.954 33.44 989.954 30.2V29.48C989.954 26.3 991.134 24.58 993.294 24.58C995.434 24.58 996.594 26.42 996.594 29.46V30.16C996.594 33.4 995.534 35.08 993.334 35.08ZM993.274 37.2C997.014 37.2 999.254 34.46 999.254 30.16V29.44C999.254 25.14 996.894 22.5 993.274 22.5C989.674 22.5 987.274 25.16 987.274 29.5V30.22C987.274 34.52 989.634 37.2 993.274 37.2ZM1006.48 37H1008.9V30.74C1008.9 29.14 1010 28.34 1011.2 28.34C1012.38 28.34 1013.06 29 1013.06 30.54V37H1015.48V30.74C1015.48 29.14 1016.58 28.34 1017.78 28.34C1018.98 28.34 1019.64 29 1019.64 30.54V37H1022.06V30.38C1022.06 27.5 1020.5 26.32 1018.58 26.32C1017.28 26.32 1015.84 26.9 1015.04 28.2C1014.52 26.9 1013.44 26.32 1012.08 26.32C1010.54 26.32 1009.4 27.16 1008.9 28.14V26.54H1006.48V37ZM1024.9 37H1027.32V26.54H1024.9V37ZM1026.08 24.82C1026.88 24.82 1027.52 24.22 1027.52 23.44C1027.52 22.64 1026.88 22.04 1026.08 22.04C1025.28 22.04 1024.64 22.64 1024.64 23.44C1024.64 24.22 1025.28 24.82 1026.08 24.82ZM1030.27 37H1032.69V30.84C1032.69 29.18 1033.79 28.34 1035.15 28.34C1036.59 28.34 1037.23 29.06 1037.23 30.64V37H1039.65V30.42C1039.65 27.54 1038.17 26.32 1036.07 26.32C1034.35 26.32 1033.19 27.18 1032.69 28.2V26.54H1030.27V37Z" fill="#D7D6D5"/>
<path d="M951.5 0.5H1065.5V61.5H951.5V0.5Z" stroke="#F6A821"/>
<path d="M837.5 4C837.5 2.067 839.067 0.5 841 0.5H951.5V61.5H841C839.067 61.5 837.5 59.933 837.5 58V4Z" fill="#272727"/>
<path d="M874.109 37H876.789V22.7H874.409L871.089 25.06V27.4L874.109 25.34V37ZM885.034 37H887.454V30.74C887.454 29.14 888.554 28.34 889.754 28.34C890.934 28.34 891.614 29 891.614 30.54V37H894.034V30.74C894.034 29.14 895.134 28.34 896.334 28.34C897.534 28.34 898.194 29 898.194 30.54V37H900.614V30.38C900.614 27.5 899.054 26.32 897.134 26.32C895.834 26.32 894.394 26.9 893.594 28.2C893.074 26.9 891.994 26.32 890.634 26.32C889.094 26.32 887.954 27.16 887.454 28.14V26.54H885.034V37ZM903.453 37H905.873V26.54H903.453V37ZM904.633 24.82C905.433 24.82 906.073 24.22 906.073 23.44C906.073 22.64 905.433 22.04 904.633 22.04C903.833 22.04 903.193 22.64 903.193 23.44C903.193 24.22 903.833 24.82 904.633 24.82ZM908.823 37H911.243V30.84C911.243 29.18 912.343 28.34 913.703 28.34C915.143 28.34 915.783 29.06 915.783 30.64V37H918.203V30.42C918.203 27.54 916.723 26.32 914.623 26.32C912.903 26.32 911.743 27.18 911.243 28.2V26.54H908.823V37Z" fill="#F6A821"/>
<path d="M837.5 4C837.5 2.067 839.067 0.5 841 0.5H951.5V61.5H841C839.067 61.5 837.5 59.933 837.5 58V4Z" stroke="#F6A821"/>
</svg>
