<svg width="1296" height="643" viewBox="0 0 1296 643" fill="none" xmlns="http://www.w3.org/2000/svg">
<path opacity="0.5" d="M193.81 501.5C121.291 489.531 47.4552 538 47.4552 538C47.4553 458.027 45.4773 303.078 47.4553 303.078C49.9278 303.078 58.3342 162.624 193.81 162.624C329.285 162.624 294.21 293.581 397.065 293.581C499.921 293.581 466.789 161.625 633.886 162.624C800.983 163.624 838.157 303.078 914.297 293.581C990.438 284.085 1027.55 108.642 1109.89 102.144C1175.76 96.9453 1260.07 233.934 1294 303.078V486.491C1282.03 486.924 1201.69 538 1109.89 538C1005.11 538 948.226 489.737 914.297 489.737C782.574 489.738 824.985 514.843 633.886 523.283C479.211 523.283 489.503 491.305 420.833 489.738C278.632 486.491 294.161 518.063 193.81 501.5Z" fill="#272727" stroke="#383838" stroke-width="4"/>
<path d="M46.5762 428C46.5762 428 93.3964 295.652 167.641 268C270.379 229.735 254.48 353 400.064 345.5C470.367 341.878 459.83 268 618.185 268C813.829 287.5 770.409 345.5 905.266 345.5C940.002 345.5 998.235 234 1105.51 234C1199.5 234 1281.74 352 1294 353" stroke="#D7D6D5" stroke-width="4"/>
<path d="M46.5762 145V601H1292.99" stroke="#797979" stroke-width="4"/>
<path d="M1.64652 162H11.9865V159.94H5.90652L9.08652 156.84C10.7865 155.2 11.8865 153.58 11.8865 151.72C11.8865 149.2 10.1265 147.5 7.16652 147.5C4.14652 147.5 2.26652 149.3 2.08652 152.42H4.52652C4.76652 150.4 5.66652 149.58 7.08652 149.58C8.46652 149.58 9.22652 150.42 9.22652 151.76C9.22652 153.12 8.40652 154.38 7.04652 155.82L1.64652 161.52V162ZM18.729 162.2C21.809 162.2 23.989 160.3 23.989 157.28C23.989 154.28 22.169 152.48 19.589 152.48C18.069 152.48 17.069 153.04 16.509 153.68L16.529 149.8H23.169V147.7H14.489L14.369 155.66H15.729C16.369 154.92 17.249 154.42 18.709 154.42C20.289 154.42 21.289 155.52 21.289 157.24C21.289 159 20.349 160.14 18.709 160.14C16.869 160.14 16.329 159.22 16.109 157.9H13.629C13.789 160.36 15.369 162.2 18.729 162.2Z" fill="#797979"/>
<path d="M0.718613 249H11.0586V246.94H4.97861L8.15861 243.84C9.85861 242.2 10.9586 240.58 10.9586 238.72C10.9586 236.2 9.19861 234.5 6.23861 234.5C3.21861 234.5 1.33861 236.3 1.15861 239.42H3.59861C3.83861 237.4 4.73861 236.58 6.15861 236.58C7.53861 236.58 8.29861 237.42 8.29861 238.76C8.29861 240.12 7.47861 241.38 6.11861 242.82L0.718613 248.52V249ZM18.9635 247.08C16.8235 247.08 15.5835 245.44 15.5835 242.2V241.48C15.5835 238.3 16.7635 236.58 18.9235 236.58C21.0635 236.58 22.2235 238.42 22.2235 241.46V242.16C22.2235 245.4 21.1635 247.08 18.9635 247.08ZM18.9035 249.2C22.6435 249.2 24.8835 246.46 24.8835 242.16V241.44C24.8835 237.14 22.5235 234.5 18.9035 234.5C15.3035 234.5 12.9035 237.16 12.9035 241.5V242.22C12.9035 246.52 15.2635 249.2 18.9035 249.2Z" fill="#797979"/>
<path d="M7.10396 336H9.78396V321.7H7.40396L4.08396 324.06V326.4L7.10396 324.34V336ZM17.6429 336.2C20.7229 336.2 22.9029 334.3 22.9029 331.28C22.9029 328.28 21.0829 326.48 18.5029 326.48C16.9829 326.48 15.9829 327.04 15.4229 327.68L15.4429 323.8H22.0829V321.7H13.4029L13.2829 329.66H14.6429C15.2829 328.92 16.1629 328.42 17.6229 328.42C19.2029 328.42 20.2029 329.52 20.2029 331.24C20.2029 333 19.2629 334.14 17.6229 334.14C15.7829 334.14 15.2429 333.22 15.0229 331.9H12.5429C12.7029 334.36 14.2829 336.2 17.6429 336.2Z" fill="#797979"/>
<path d="M6.12819 423H8.80819V408.7H6.42819L3.10819 411.06V413.4L6.12819 411.34V423ZM17.9271 421.08C15.7871 421.08 14.5471 419.44 14.5471 416.2V415.48C14.5471 412.3 15.7271 410.58 17.8871 410.58C20.0271 410.58 21.1871 412.42 21.1871 415.46V416.16C21.1871 419.4 20.1271 421.08 17.9271 421.08ZM17.8671 423.2C21.6071 423.2 23.8471 420.46 23.8471 416.16V415.44C23.8471 411.14 21.4871 408.5 17.8671 408.5C14.2671 408.5 11.8671 411.16 11.8671 415.5V416.22C11.8671 420.52 14.2271 423.2 17.8671 423.2Z" fill="#797979"/>
<path d="M13.4541 510.2C16.5341 510.2 18.7141 508.3 18.7141 505.28C18.7141 502.28 16.8941 500.48 14.3141 500.48C12.7941 500.48 11.7941 501.04 11.2341 501.68L11.2541 497.8H17.8941V495.7H9.21411L9.09411 503.66H10.4541C11.0941 502.92 11.9741 502.42 13.4341 502.42C15.0141 502.42 16.0141 503.52 16.0141 505.24C16.0141 507 15.0741 508.14 13.4341 508.14C11.5941 508.14 11.0541 507.22 10.8341 505.9H8.35411C8.51411 508.36 10.0941 510.2 13.4541 510.2Z" fill="#797979"/>
<path d="M13.7374 595.08C11.5974 595.08 10.3574 593.44 10.3574 590.2V589.48C10.3574 586.3 11.5374 584.58 13.6974 584.58C15.8374 584.58 16.9974 586.42 16.9974 589.46V590.16C16.9974 593.4 15.9374 595.08 13.7374 595.08ZM13.6774 597.2C17.4174 597.2 19.6574 594.46 19.6574 590.16V589.44C19.6574 585.14 17.2974 582.5 13.6774 582.5C10.0774 582.5 7.67737 585.16 7.67737 589.5V590.22C7.67737 594.52 10.0374 597.2 13.6774 597.2Z" fill="#797979"/>
<path d="M50.8352 636.08C48.6952 636.08 47.4552 634.44 47.4552 631.2V630.48C47.4552 627.3 48.6352 625.58 50.7952 625.58C52.9352 625.58 54.0952 627.42 54.0952 630.46V631.16C54.0952 634.4 53.0352 636.08 50.8352 636.08ZM50.7752 638.2C54.5152 638.2 56.7552 635.46 56.7552 631.16V630.44C56.7552 626.14 54.3952 623.5 50.7752 623.5C47.1752 623.5 44.7752 626.16 44.7752 630.5V631.22C44.7752 635.52 47.1352 638.2 50.7752 638.2ZM61.781 628.88C60.841 628.88 60.241 628.24 60.241 627.02C60.241 625.82 60.841 625.16 61.781 625.16C62.721 625.16 63.301 625.86 63.301 627.02C63.301 628.2 62.721 628.88 61.781 628.88ZM61.761 630.5C63.721 630.5 65.241 629.02 65.241 627C65.241 625 63.701 623.56 61.781 623.56C59.861 623.56 58.281 625.04 58.281 627.04C58.281 629.02 59.801 630.5 61.761 630.5ZM60.241 638H61.941L71.141 623.7H69.461L60.241 638ZM69.621 636.58C68.681 636.58 68.081 635.94 68.081 634.72C68.081 633.52 68.681 632.86 69.621 632.86C70.561 632.86 71.141 633.56 71.141 634.72C71.141 635.9 70.561 636.58 69.621 636.58ZM69.601 638.2C71.561 638.2 73.101 636.72 73.101 634.7C73.101 632.7 71.541 631.26 69.621 631.26C67.701 631.26 66.141 632.74 66.141 634.74C66.141 636.72 67.641 638.2 69.601 638.2Z" fill="#797979"/>
<path d="M156.122 638H158.802V623.7H156.422L153.102 626.06V628.4L156.122 626.34V638ZM167.921 636.08C165.781 636.08 164.541 634.44 164.541 631.2V630.48C164.541 627.3 165.721 625.58 167.881 625.58C170.021 625.58 171.181 627.42 171.181 630.46V631.16C171.181 634.4 170.121 636.08 167.921 636.08ZM167.861 638.2C171.601 638.2 173.841 635.46 173.841 631.16V630.44C173.841 626.14 171.481 623.5 167.861 623.5C164.261 623.5 161.861 626.16 161.861 630.5V631.22C161.861 635.52 164.221 638.2 167.861 638.2ZM178.867 628.88C177.927 628.88 177.327 628.24 177.327 627.02C177.327 625.82 177.927 625.16 178.867 625.16C179.807 625.16 180.387 625.86 180.387 627.02C180.387 628.2 179.807 628.88 178.867 628.88ZM178.847 630.5C180.807 630.5 182.327 629.02 182.327 627C182.327 625 180.787 623.56 178.867 623.56C176.947 623.56 175.367 625.04 175.367 627.04C175.367 629.02 176.887 630.5 178.847 630.5ZM177.327 638H179.027L188.227 623.7H186.547L177.327 638ZM186.707 636.58C185.767 636.58 185.167 635.94 185.167 634.72C185.167 633.52 185.767 632.86 186.707 632.86C187.647 632.86 188.227 633.56 188.227 634.72C188.227 635.9 187.647 636.58 186.707 636.58ZM186.687 638.2C188.647 638.2 190.187 636.72 190.187 634.7C190.187 632.7 188.627 631.26 186.707 631.26C184.787 631.26 183.227 632.74 183.227 634.74C183.227 636.72 184.727 638.2 186.687 638.2Z" fill="#797979"/>
<path d="M760.375 638.2C763.615 638.2 765.655 636.24 765.655 633.34C765.655 630.56 763.695 628.68 760.955 628.68C759.255 628.68 758.075 629.42 757.415 630.52C757.495 627.26 758.755 625.56 760.675 625.56C762.055 625.56 762.615 626.2 762.875 627.28H765.355C765.015 624.78 763.295 623.5 760.695 623.5C757.275 623.5 754.775 626.2 754.775 631.16V631.5C754.775 635.28 756.215 638.2 760.375 638.2ZM760.335 636.24C758.715 636.24 757.575 635.14 757.575 633.24C757.575 631.66 758.715 630.52 760.335 630.52C761.975 630.52 763.015 631.68 763.015 633.4C763.015 635.1 761.935 636.24 760.335 636.24ZM773.55 636.08C771.41 636.08 770.17 634.44 770.17 631.2V630.48C770.17 627.3 771.35 625.58 773.51 625.58C775.65 625.58 776.81 627.42 776.81 630.46V631.16C776.81 634.4 775.75 636.08 773.55 636.08ZM773.49 638.2C777.23 638.2 779.47 635.46 779.47 631.16V630.44C779.47 626.14 777.11 623.5 773.49 623.5C769.89 623.5 767.49 626.16 767.49 630.5V631.22C767.49 635.52 769.85 638.2 773.49 638.2ZM784.496 628.88C783.556 628.88 782.956 628.24 782.956 627.02C782.956 625.82 783.556 625.16 784.496 625.16C785.436 625.16 786.016 625.86 786.016 627.02C786.016 628.2 785.436 628.88 784.496 628.88ZM784.476 630.5C786.436 630.5 787.956 629.02 787.956 627C787.956 625 786.416 623.56 784.496 623.56C782.576 623.56 780.996 625.04 780.996 627.04C780.996 629.02 782.516 630.5 784.476 630.5ZM782.956 638H784.656L793.856 623.7H792.176L782.956 638ZM792.336 636.58C791.396 636.58 790.796 635.94 790.796 634.72C790.796 633.52 791.396 632.86 792.336 632.86C793.276 632.86 793.856 633.56 793.856 634.72C793.856 635.9 793.276 636.58 792.336 636.58ZM792.316 638.2C794.276 638.2 795.816 636.72 795.816 634.7C795.816 632.7 794.256 631.26 792.336 631.26C790.416 631.26 788.856 632.74 788.856 634.74C788.856 636.72 790.356 638.2 792.316 638.2Z" fill="#797979"/>
<path d="M270.19 638H280.53V635.94H274.45L277.63 632.84C279.33 631.2 280.43 629.58 280.43 627.72C280.43 625.2 278.67 623.5 275.71 623.5C272.69 623.5 270.81 625.3 270.63 628.42H273.07C273.31 626.4 274.21 625.58 275.63 625.58C277.01 625.58 277.77 626.42 277.77 627.76C277.77 629.12 276.95 630.38 275.59 631.82L270.19 637.52V638ZM288.435 636.08C286.295 636.08 285.055 634.44 285.055 631.2V630.48C285.055 627.3 286.235 625.58 288.395 625.58C290.535 625.58 291.695 627.42 291.695 630.46V631.16C291.695 634.4 290.635 636.08 288.435 636.08ZM288.375 638.2C292.115 638.2 294.355 635.46 294.355 631.16V630.44C294.355 626.14 291.995 623.5 288.375 623.5C284.775 623.5 282.375 626.16 282.375 630.5V631.22C282.375 635.52 284.735 638.2 288.375 638.2ZM299.38 628.88C298.44 628.88 297.84 628.24 297.84 627.02C297.84 625.82 298.44 625.16 299.38 625.16C300.32 625.16 300.9 625.86 300.9 627.02C300.9 628.2 300.32 628.88 299.38 628.88ZM299.36 630.5C301.32 630.5 302.84 629.02 302.84 627C302.84 625 301.3 623.56 299.38 623.56C297.46 623.56 295.88 625.04 295.88 627.04C295.88 629.02 297.4 630.5 299.36 630.5ZM297.84 638H299.54L308.74 623.7H307.06L297.84 638ZM307.22 636.58C306.28 636.58 305.68 635.94 305.68 634.72C305.68 633.52 306.28 632.86 307.22 632.86C308.16 632.86 308.74 633.56 308.74 634.72C308.74 635.9 308.16 636.58 307.22 636.58ZM307.2 638.2C309.16 638.2 310.7 636.72 310.7 634.7C310.7 632.7 309.14 631.26 307.22 631.26C305.3 631.26 303.74 632.74 303.74 634.74C303.74 636.72 305.24 638.2 307.2 638.2Z" fill="#797979"/>
<path d="M877.988 638H880.728L885.928 624.02V623.7H875.928V625.86H882.588L877.988 638ZM892.936 636.08C890.796 636.08 889.556 634.44 889.556 631.2V630.48C889.556 627.3 890.736 625.58 892.896 625.58C895.036 625.58 896.196 627.42 896.196 630.46V631.16C896.196 634.4 895.136 636.08 892.936 636.08ZM892.876 638.2C896.616 638.2 898.856 635.46 898.856 631.16V630.44C898.856 626.14 896.496 623.5 892.876 623.5C889.276 623.5 886.876 626.16 886.876 630.5V631.22C886.876 635.52 889.236 638.2 892.876 638.2ZM903.882 628.88C902.942 628.88 902.342 628.24 902.342 627.02C902.342 625.82 902.942 625.16 903.882 625.16C904.822 625.16 905.402 625.86 905.402 627.02C905.402 628.2 904.822 628.88 903.882 628.88ZM903.862 630.5C905.822 630.5 907.342 629.02 907.342 627C907.342 625 905.802 623.56 903.882 623.56C901.962 623.56 900.382 625.04 900.382 627.04C900.382 629.02 901.902 630.5 903.862 630.5ZM902.342 638H904.042L913.242 623.7H911.562L902.342 638ZM911.722 636.58C910.782 636.58 910.182 635.94 910.182 634.72C910.182 633.52 910.782 632.86 911.722 632.86C912.662 632.86 913.242 633.56 913.242 634.72C913.242 635.9 912.662 636.58 911.722 636.58ZM911.702 638.2C913.662 638.2 915.202 636.72 915.202 634.7C915.202 632.7 913.642 631.26 911.722 631.26C909.802 631.26 908.242 632.74 908.242 634.74C908.242 636.72 909.742 638.2 911.702 638.2Z" fill="#797979"/>
<path d="M396.467 638.2C399.747 638.2 401.827 636.56 401.827 633.92C401.827 632.02 400.727 630.84 399.067 630.46C400.447 629.94 401.387 628.96 401.387 627.34C401.387 625.22 399.647 623.5 396.667 623.5C393.607 623.5 391.747 625.4 391.607 627.88H393.967C394.127 626.44 395.107 625.52 396.627 625.52C398.107 625.52 398.847 626.38 398.847 627.54C398.847 628.88 398.107 629.64 396.467 629.64H395.447V631.54H396.547C398.287 631.54 399.127 632.32 399.127 633.88C399.127 635.3 398.267 636.2 396.407 636.2C394.487 636.2 393.647 635.08 393.507 633.58H391.087C391.207 636.32 393.067 638.2 396.467 638.2ZM409.928 636.08C407.788 636.08 406.548 634.44 406.548 631.2V630.48C406.548 627.3 407.728 625.58 409.888 625.58C412.028 625.58 413.188 627.42 413.188 630.46V631.16C413.188 634.4 412.128 636.08 409.928 636.08ZM409.868 638.2C413.608 638.2 415.848 635.46 415.848 631.16V630.44C415.848 626.14 413.488 623.5 409.868 623.5C406.268 623.5 403.868 626.16 403.868 630.5V631.22C403.868 635.52 406.228 638.2 409.868 638.2ZM420.874 628.88C419.934 628.88 419.334 628.24 419.334 627.02C419.334 625.82 419.934 625.16 420.874 625.16C421.814 625.16 422.394 625.86 422.394 627.02C422.394 628.2 421.814 628.88 420.874 628.88ZM420.854 630.5C422.814 630.5 424.334 629.02 424.334 627C424.334 625 422.794 623.56 420.874 623.56C418.954 623.56 417.374 625.04 417.374 627.04C417.374 629.02 418.894 630.5 420.854 630.5ZM419.334 638H421.034L430.234 623.7H428.554L419.334 638ZM428.714 636.58C427.774 636.58 427.174 635.94 427.174 634.72C427.174 633.52 427.774 632.86 428.714 632.86C429.654 632.86 430.234 633.56 430.234 634.72C430.234 635.9 429.654 636.58 428.714 636.58ZM428.694 638.2C430.654 638.2 432.194 636.72 432.194 634.7C432.194 632.7 430.634 631.26 428.714 631.26C426.794 631.26 425.234 632.74 425.234 634.74C425.234 636.72 426.734 638.2 428.694 638.2Z" fill="#797979"/>
<path d="M1001.2 638.2C1004.08 638.2 1006.52 636.7 1006.52 633.88C1006.52 632.14 1005.54 630.9 1003.86 630.3C1005.14 629.74 1005.98 628.76 1005.98 627.3C1005.98 624.94 1003.76 623.5 1001.2 623.5C998.721 623.5 996.401 624.92 996.401 627.34C996.401 628.76 997.201 629.8 998.521 630.32C996.921 630.88 995.841 632.14 995.841 633.96C995.841 636.76 998.361 638.2 1001.2 638.2ZM1001.2 636.2C999.761 636.2 998.521 635.34 998.521 633.74C998.521 632.14 999.761 631.28 1001.22 631.28C1002.7 631.28 1003.86 632.14 1003.86 633.72C1003.86 635.32 1002.72 636.2 1001.2 636.2ZM1001.24 629.54C1000 629.54 998.941 628.78 998.941 627.48C998.941 626.2 999.941 625.42 1001.2 625.42C1002.48 625.42 1003.46 626.24 1003.46 627.46C1003.46 628.76 1002.54 629.54 1001.24 629.54ZM1014.34 636.08C1012.2 636.08 1010.96 634.44 1010.96 631.2V630.48C1010.96 627.3 1012.14 625.58 1014.3 625.58C1016.44 625.58 1017.6 627.42 1017.6 630.46V631.16C1017.6 634.4 1016.54 636.08 1014.34 636.08ZM1014.28 638.2C1018.02 638.2 1020.26 635.46 1020.26 631.16V630.44C1020.26 626.14 1017.9 623.5 1014.28 623.5C1010.68 623.5 1008.28 626.16 1008.28 630.5V631.22C1008.28 635.52 1010.64 638.2 1014.28 638.2ZM1025.29 628.88C1024.35 628.88 1023.75 628.24 1023.75 627.02C1023.75 625.82 1024.35 625.16 1025.29 625.16C1026.23 625.16 1026.81 625.86 1026.81 627.02C1026.81 628.2 1026.23 628.88 1025.29 628.88ZM1025.27 630.5C1027.23 630.5 1028.75 629.02 1028.75 627C1028.75 625 1027.21 623.56 1025.29 623.56C1023.37 623.56 1021.79 625.04 1021.79 627.04C1021.79 629.02 1023.31 630.5 1025.27 630.5ZM1023.75 638H1025.45L1034.65 623.7H1032.97L1023.75 638ZM1033.13 636.58C1032.19 636.58 1031.59 635.94 1031.59 634.72C1031.59 633.52 1032.19 632.86 1033.13 632.86C1034.07 632.86 1034.65 633.56 1034.65 634.72C1034.65 635.9 1034.07 636.58 1033.13 636.58ZM1033.11 638.2C1035.07 638.2 1036.61 636.72 1036.61 634.7C1036.61 632.7 1035.05 631.26 1033.13 631.26C1031.21 631.26 1029.65 632.74 1029.65 634.74C1029.65 636.72 1031.15 638.2 1033.11 638.2Z" fill="#797979"/>
<path d="M519.463 638H522.043V635.1H523.963V633.12H522.043V623.7H518.703L512.383 634.16V635.1H519.463V638ZM515.223 633.12L519.503 625.72V633.12H515.223ZM531.558 636.08C529.418 636.08 528.178 634.44 528.178 631.2V630.48C528.178 627.3 529.358 625.58 531.518 625.58C533.658 625.58 534.818 627.42 534.818 630.46V631.16C534.818 634.4 533.758 636.08 531.558 636.08ZM531.498 638.2C535.238 638.2 537.478 635.46 537.478 631.16V630.44C537.478 626.14 535.118 623.5 531.498 623.5C527.898 623.5 525.498 626.16 525.498 630.5V631.22C525.498 635.52 527.858 638.2 531.498 638.2ZM542.504 628.88C541.564 628.88 540.964 628.24 540.964 627.02C540.964 625.82 541.564 625.16 542.504 625.16C543.444 625.16 544.024 625.86 544.024 627.02C544.024 628.2 543.444 628.88 542.504 628.88ZM542.484 630.5C544.444 630.5 545.964 629.02 545.964 627C545.964 625 544.424 623.56 542.504 623.56C540.584 623.56 539.004 625.04 539.004 627.04C539.004 629.02 540.524 630.5 542.484 630.5ZM540.964 638H542.664L551.864 623.7H550.184L540.964 638ZM550.344 636.58C549.404 636.58 548.804 635.94 548.804 634.72C548.804 633.52 549.404 632.86 550.344 632.86C551.284 632.86 551.864 633.56 551.864 634.72C551.864 635.9 551.284 636.58 550.344 636.58ZM550.324 638.2C552.284 638.2 553.824 636.72 553.824 634.7C553.824 632.7 552.264 631.26 550.344 631.26C548.424 631.26 546.864 632.74 546.864 634.74C546.864 636.72 548.364 638.2 550.324 638.2Z" fill="#797979"/>
<path d="M1122.22 638.18C1125.9 638.18 1127.98 635.56 1127.98 630.86V630.12C1127.98 626 1126.14 623.48 1122.4 623.48C1119.14 623.48 1117.1 625.46 1117.1 628.38C1117.1 631.2 1119.08 633.02 1121.84 633.02C1123.54 633.02 1124.7 632.3 1125.36 631.22C1125.32 634.48 1124.22 636.12 1122.18 636.12C1120.64 636.12 1119.98 635.4 1119.72 634.28H1117.22C1117.56 636.74 1119.3 638.18 1122.22 638.18ZM1122.4 631.16C1120.76 631.16 1119.72 630.02 1119.72 628.3C1119.72 626.6 1120.78 625.46 1122.38 625.46C1124.02 625.46 1125.16 626.58 1125.16 628.5C1125.16 630.08 1124.02 631.16 1122.4 631.16ZM1136.09 636.08C1133.95 636.08 1132.71 634.44 1132.71 631.2V630.48C1132.71 627.3 1133.89 625.58 1136.05 625.58C1138.19 625.58 1139.35 627.42 1139.35 630.46V631.16C1139.35 634.4 1138.29 636.08 1136.09 636.08ZM1136.03 638.2C1139.77 638.2 1142.01 635.46 1142.01 631.16V630.44C1142.01 626.14 1139.65 623.5 1136.03 623.5C1132.43 623.5 1130.03 626.16 1130.03 630.5V631.22C1130.03 635.52 1132.39 638.2 1136.03 638.2ZM1147.04 628.88C1146.1 628.88 1145.5 628.24 1145.5 627.02C1145.5 625.82 1146.1 625.16 1147.04 625.16C1147.98 625.16 1148.56 625.86 1148.56 627.02C1148.56 628.2 1147.98 628.88 1147.04 628.88ZM1147.02 630.5C1148.98 630.5 1150.5 629.02 1150.5 627C1150.5 625 1148.96 623.56 1147.04 623.56C1145.12 623.56 1143.54 625.04 1143.54 627.04C1143.54 629.02 1145.06 630.5 1147.02 630.5ZM1145.5 638H1147.2L1156.4 623.7H1154.72L1145.5 638ZM1154.88 636.58C1153.94 636.58 1153.34 635.94 1153.34 634.72C1153.34 633.52 1153.94 632.86 1154.88 632.86C1155.82 632.86 1156.4 633.56 1156.4 634.72C1156.4 635.9 1155.82 636.58 1154.88 636.58ZM1154.86 638.2C1156.82 638.2 1158.36 636.72 1158.36 634.7C1158.36 632.7 1156.8 631.26 1154.88 631.26C1152.96 631.26 1151.4 632.74 1151.4 634.74C1151.4 636.72 1152.9 638.2 1154.86 638.2Z" fill="#797979"/>
<path d="M638.95 638.2C642.03 638.2 644.21 636.3 644.21 633.28C644.21 630.28 642.39 628.48 639.81 628.48C638.29 628.48 637.29 629.04 636.73 629.68L636.75 625.8H643.39V623.7H634.71L634.59 631.66H635.95C636.59 630.92 637.47 630.42 638.93 630.42C640.51 630.42 641.51 631.52 641.51 633.24C641.51 635 640.57 636.14 638.93 636.14C637.09 636.14 636.55 635.22 636.33 633.9H633.85C634.01 636.36 635.59 638.2 638.95 638.2ZM652.183 636.08C650.043 636.08 648.803 634.44 648.803 631.2V630.48C648.803 627.3 649.983 625.58 652.143 625.58C654.283 625.58 655.443 627.42 655.443 630.46V631.16C655.443 634.4 654.383 636.08 652.183 636.08ZM652.123 638.2C655.863 638.2 658.103 635.46 658.103 631.16V630.44C658.103 626.14 655.743 623.5 652.123 623.5C648.523 623.5 646.123 626.16 646.123 630.5V631.22C646.123 635.52 648.483 638.2 652.123 638.2ZM663.129 628.88C662.189 628.88 661.589 628.24 661.589 627.02C661.589 625.82 662.189 625.16 663.129 625.16C664.069 625.16 664.649 625.86 664.649 627.02C664.649 628.2 664.069 628.88 663.129 628.88ZM663.109 630.5C665.069 630.5 666.589 629.02 666.589 627C666.589 625 665.049 623.56 663.129 623.56C661.209 623.56 659.629 625.04 659.629 627.04C659.629 629.02 661.149 630.5 663.109 630.5ZM661.589 638H663.289L672.489 623.7H670.809L661.589 638ZM670.969 636.58C670.029 636.58 669.429 635.94 669.429 634.72C669.429 633.52 670.029 632.86 670.969 632.86C671.909 632.86 672.489 633.56 672.489 634.72C672.489 635.9 671.909 636.58 670.969 636.58ZM670.949 638.2C672.909 638.2 674.449 636.72 674.449 634.7C674.449 632.7 672.889 631.26 670.969 631.26C669.049 631.26 667.489 632.74 667.489 634.74C667.489 636.72 668.989 638.2 670.949 638.2Z" fill="#797979"/>
<path d="M1242.28 638H1244.96V623.7H1242.58L1239.26 626.06V628.4L1242.28 626.34V638ZM1254.08 636.08C1251.94 636.08 1250.7 634.44 1250.7 631.2V630.48C1250.7 627.3 1251.88 625.58 1254.04 625.58C1256.18 625.58 1257.34 627.42 1257.34 630.46V631.16C1257.34 634.4 1256.28 636.08 1254.08 636.08ZM1254.02 638.2C1257.76 638.2 1260 635.46 1260 631.16V630.44C1260 626.14 1257.64 623.5 1254.02 623.5C1250.42 623.5 1248.02 626.16 1248.02 630.5V631.22C1248.02 635.52 1250.38 638.2 1254.02 638.2ZM1268.1 636.08C1265.96 636.08 1264.72 634.44 1264.72 631.2V630.48C1264.72 627.3 1265.9 625.58 1268.06 625.58C1270.2 625.58 1271.36 627.42 1271.36 630.46V631.16C1271.36 634.4 1270.3 636.08 1268.1 636.08ZM1268.04 638.2C1271.78 638.2 1274.02 635.46 1274.02 631.16V630.44C1274.02 626.14 1271.66 623.5 1268.04 623.5C1264.44 623.5 1262.04 626.16 1262.04 630.5V631.22C1262.04 635.52 1264.4 638.2 1268.04 638.2ZM1279.05 628.88C1278.11 628.88 1277.51 628.24 1277.51 627.02C1277.51 625.82 1278.11 625.16 1279.05 625.16C1279.99 625.16 1280.57 625.86 1280.57 627.02C1280.57 628.2 1279.99 628.88 1279.05 628.88ZM1279.03 630.5C1280.99 630.5 1282.51 629.02 1282.51 627C1282.51 625 1280.97 623.56 1279.05 623.56C1277.13 623.56 1275.55 625.04 1275.55 627.04C1275.55 629.02 1277.07 630.5 1279.03 630.5ZM1277.51 638H1279.21L1288.41 623.7H1286.73L1277.51 638ZM1286.89 636.58C1285.95 636.58 1285.35 635.94 1285.35 634.72C1285.35 633.52 1285.95 632.86 1286.89 632.86C1287.83 632.86 1288.41 633.56 1288.41 634.72C1288.41 635.9 1287.83 636.58 1286.89 636.58ZM1286.87 638.2C1288.83 638.2 1290.37 636.72 1290.37 634.7C1290.37 632.7 1288.81 631.26 1286.89 631.26C1284.97 631.26 1283.41 632.74 1283.41 634.74C1283.41 636.72 1284.91 638.2 1286.87 638.2Z" fill="#797979"/>
<rect x="107.327" y="172" width="1.01252" height="335" fill="#72CE08"/>
<rect x="100.227" y="247.444" width="14.2003" height="184.111" fill="#272727" stroke="#72CE08" stroke-width="2"/>
<rect x="169.091" y="174" width="1.01252" height="159" fill="#72CE08"/>
<rect x="161.99" y="210.333" width="14.2003" height="86.3333" fill="#272727" stroke="#72CE08" stroke-width="2"/>
<rect x="230.854" y="254" width="1.01252" height="156" fill="#F66121"/>
<rect x="223.754" y="289.667" width="14.2003" height="84.6667" fill="#272727" stroke="#F66121" stroke-width="2"/>
<rect x="292.618" y="209" width="1.01252" height="159" fill="#72CE08"/>
<rect x="285.518" y="245.333" width="14.2003" height="86.3333" fill="#272727" stroke="#72CE08" stroke-width="2"/>
<rect x="354.382" y="186" width="1.01252" height="307" fill="#F66121"/>
<rect x="347.281" y="255.222" width="14.2003" height="168.556" fill="#272727" stroke="#F66121" stroke-width="2"/>
<rect x="416.146" y="359" width="1.01252" height="74" fill="#F66121"/>
<rect x="409.045" y="376.444" width="14.2003" height="39.1111" fill="#272727" stroke="#F66121" stroke-width="2"/>
<rect x="477.909" y="153" width="1.01252" height="372" fill="#72CE08"/>
<rect x="470.809" y="236.667" width="14.2003" height="204.667" fill="#272727" stroke="#72CE08" stroke-width="2"/>
<rect x="539.673" y="145" width="1.01252" height="261" fill="#72CE08"/>
<rect x="532.572" y="204" width="14.2003" height="143" fill="#272727" stroke="#72CE08" stroke-width="2"/>
<rect x="601.437" y="341" width="1.01252" height="175" fill="#F66121"/>
<rect x="594.336" y="380.889" width="14.2003" height="95.2222" fill="#272727" stroke="#F66121" stroke-width="2"/>
<rect x="663.2" y="172" width="1.01252" height="245" fill="#72CE08"/>
<rect x="656.1" y="227.444" width="14.2003" height="134.111" fill="#272727" stroke="#72CE08" stroke-width="2"/>
<rect x="724.964" y="142" width="1.01252" height="213" fill="#F66121"/>
<rect x="717.863" y="190.333" width="14.2003" height="116.333" fill="#272727" stroke="#F66121" stroke-width="2"/>
<rect x="786.728" y="251" width="1.01252" height="259" fill="#F66121"/>
<rect x="779.627" y="309.556" width="14.2003" height="141.889" fill="#272727" stroke="#F66121" stroke-width="2"/>
<rect x="848.491" y="320" width="1.01252" height="39" fill="#F66121"/>
<rect x="841.391" y="329.667" width="14.2003" height="19.6667" fill="#272727" stroke="#F66121" stroke-width="2"/>
<rect x="910.255" y="172" width="1.01252" height="244" fill="#72CE08"/>
<rect x="903.154" y="227.222" width="14.2003" height="133.556" fill="#272727" stroke="#72CE08" stroke-width="2"/>
<rect x="972.019" y="323" width="1.01252" height="151" fill="#72CE08"/>
<rect x="964.918" y="357.556" width="14.2003" height="81.8889" fill="#272727" stroke="#72CE08" stroke-width="2"/>
<rect x="1033.78" y="179" width="1.01252" height="184" fill="#F66121"/>
<rect x="1026.68" y="220.889" width="14.2003" height="100.222" fill="#272727" stroke="#F66121" stroke-width="2"/>
<rect x="1095.55" y="136" width="1.01252" height="192" fill="#72CE08"/>
<rect x="1088.45" y="179.667" width="14.2003" height="104.667" fill="#272727" stroke="#72CE08" stroke-width="2"/>
<rect x="1157.31" y="384" width="1.01252" height="58" fill="#F66121"/>
<rect x="1150.21" y="397.889" width="14.2003" height="30.2222" fill="#272727" stroke="#F66121" stroke-width="2"/>
<rect x="1219.07" y="189" width="1.01252" height="159" fill="#F66121"/>
<rect x="1211.97" y="225.333" width="14.2003" height="86.3333" fill="#272727" stroke="#F66121" stroke-width="2"/>
<rect x="1280.84" y="264" width="1.01252" height="151" fill="#72CE08"/>
<rect x="1273.74" y="298.556" width="14.2003" height="81.8889" fill="#272727" stroke="#72CE08" stroke-width="2"/>
<path d="M635.35 0.5H826.266C828.199 0.5 829.766 2.067 829.766 4V58C829.766 59.933 828.199 61.5 826.266 61.5H635.35V0.5Z" fill="#272727" fill-opacity="0.5"/>
<path d="M676.361 37H679.041V24.8H683.021V22.7H672.381V24.8H676.361V37ZM688.058 37.2C690.738 37.2 692.518 36 692.858 33.8H690.518C690.338 34.82 689.578 35.4 688.118 35.4C686.318 35.4 685.318 34.28 685.238 32.3H692.898V31.6C692.898 27.86 690.558 26.32 687.958 26.32C684.978 26.32 682.758 28.48 682.758 31.72V31.88C682.758 35.18 684.978 37.2 688.058 37.2ZM685.278 30.68C685.518 29.06 686.498 28.08 687.958 28.08C689.458 28.08 690.378 28.88 690.498 30.68H685.278ZM697.897 37.2C699.497 37.2 700.417 36.62 701.097 35.72V37H703.477V30.14C703.477 27.28 701.637 26.32 699.297 26.32C696.957 26.32 695.017 27.34 694.817 29.78H697.157C697.277 28.74 697.897 28.14 699.157 28.14C700.577 28.14 701.057 28.84 701.057 30.24V30.78H699.757C696.757 30.78 694.397 31.66 694.397 34.1C694.397 36.28 695.977 37.2 697.897 37.2ZM698.477 35.46C697.277 35.46 696.797 34.88 696.797 34C696.797 32.72 697.977 32.3 699.817 32.3H701.057V33.34C701.057 34.68 699.957 35.46 698.477 35.46ZM706.251 37H708.671V30.74C708.671 29.14 709.771 28.34 710.971 28.34C712.151 28.34 712.831 29 712.831 30.54V37H715.251V30.74C715.251 29.14 716.351 28.34 717.551 28.34C718.751 28.34 719.411 29 719.411 30.54V37H721.831V30.38C721.831 27.5 720.271 26.32 718.351 26.32C717.051 26.32 715.611 26.9 714.811 28.2C714.291 26.9 713.211 26.32 711.851 26.32C710.311 26.32 709.171 27.16 708.671 28.14V26.54H706.251V37ZM729.576 37H738.336V34.88H732.236V22.7H729.576V37ZM744.796 37.2C747.476 37.2 749.256 36 749.596 33.8H747.256C747.076 34.82 746.316 35.4 744.856 35.4C743.056 35.4 742.056 34.28 741.976 32.3H749.636V31.6C749.636 27.86 747.296 26.32 744.696 26.32C741.716 26.32 739.496 28.48 739.496 31.72V31.88C739.496 35.18 741.716 37.2 744.796 37.2ZM742.016 30.68C742.256 29.06 743.236 28.08 744.696 28.08C746.196 28.08 747.116 28.88 747.236 30.68H742.016ZM756.257 40.84C759.497 40.84 761.557 39.3 761.577 36.22V26.54H759.157V28.14C758.557 27.1 757.517 26.32 755.797 26.32C753.097 26.32 751.097 28.52 751.097 31.46V31.6C751.097 34.62 753.117 36.58 755.737 36.58C757.277 36.58 758.577 35.64 759.157 34.64V36.18C759.157 38.06 758.117 39 756.237 39C754.657 39 753.857 38.4 753.657 37.36H751.217C751.497 39.36 752.977 40.84 756.257 40.84ZM756.337 34.72C754.777 34.72 753.577 33.52 753.577 31.58V31.42C753.577 29.52 754.617 28.22 756.417 28.22C758.157 28.22 759.237 29.4 759.237 31.38V31.52C759.237 33.52 758.017 34.72 756.337 34.72ZM764.514 37H766.934V26.54H764.514V37ZM765.694 24.82C766.494 24.82 767.134 24.22 767.134 23.44C767.134 22.64 766.494 22.04 765.694 22.04C764.894 22.04 764.254 22.64 764.254 23.44C764.254 24.22 764.894 24.82 765.694 24.82ZM774.563 35.32C772.723 35.32 771.663 33.98 771.663 31.84V31.68C771.663 29.52 772.763 28.22 774.563 28.22C776.363 28.22 777.443 29.54 777.443 31.7V31.84C777.443 33.98 776.363 35.32 774.563 35.32ZM774.543 37.2C777.623 37.2 779.923 35.08 779.923 31.82V31.66C779.923 28.46 777.623 26.32 774.563 26.32C771.483 26.32 769.183 28.48 769.183 31.72V31.88C769.183 35.06 771.463 37.2 774.543 37.2ZM782.11 37H784.53V30.84C784.53 29.18 785.63 28.34 786.99 28.34C788.43 28.34 789.07 29.06 789.07 30.64V37H791.49V30.42C791.49 27.54 790.01 26.32 787.91 26.32C786.19 26.32 785.03 27.18 784.53 28.2V26.54H782.11V37Z" fill="#D7D6D5"/>
<path d="M635.35 0.5H826.266C828.199 0.5 829.766 2.067 829.766 4V58C829.766 59.933 828.199 61.5 826.266 61.5H635.35V0.5Z" stroke="#F6A821"/>
<path d="M449.046 4C449.046 2.067 450.613 0.5 452.546 0.5H634.35V61.5H452.546C450.613 61.5 449.046 59.933 449.046 58V4Z" fill="#272727"/>
<path d="M476.296 37H478.976V24.8H482.956V22.7H472.316V24.8H476.296V37ZM487.992 37.2C490.672 37.2 492.452 36 492.792 33.8H490.452C490.272 34.82 489.512 35.4 488.052 35.4C486.252 35.4 485.252 34.28 485.172 32.3H492.832V31.6C492.832 27.86 490.492 26.32 487.892 26.32C484.912 26.32 482.692 28.48 482.692 31.72V31.88C482.692 35.18 484.912 37.2 487.992 37.2ZM485.212 30.68C485.452 29.06 486.432 28.08 487.892 28.08C489.392 28.08 490.312 28.88 490.432 30.68H485.212ZM497.831 37.2C499.431 37.2 500.351 36.62 501.031 35.72V37H503.411V30.14C503.411 27.28 501.571 26.32 499.231 26.32C496.891 26.32 494.951 27.34 494.751 29.78H497.091C497.211 28.74 497.831 28.14 499.091 28.14C500.511 28.14 500.991 28.84 500.991 30.24V30.78H499.691C496.691 30.78 494.331 31.66 494.331 34.1C494.331 36.28 495.911 37.2 497.831 37.2ZM498.411 35.46C497.211 35.46 496.731 34.88 496.731 34C496.731 32.72 497.911 32.3 499.751 32.3H500.991V33.34C500.991 34.68 499.891 35.46 498.411 35.46ZM506.185 37H508.605V30.74C508.605 29.14 509.705 28.34 510.905 28.34C512.085 28.34 512.765 29 512.765 30.54V37H515.185V30.74C515.185 29.14 516.285 28.34 517.485 28.34C518.685 28.34 519.345 29 519.345 30.54V37H521.765V30.38C521.765 27.5 520.205 26.32 518.285 26.32C516.985 26.32 515.545 26.9 514.745 28.2C514.225 26.9 513.145 26.32 511.785 26.32C510.245 26.32 509.105 27.16 508.605 28.14V26.54H506.185V37ZM535.93 37.2C539.97 37.2 542.45 34.8 542.45 30.84V29.52H536.23V31.52H539.83C539.75 33.5 538.65 35.12 535.97 35.12C532.97 35.12 531.55 33.02 531.55 29.96V29.8C531.55 26.66 533.17 24.58 535.97 24.58C537.83 24.58 539.11 25.4 539.43 27.3H542.09C541.71 23.88 538.99 22.48 535.93 22.48C531.75 22.48 528.79 25.52 528.79 29.78V29.94C528.79 34.16 531.35 37.2 535.93 37.2ZM549.498 35.32C547.658 35.32 546.598 33.98 546.598 31.84V31.68C546.598 29.52 547.698 28.22 549.498 28.22C551.298 28.22 552.378 29.54 552.378 31.7V31.84C552.378 33.98 551.298 35.32 549.498 35.32ZM549.478 37.2C552.558 37.2 554.858 35.08 554.858 31.82V31.66C554.858 28.46 552.558 26.32 549.498 26.32C546.418 26.32 544.118 28.48 544.118 31.72V31.88C544.118 35.06 546.398 37.2 549.478 37.2ZM560.964 37.2C562.504 37.2 563.844 36.28 564.404 35.24V37H566.824V21.7H564.404V28.14C563.824 27.1 562.764 26.32 561.064 26.32C558.344 26.32 556.364 28.44 556.364 31.78V31.94C556.364 35.34 558.344 37.2 560.964 37.2ZM561.564 35.28C560.004 35.28 558.844 34.18 558.844 31.88V31.72C558.844 29.46 559.884 28.22 561.664 28.22C563.424 28.22 564.484 29.36 564.484 31.66V31.82C564.484 34.16 563.244 35.28 561.564 35.28ZM573.281 37.2C575.961 37.2 577.461 35.98 577.461 33.86C577.461 31.64 576.001 31.04 573.541 30.66C571.881 30.38 571.381 30.08 571.381 29.32C571.381 28.58 572.001 28.08 573.041 28.08C574.161 28.08 574.701 28.52 574.901 29.48H577.141C576.881 27.12 575.181 26.32 573.041 26.32C571.081 26.32 569.121 27.36 569.121 29.46C569.121 31.42 570.141 32.2 572.901 32.64C574.441 32.9 575.141 33.22 575.141 34.08C575.141 34.96 574.561 35.42 573.261 35.42C571.841 35.42 571.301 34.8 571.181 33.74H568.901C569.001 35.96 570.581 37.2 573.281 37.2ZM584.184 37.2C586.864 37.2 588.644 36 588.984 33.8H586.644C586.464 34.82 585.704 35.4 584.244 35.4C582.444 35.4 581.444 34.28 581.364 32.3H589.024V31.6C589.024 27.86 586.684 26.32 584.084 26.32C581.104 26.32 578.884 28.48 578.884 31.72V31.88C578.884 35.18 581.104 37.2 584.184 37.2ZM581.404 30.68C581.644 29.06 582.624 28.08 584.084 28.08C585.584 28.08 586.504 28.88 586.624 30.68H581.404ZM591.185 37H593.605V30.84C593.605 29.18 594.705 28.34 596.065 28.34C597.505 28.34 598.145 29.06 598.145 30.64V37H600.565V30.42C600.565 27.54 599.085 26.32 596.985 26.32C595.265 26.32 594.105 27.18 593.605 28.2V26.54H591.185V37ZM606.913 37.18C607.653 37.18 608.173 37.06 608.553 36.92V35C608.213 35.14 607.853 35.2 607.373 35.2C606.613 35.2 606.173 34.78 606.173 33.86V28.36H608.473V26.54H606.173V24.24H603.753V26.54H602.353V28.36H603.753V34.08C603.753 36.06 604.833 37.18 606.913 37.18Z" fill="#F6A821"/>
<path d="M449.046 4C449.046 2.067 450.613 0.5 452.546 0.5H634.35V61.5H452.546C450.613 61.5 449.046 59.933 449.046 58V4Z" stroke="#F6A821"/>
</svg>
