<svg width="24" height="24" viewBox="0 0 24 24" fill="none" xmlns="http://www.w3.org/2000/svg">
<path fill-rule="evenodd" clip-rule="evenodd" d="M22.45 11C22.09 7.24 19.75 4.07 16.48 2.52L15.15 3.84L11.34 0.0299988L12 0C18.29 0 23.44 4.84 23.95 11H22.45ZM8.11 1.75C8.69 1.16 9.64 1.16 10.23 1.75L22.25 13.77C22.84 14.35 22.84 15.3 22.25 15.89L15.89 22.25C15.31 22.84 14.36 22.84 13.77 22.25L1.75 10.23C1.16 9.65 1.16 8.7 1.75 8.11L8.11 1.75ZM14.83 21.19L2.81 9.17L9.17 2.81L21.19 14.83L14.83 21.19ZM1.55 13C1.91 16.76 4.25 19.94 7.52 21.48L8.85 20.16L12.66 23.97L12 24C5.71 24 0.56 19.16 0.0500002 13H1.55Z" fill="black" fill-opacity="0.54"/>
</svg>
